<svg xmlns="http://www.w3.org/2000/svg" width="800" height="800" fill="none" viewBox="0 0 24 24"><path fill="#1C274C" d="M11.5 8a3.5 3.5 0 1 1-7 0 3.5 3.5 0 0 1 7 0Z" opacity=".5"/><path fill="#1C274C" fill-rule="evenodd" d="M7.5 1.25c.41 0 .75.34.75.75v.5a.75.75 0 0 1-1.5 0V2c0-.41.34-.75.75-.75ZM3.08 3.08c.3-.3.77-.3 1.06 0l.22.22A.75.75 0 0 1 3.3 4.36l-.22-.22a.75.75 0 0 1 0-1.06Zm8.84 0c.3.3.3.77 0 1.06l-.22.22a.75.75 0 1 1-1.06-1.06l.22-.22c.3-.3.77-.3 1.06 0ZM1.25 7.5c0-.41.34-.75.75-.75h.5a.75.75 0 0 1 0 1.5H2a.75.75 0 0 1-.75-.75Zm3.1 3.14c.3.3.3.77 0 1.06l-.2.22a.75.75 0 0 1-1.07-1.06l.22-.22c.29-.29.76-.29 1.06 0Z" clip-rule="evenodd" opacity=".5"/><path fill="#1C274C" d="M16.29 22A5.68 5.68 0 0 0 22 16.35c0-2.47-1.6-4.57-3.84-5.34A5.7 5.7 0 0 0 12.48 6a5.68 5.68 0 0 0-5.36 7.6A4.26 4.26 0 0 0 2 17.77 4.26 4.26 0 0 0 6.29 22h10Z"/></svg>