<svg xmlns="http://www.w3.org/2000/svg" width="800" height="800" fill="none" viewBox="0 0 24 24"><path fill="#1C274C" d="M12 16c-5.76 0-6.78-5.74-6.96-10.3-.05-1.26-.08-1.9.4-2.48.48-.59 1.04-.68 2.18-.87C8.75 2.15 10.22 2 12 2c1.78 0 3.25.16 4.38.35 1.14.19 1.7.28 2.18.87.48.59.45 1.22.4 2.49C18.78 10.26 17.76 16 12 16Z" opacity=".5"/><path fill="#1C274C" d="m17.64 12.42 2.82-1.56c.75-.42 1.13-.63 1.33-.98.21-.35.21-.78.21-1.65v-.07c0-1.04 0-1.56-.28-1.96-.29-.39-.78-.55-1.77-.88L19 5l-.02.08-.02.63c-.09 2.22-.38 4.73-1.32 6.71ZM5.04 5.7c.09 2.23.38 4.74 1.32 6.72l-2.82-1.56c-.75-.42-1.13-.63-1.33-.98C2 9.53 2 9.1 2 8.23v-.07c0-1.04 0-1.56.28-1.96.29-.39.78-.55 1.77-.88L5 5l.02.09.02.62Z"/><path fill="#1C274C" fill-rule="evenodd" d="M5.25 22c0-.41.34-.75.75-.75h12a.75.75 0 0 1 0 1.5H6a.75.75 0 0 1-.75-.75Z" clip-rule="evenodd"/><path fill="#1C274C" d="M15.46 21.25H8.54l.3-1.75a1 1 0 0 1 .98-.8h4.36a1 1 0 0 1 .98.8l.3 1.75Z" opacity=".5"/><path fill="#1C274C" d="M12 16c-.26 0-.5-.01-.75-.03v2.73h1.5v-2.73c-.24.02-.49.03-.75.03ZM11.15 6.02c.38-.68.57-1.02.85-1.02s.47.34.85 1.02l.1.18c.11.2.16.29.25.35.08.07.19.1.4.14l.19.04c.74.17 1.1.25 1.2.53.08.29-.17.58-.67 1.17l-.13.15c-.15.17-.22.25-.25.36-.03.1-.02.21 0 .43l.02.2c.08.8.11 1.18-.12 1.36-.23.17-.57.01-1.26-.3l-.18-.09c-.2-.09-.3-.13-.4-.13-.1 0-.2.04-.4.13l-.18.09c-.69.31-1.03.47-1.26.3-.23-.18-.2-.57-.12-1.35l.02-.2c.02-.23.03-.34 0-.44a1.1 1.1 0 0 0-.25-.36l-.13-.15c-.5-.59-.75-.88-.66-1.17.09-.28.45-.36 1.2-.53l.18-.04c.21-.05.32-.07.4-.14.09-.06.14-.16.25-.35l.1-.18Z"/></svg>