<svg xmlns="http://www.w3.org/2000/svg" width="800" height="800" fill="none" viewBox="0 0 24 24"><path fill="#1C274C" d="M2 12c0 1.64.42 2.2 1.27 3.3C4.97 17.5 7.82 20 12 20c4.18 0 7.03-2.5 8.73-4.7.84-1.1 1.27-1.66 1.27-3.3s-.43-2.2-1.27-3.3C19.03 6.5 16.18 4 12 4 7.82 4 4.97 6.5 3.27 8.7 2.42 9.8 2 10.36 2 12Z" opacity=".5"/><path fill="#1C274C" fill-rule="evenodd" d="M8.25 12a3.75 3.75 0 1 1 7.5 0 3.75 3.75 0 0 1-7.5 0Zm1.5 0a2.25 2.25 0 1 1 4.5 0 2.25 2.25 0 0 1-4.5 0Z" clip-rule="evenodd"/></svg>