<svg xmlns="http://www.w3.org/2000/svg" width="800" height="800" fill="#1c274d" viewBox="0 0 32 32"><path d="M9.47 9.6h3.03c.26 0 .48-.27.48-.61V4.6c0-.34-.22-.62-.48-.62H9.47c-.27 0-.49.28-.49.62V9c0 .34.22.62.49.62zm16.49 13.8V15.4h-7.99v7.99h-4l8 7.99 7.98-8zM7.1 25.7a.5.5 0 0 1-.5-.5V13.74c0-.28.23-.5.5-.5h17.72c.28 0 .5.22.5.5v.53h1.56v8.61h1.56V8c0-.28-4.21-4.5-4.49-4.5h-4.74c.17.07.29.23.29.4v6.19c0 .24-.22.44-.49.44H8.43c-.27 0-.48-.2-.48-.44V3.9c0-.18.12-.34.28-.4H4a.5.5 0 0 0-.5.5v23.95c0 .28.23.5.5.5H18.4l-2.74-2.74H7.1z"/></svg>