<?xml version="1.0" encoding="utf-8"?>
<!-- Generator: Adobe Illustrator 25.4.1, SVG Export Plug-In . SVG Version: 6.00 Build 0)  -->
<svg version="1.1" id="Layer_1" xmlns="http://www.w3.org/2000/svg" xmlns:xlink="http://www.w3.org/1999/xlink" x="0px" y="0px"
	 viewBox="0 0 1280 1280" style="enable-background:new 0 0 1280 1280;" xml:space="preserve">
<style type="text/css">
	.st0{display:none;}
</style>
<g transform="translate(0.000000,1280.000000) scale(0.100000,-0.100000)" fill="#716b58">
	<path d="M12623.3,674.5c-18.9,22.1-27.5,61.2-21.4,92.6c7.2,46.1,3.1,55-27.4,55.9c-31.9-0.6-31.9,4.8,15.3,41.6
		c44.6,33.9,47.1,42.2,23.1,50.4c-16,6.4-32.4,31.4-38.1,57.5c-5.7,26.1-23.5,60.3-39.7,74.7c-18.9,16.8-23.2,36.3-10.1,51
		s10.2,27.7-7.2,32.6c-14.7,5.2-21.5,16.5-15,23.8c7.8,8.8,6.3,20.7-3.1,29c-8.1,7.2-16.5,35.7-18.2,60.9
		c-3.3,39.7-8.7,47.1-31.1,38.2c-17.2-5.8-31.9,2.1-36.1,13.7c-2.9,13.1,3.5,28.4,14.1,32.1c11.9,2.5-1.7,25.2-28.7,49.1
		c-32.3,28.7-47.5,63.2-49.5,104.4c-0.6,34.6-10.3,64.3-22.4,69.8c-10.7,4.3-27.1,31.9-32.8,60.7c-14.3,65.3-21.1,71.2-45.8,43.4
		c-26.1-29.3-46.3-8.7-32.3,28.7c10.3,22.4-0.6,37.3-39.5,61.4c-38.8,21.4-53.8,42.6-55.6,70.4c-0.9,53.3-108.5,143.7-137.2,114.1
		c-11.7-13.2-14.5-5.5-4.4,24.9c10.1,33.1,1.8,56.2-31.9,86.1c-24.2,21.6-39.2,45.4-32.7,52.7c5.2,5.9-19.4,51.4-57.3,98.2
		c-59.6,74-74.4,84.5-102.1,75c-23.8-7.8-33.1-4.7-29.4,13c6,39.3-34.9,104.5-54.4,82.5c-11.7-13.2-15.8-6.9-18.9,19.4
		c-1.6,19.8-32.9,66-69.4,103.7c-35.1,39.1-62.3,79-59.9,92.6c3.7,15.1-1.7,22.5-16.2,17c-25.1-9.2-69.9,51.6-62.5,87
		c3.7,17.7-1.6,19.8-12.1,8.1c-11.7-13.2-22.5-6.3-37.6,25.5c-19.2,40.7-101.8,140.4-193.6,235.1c-18.9,22.1-45.9,48.7-59.4,63.3
		c-13.5,14.6-16.5,35.7-6.1,47.4c28.7,32.3,0.2,68.1-43.4,54.3c-38.3-13.2-102.8,33.6-115.5,84.3c-4.2,14.2-27,29.3-51,32.2
		c-39.9,6.6-45.4,14.1-40.8,62.6c4.3,61.8-3.9,77-30,47.7c-15.6-17.6-26.4-10.7-49.6,28.3c-17.7,28.9-38,52.2-47.3,55.2
		c-9.3,0.4-16.1,11.7-12.3,24.1c3.7,17.7-4.4,24.9-26.9,23.9c-23.9,0.2-30.6,6.2-27,26.6c5,19.2-3,23.7-32.1,15.4
		c-35.7-7.6-37.1-6.4-20.3,26c18.1,31.2,12.7,38.6-36.8,61.6c-33.4,13.9-57.7,35.5-59.2,50c-7.8,72.6-305,394.6-344.5,371.9
		c-27.6-14.8-98.1,74.1-92.2,118.7c3.6,23.1-8.6,41.8-39.4,56c-24.1,13.6-39,29.4-32.5,42.1c11.5,26.5-84.3,122.2-114.7,115.1
		c-13.2-4-22.7,9.7-24.4,32.2c-3,21-42.3,74.4-90.9,120.2c-45.8,43.4-83.7,87.5-85.2,96.7c1.2,9.5-14.9,18.5-33.5,21.9
		c-20,4.6-37.5,20.2-41.8,39.8c-2.9,15.7-36.7,56.3-73.1,88.6c-56.6,50.3-60.7,59.2-28.9,65.1c62.2,13,41.9,36.3-31.2,40.9
		c-39.8,1.3-75.9,15-82.8,28.9c-6.9,14-24.3,24.2-40.2,22.6c-15.9-1.6-42.9,27.7-75.7,85.7c-50.6,92.3-348.8,391.5-404.8,409.8
		c-53.4,15.9-120.8,81.1-102.5,101.6c7.8,8.8,10.3,22.4,2.2,29.6c-6.7,6-20,4.6-27.8-4.2c-9.1-10.3-34.7,9.8-79.3,60
		c-47.4,57.9-68.9,71.7-80.6,58.5c-13-14.7-17.1-11.1-20.2,18c-1.6,19.8-8.5,31.2-13.7,25.3c-5.2-5.9-12,2.8-12.2,18.8
		c-1.6,17.2-27.3,47.9-55.5,67.7c-26.9,21.3-52.6,52-54.2,66.5c-3,21-16.4,30.4-40.3,30.6c-30.5,0.9-38.6,8.1-40.5,43.9
		c-3.3,39.7-85.5,118.1-132.1,125.3c-9.3,0.4-44.5,42.2-81.1,93.1c-36.7,51-77.2,94.9-90.5,96.2c-14.6,2.5-46.9,28.6-72.6,56.7
		c-28.5,35.8-49.9,49.6-60.3,37.9c-7.8-8.8-19.7-11.3-27.8-4.2c-6.7,6-4.3,22.2,6.1,34c22.2,24.9-19.8,72.7-54.1,61.2
		c-14.5-5.5-42.8,17-76.6,57.6c-29.8,37-62.3,73.7-70.3,80.9c-9.4,8.4-13.6,20-8.4,25.8c3.9,4.4-117.4,120.1-271,256.6
		c-216.8,190.1-284,242-294.4,227.6c-14.2-24.1-47.9,8.5-59.3,58c-6.9,19.3-16.3,25-29.5,18.3c-36.8-22.4-43.9,4.9-8.5,31.2
		c35.5,23.6,35.5,23.6-48.4,37.8c-74.6,13.8-84,19.5-84.5,54.1c-0.6,34.6-96.3,125-382.9,364c-6.7,6-37.8,38.9-68.9,71.7
		c-31.1,32.9-64.7,60.1-78,61.4c-10.6,1.6-67.1,43.9-123.6,91.5c-56.5,47.6-107.6,87.8-113,89.9c-20,7.3-150.8,131.4-153.7,147.1
		c-1.5,9.2-35,31.1-71.2,50.1c-74.9,35.1-74.9,35.1-143.9,112.1c-29.7,31.7-57.9,51.5-63.1,45.6c-6.5-7.3-21.4,8.5-33.8,35.3
		c-16.5,33-29.9,42.3-48.4,37.8c-15.8-6.9-21.4,11.2-12.8,50.7c12.3,62.6-8.3,101.9-27.4,53.2c-7.7-16.8-19.6-22-31.7-11.2
		c-10.8,9.6-25.4,12.1-31.9,4.8c-6.5-7.3-44.1,18.2-83.2,55.6c-39.1,37.4-75.4,64.4-80.6,58.5c-11.7-13.2-73.3,17.9-73.6,36.5
		c-1.7,22.5-121.6,134.4-146.9,135.8c-25.2,1.4-61.5,25.8-123.5,83.5c-24.2,21.5-51,34.8-60.3,32.6c-7.9-3.5-52.3,30.7-96.8,75.5
		c-122.8,124.9-299,268.4-310.8,255.2c-13-14.7-313,231-308.1,252.8c4.9,27.2-20.6,41.9-33.5,21.9c-6.4-12.7-38.5,0.1-81.6,35.7
		c-98.1,76.7-204.1,142-233.3,144.4c-13.3-1.3-87.2,59.2-165.4,131.3c-79.5,73.3-146.8,127.8-152,122
		c-11.7-13.2-145.2,113.3-153.7,147.1c-2.9,13-13.6,17.3-20.1,10c-7.8-8.8-34.5,1.8-58.8,23.4c-25.6,22.7-53.7,39.9-64.3,38.8
		c-19.9-3.4-17.2-3.1-159.5,94.5c-56.4,39.6-125,92.7-151.9,119.3c-35.1,36.5-52.4,41.4-76.1,25.6c-21-15.5-25-14.6-12,2.8
		c15.6,20.3-3.4,45-111.1,140.8c-71.4,66.1-207.7,200.4-300.9,301.6c-120.2,127.9-182.2,182.9-210.1,189.4
		c-30.6,6.2-37.4,12.2-24.3,26.9c9.1,10.3,8.7,39.6-1.1,66.6c-12.4,29.4-24.5,40.2-32.4,31.4c-15.6-17.6-125.2,108.7-117.7,138.8
		c2.5,10.9-13.8,30.6-35.2,41.8c-21.4,11.2-36.4,35-34,51.2c2.3,21.6-1.7,25.2-18.9,16.8c-11.8-7.9-31.8-5.9-42.5,3.7
		c-12.1,10.8-12.3,21.4-0.4,24c10.6,3.7,17,16.4,15.5,28.3c-2.8,10.4-21.5,13.8-41.2,5.1c-30.4-9.8-38.4-5.2-55,35.8
		c-13.8,30.6-35.4,52.4-62.1,63.1c-25.4,9.4-46.9,28.6-52.6,49.4c-5.6,18.1-21.8,35.1-33.8,37.9c-12,0.1-61.7,39.1-110.2,84.9
		c-48.5,45.8-103.8,97.5-124,115.5c-17.6,13.6-28.8,27.8-30.1,37c-193.8,146.7-385.6,296.2-573.1,450.9c-3.3-3.3-8.2-4.7-12-0.6
		c-9.6,10.2-19.6,20-29.5,29.9c-23.8-2-49.6,7.1-65,27.1c-6.8,8.6-22.8,12.4-33.3,8.6c-10.6-3.7-28,6.5-38.9,24.1
		c-13.6,20-28.2,19.8-55.8-0.3c-48.5-41-74.3-86.3-55.4-103c14.9-15.8-8.1-158.3-42.4-256.5c-27.9-82.9,19-271.6,86.6-350.1
		c32.5-36.7,60.9-72.5,62.4-81.7c4.2-14.2,117.8-144.1,166.3-189.9c10.8-9.6,21.8-32.5,22-48.5c4.3-19.6,9.7-24.4,21.4-11.2
		c11.7,13.2,35.9-3,88.6-60.4c44.6-47.5,86.2-76.6,102.1-75c21.2,2.2,23.9-2.9,12.2-16.1c-14.3-16.1,11.3-41.5,122.9-127.6
		c76.6-57.6,166.6-121.8,200-138.4c33.5-16.6,61.7-36.4,61.8-44.4c0.1-5.3,18.8-14.1,42.8-17c33.2-3.3,45.4-14.1,47.1-39.2
		c3-23.7,67.8-86.5,219.8-211.1c243.6-203.4,266.4-221.1,288.9-214.8c26.5,5.4,158.2-93.3,145.1-108c-6.5-7.3,36.7-51,99.8-99.3
		c185.6-146.6,363-285.9,384.6-305.1c144.1-128.1,213.9-174.4,240.2-158.4c11.9,5.2,18.6-0.8,21.6-21.8
		c1.6-14.5,35.4-57.8,75.8-93.7c71.3-60.8,296.4-268.7,401.5-367.4c25.6-25.4,44.6-50.2,39.4-56c-3.9-4.4,17.9-36.9,50.3-73.6
		c143.3-158.9,426.5-515.7,421.4-529.5c-10.2-27.7,31.4-51.5,60.3-35.2c15.8,6.9,30.4,7.1,31.9-2.1c7.2-32.6,93.7-49.2,129.2-25.5
		c27.6,20.2,27.3,33.5,6.9,64.8c-15,23.8-30.1,55.6-31.7,70.2c-4.6,35.6-60.7,59.2-65.5,29.4c-2.5-10.9-17-19.1-30.3-17.8
		c-14.6,2.5-16,6.4-4.2,11.6c30.4,9.8,23,53-12.4,108.2c-49,72.4-2.7,83.8,64.8,18.6c20.2-20.6,707.8-589.8,995.6-824.7
		c115.7-95,266.4-223.7,337.8-284.5c70-62.3,160.1-131.8,199-155.9c48.2-27.1,69.8-48.9,66.1-66.7c-5-16.5,5.7-23.4,32.2-23.4
		c26.6,0,40-9.3,44.3-28.9c4.6-35.6,443.3-409.9,523.6-447.1c18.7-8.8,18.7-8.8,68.9-74.4c20.3-26,59.3-55.3,90-64.2
		c41.4-13.1,53.5-23.9,56.7-55.6c3.1-29,78.7-106.7,291.6-303.9c157.7-145.4,305.9-282.4,328.8-305.4c25.6-22.7,56.4-37,72.2-32.7
		c18.5,7.2,25.2,3.9,17.4-10.2c-12.8-30.7,46.6-94,341.8-372.2c266.9-250.4,391-373.8,527.4-521.4c48.7-53.8,97.1-94.2,121-97.1
		c24-5.6,40.1-19.9,40.4-33.3c0.2-13.3,39.6-66.7,86.8-116.6c47.3-52.6,86.6-100.6,89.4-108.3c2.8-7.7,12.1-10.8,22.7-7
		c10.6,3.7,36.1-19,59.2-50c23.1-31,69-79.7,105.3-106.7c35-28.5,66-61.3,67.6-75.8c1.6-14.5,58.3-78.1,127.1-141.8
		c67.4-65.2,121.5-126.4,119.1-140c-2.4-13.6,14.9-18.5,42.7-11.7c43.6,11.1,43.6,11.1,40.5-43.9c-4.5-48.5,9-65.8,141.1-188.5
		c79.5-76,143-142.9,141.8-152.3c-2.3-21.6,153.1-193.9,236.5-260.1c36.3-29.7,82.3-81,98.7-114c46.5-86,104.4-137.5,132.1-122.7
		c22.4,11.6,26.5,5.4,36.4-32.3c4.4-24.9,29-70.4,53.4-100c32.5-42.1,45.9-48.7,62.9-29.6c15.6,17.6,21,15.5,24.1-10.9
		c1.8-27.8,51.9-88.1,201.8-250.3c24.3-24.2,45.9-48.7,48.7-53.8c9.6-21.7,65.9-50.7,93.8-51.8c22.6,1,24-5.6,8.3-23.2
		c-35.2-39.6-0.1-78.7,75.7-83c41.2-2.5,67.9-13.1,66.8-25.2c-5-19.2,7.5-51.3,73.6-204.7c13.8-30.6,47.7-76.5,74.7-105.8
		c28.3-27.8,58.2-70.1,66.5-93.3c11.2-33.6,28.6-46.5,83.3-63.6c46.7-15.3,70.9-31.5,71.2-50.1c0.2-13.3,12.4-29.4,25.8-33.4
		c13.3-4,25.7-28.1,24.7-50.9c0.9-56,11.6-62.9,72.6-54c64.9,10.6,85.1-7.4,40.4-35.9c-28.9-19-28.8-26.9,9-63.1
		c159-146.6,194.1-185.7,188-214.4c-3.7-17.7,7.2-35.3,21.9-40.5c14.7-5.2,26.9-23.9,27.2-39.9c0.4-24,8.4-28.5,32.2-20.7
		c27.7,9.5,30.4,7.1,10.9-14.9c-18.3-20.5-8.7-36.9,46.5-83.3c47.1-41.9,70.3-78.2,79.1-128.1c5.9-36.8,19.5-59.4,27.4-50.6
		c9.1,10.3,18.5,4.6,26.9-18.6c5.6-18.1,46.2-67.3,89.4-108.3c84.9-80.8,154-163.1,163.8-195.5c1.5-11.9,32.7-50,69.1-85
		c64.8-68.1,85.1-91.4,108.4-135.7c45.2-87.5,130.7-205.5,191.5-267.4c8.1-9.8,4.4-27.6-11.3-39.8c-22.3-16.9-14.1-32.1,46.6-94
		c99.8-99.2,181.2-121.7,300-77.5c52.8,18.7,105.5,42.8,118.6,54.8c11.8,10.5,28.9,19,36.9,19.8c9.3,2.3,27.5,22.8,41.7,49.6
		C12649.3,625.1,12646.3,648.8,12623.3,674.5z M4361.1,9327c-3.9-4.4-15.8-6.9-27.8-4.2c-10.6,1.6-14.8,10.5-8.3,17.8
		c7.8,8.8,21.1,10.2,27.8,4.2C4361,9337.7,4363.7,9330,4361.1,9327z M10273.4,3908.5c-2.6-2.9-17.3,4.9-32.2,18.1
		c-14.8,13.2-21.7,29.8-15.2,37.1c6.5,7.3,21.2-0.5,32.2-18.1S10276.1,3911.4,10273.4,3908.5z M11925,1915
		c-10.4-11.7-21-12.8-25.2-1.2c-2.8,10.4-0.4,26.6,7.4,35.4c6.5,7.3,18.5,7.2,25.2,1.2C11940.5,1943.3,11936.8,1928.2,11925,1915z"
		/>
</g>
<g transform="translate(0.000000,1280.000000) scale(0.100000,-0.100000)" fill="#716b58">
	<path d="M12153.5,12522.8c-42.4,47.2-88.6,71.6-104.7,52.2c-15.4-15.3-158.4,3.2-257.7,34.4c-83.7,25.3-270.9-27.4-347.2-97.4
		c-35.7-33.6-70.6-63.1-79.7-64.9c-14.1-4.7-140.4-122.2-184.6-172.2c-9.2-11.1-31.8-22.8-47.8-23.5c-19.4-4.9-24.1-10.4-10.5-21.8
		c13.6-11.3-1.9-36-57.6-90.4c-46.1-46-73.9-88.5-71.8-104.4c2.8-21.1-2.2-24-15.7-12.7c-16.6,13.8-41.2-12.6-123.7-126.8
		c-55.2-78.4-116.6-170.3-132.1-204.2s-34.5-62.8-42.5-63.1c-5.3-0.3-13.5-19.2-15.7-43.3c-2.3-33.3-12.6-45.8-37.8-48.3
		c-23.6-3.8-84.4-70.4-204.2-226.2c-195.7-249.8-212.7-273.2-205.7-295.4c6.2-26.3-88.3-161-103.4-148.4
		c-7.5,6.3-49.8-38.2-96.1-102.9c-140.7-190-274.5-371.8-293-393.9c-123.6-148-167.6-219.2-150.8-245c5.6-11.7-0.2-18.6-21.1-22.3
		c-14.5-2-56.6-37.2-91.3-78.7c-46.1-57.6-180.4-213.4-282-329.8c-2.3-11.8-5.8-23.4-9.8-34.6c-10.4-29.3-24.7-57.1-40.1-83.9
		c-18.6-32.3-39.3-63.4-60.7-93.9c-24-34.1-49.1-67.5-74.5-100.5c-26.8-34.7-54-69-81.3-103.2c-27.1-34-54.2-67.9-81-102
		c-25-31.9-49.8-64.1-73.6-96.9c-13.2-18.2-26.2-36.7-38.6-55.5c20-2.6,14-35.2-23-78.5c44.1,43.4,88.2,86.8,134,128.4
		c4.8,4.3,11.8-2.7,7.1-7.1c-6.7-6.1-13.3-12.2-19.9-18.3c-45.9-42.5-90-86.7-134.7-130.4c-12.9-12.6-25.9-25.2-39.1-37.6
		c-139.9-177.4-557.1-715.1-747-963.2c-91.3-118.6-215.3-273.3-273.9-346.5c-60-71.9-126.8-164.1-149.6-203.7
		c-25.6-49-46.7-71.3-64.6-68.2c-16.7,4.5-23.2-6.4-22.4-33c0.9-26.5-8-40.2-27.5-45.1c-35.4-5.7-395.9-455.9-430.6-537.3
		c-8.2-19-8.2-19-72.2-71.2c-25.3-21.1-53.5-61-61.4-91.9c-11.8-41.8-22.2-54.2-53.8-58.4c-28.9-4-104.2-82-294.7-300.9
		c-140.4-162.1-272.8-314.5-295.1-338.2c-21.9-26.3-35.2-57.5-30.4-73.2c7.8-18.2,4.7-25-9.7-17.7c-31,11.8-92.5-49.5-361.3-353.3
		c-241.9-274.5-361.5-402.4-504.7-543.4c-52.2-50.3-91.1-100-93.3-124c-4.8-24.1-18.7-40.7-32-41.4c-13.3-0.6-65.4-41.6-113.8-90.4
		c-51.1-48.9-97.9-89.7-105.5-92.7c-7.6-3-10.4-12.5-6.3-22.9c4.1-10.4-17.9-36.7-48.1-60.7c-30.3-24-77.5-71.4-103.4-108.5
		c-27.4-35.8-59.2-67.9-73.7-69.9c-14.5-2-76.3-60.7-137.8-131.4c-63.1-69.4-122.6-125.4-136.2-123.4c-13.7,2-18-15.5-10.3-43
		c12.5-43.3,12.5-43.3-42.6-41.9c-48.6,3-65.5-11.1-184-146.9c-73.5-81.9-138.4-147.4-147.9-146.5c-21.6,1.6-189-159.1-252.6-244.5
		c-28.5-37.2-78.4-84.8-110.9-102.2c-84.5-49.2-134.2-108.7-118.5-135.8c12.3-22,6.2-26.3-31.2-37.4c-24.8-5.2-69.5-31.2-98.3-56.5
		c-41-33.8-47.2-47.4-27.7-63.8c18.1-15.1,16.1-20.5-10.1-24.4c-27.8-2.6-86.5-54.6-243.9-209.5c-23.4-25-47.2-47.4-52.2-50.3
		c-21.4-10.3-48.6-67.4-48.9-95.3c1.7-22.5-4.8-24.1-22.9-9.1c-40.7,34-78.7-2.4-80.6-78.2c-1.2-41.3-11-68.3-23.1-67.5
		c-19.3,4.4-51-9.1-202.3-80c-30.2-14.7-75-50.1-103.4-78c-26.9-29.2-68.3-60.4-91.2-69.4c-33.2-12.2-45.5-30.1-60.9-85.3
		c-13.8-47.2-29.3-71.8-47.9-72.7c-13.3-0.6-29-13.3-32.6-26.8c-3.6-13.5-27.3-26.5-50.1-26.3c-55.9-2.6-62.5-13.6-51.7-74.2
		c12.6-64.5-4.7-85.3-34.6-41.5c-19.8,28.3-27.8,27.9-62.8-10.9c-141.6-163.5-179.6-199.8-208.4-194.6c-17.8,3.1-35.1-8.3-39.8-23.1
		c-4.7-14.8-23.1-27.7-39.1-28.4c-24-1.1-28.2-9.3-19.7-32.8c10.4-27.4,8-30.2-14.6-11.3c-21.1,17.6-37.2,7.5-81.8-49
		c-40.4-48.4-76-72.7-125.5-83c-36.6-7-58.8-21.4-49.7-28.9c10.5-8.8,5.1-18.4-17.8-27.4c-17.9-6.2-65.9-48.3-105.5-92.7
		c-78.1-87.4-158.3-159-190.3-169.8c-11.8-1.9-49-34.2-82.8-71.7c-66.1-66.9-88.7-87.9-132.3-112.6
		c-86-47.9-201.3-137.1-261.3-199.7c-9.6-8.4-27.4-5.3-40.2,10.1c-17.6,21.8-32.5,13.1-92.5-49.5C551.9,584.1,532,502,579.8,384.7
		c20.4-52.2,46-104.1,58.4-116.8c10.9-11.4,19.8-28.3,20.9-36.2c2.6-9.2,23.7-26.8,50.9-40.1c35.9-18.2,59.5-14.5,84.5,9.3
		c21.5,19.6,60.4,29.4,91.8,24.3c46.3-5.8,55.1-1.4,55,29.2c-1.6,31.8,3.8,32.1,42-14c35.3-43.5,43.6-45.8,51.1-21.5
		c5.9,16.2,30.4,33.3,56.3,39.9c25.9,6.5,59.6,25.4,73.4,42c16.2,19.4,35.6,24.3,50.7,11.7c15.1-12.6,28-9.3,32.4,8.2
		c4.7,14.8,15.8,22,23.3,15.7c9-7.5,20.8-5.7,28.9,4c6.9,8.3,35.1,17.6,60.3,20.1c39.6,4.5,46.9,10.2,37.2,32.3
		c-6.3,17,1.1,31.9,12.5,36.5c13,3.3,28.5-2.6,32.5-13.1c2.9-11.8,25.1,2.5,48.2,30.2c27.7,33.2,61.7,49.4,102.8,52.7
		c34.6,1.6,64,12.3,69,24.5c3.9,10.8,31.1,28,59.7,34.7c64.8,16.3,70.6,23.3,41.9,47.2c-30.1,25.2-10.2,46,27.7,33.2
		c22.7-9.6,37.3,1.8,60.1,41.4c20.2,39.5,40.9,55.1,68.6,57.7c53.2,2.5,140.3,112.9,109.8,140.7c-13.6,11.3-5.9,14.3,24.8,5.2
		c33.3-9.1,56.2,0,85.1,34.6c20.8,24.9,44.1,40.6,51.7,34.3c6-5,50.8,21,96.4,60.4c72.1,61.9,82.1,77,71.8,104.4
		c-8.5,23.5-5.7,33,12.1,29.8c39.5-4.8,103.4,38.1,80.8,57c-13.6,11.3-7.4,15.6,18.8,19.5c19.8,2.3,65,35,101.5,72.6
		c38,36.3,77.1,64.8,90.7,62.8c15.2-3.3,22.4,2.4,16.5,16.7c-10,24.8,49.4,71.4,85.1,65.1c17.8-3.1,19.8,2.3,7.7,12.3
		c-13.6,11.3-7,22.3,24.3,38.4c40.1,20.5,137.2,106.1,229,200.8c21.5,19.6,47.2,47.4,61.5,61.4c14.2,14,35.2,17.6,47.2,7.5
		c33.2-27.7,68,1.9,52.9,45c-14.4,37.9,30.4,103.8,80.7,118.1c14.1,4.7,28.4,27.9,30.6,51.9c5.4,40.1,12.6,45.8,61.3,42.8
		c61.9-2.4,76.8,6.3,46.7,31.4c-18.1,15.1-11.5,26,26.8,50.4c28.3,18.6,51,39.6,53.7,49c0.1,9.3,11.2,16.5,23.7,13.1
		c17.8-3.1,24.8,5.2,23.1,27.7c-0.5,23.9,5.3,30.8,25.8,27.8c19.3-4.4,23.6,3.8,14.4,32.6c-8.7,35.5-7.6,36.9,25.3,21.1
		c31.7-17.1,39-11.4,60.5,38.7c12.9,33.8,33.7,58.7,48.1,60.7c72.3,10.1,384.9,317.2,361,355.9c-15.7,27.2,71,100.4,115.8,95.8
		c23.2-2.9,41.5,9.9,54.8,41.1c12.8,24.5,28.2,39.9,41,33.8c26.9-10.7,119.5,88,111.5,118.2c-4.4,13.1,9,23,31.4,25.4
		c20.9,3.6,73.1,44.6,117.3,94.6c41.9,47.2,84.9,86.4,94,88.2c9.5-0.9,18,15.5,20.9,34.2c4,20.1,19,38.1,38.5,43
		c15.6,3.4,55.1,38.5,86.3,75.8c48.5,58.1,57.3,62.5,64.2,30.9c14.9-61.8,37.6-40.8,39.9,32.4c0,39.9,12.6,76.3,26.3,83.6
		c13.8,7.3,23.4,25,21.3,40.9c-2.1,15.8,26.3,43.8,83.3,78.3c90.6,53.4,380.4,360.8,397,417.4c14.2,53.8,77.3,123.2,98.4,105.6
		c9-7.5,22.7-9.6,29.6-1.3c5.8,6.9,4,20.1-5,27.7c-10.5,8.8,8.7,35,57.5,81.1c56.4,49.2,69.5,71.1,56,82.4
		c-15.1,12.6-11.6,16.7,17.3,20.8c19.8,2.3,30.9,9.4,24.9,14.5c-6,5,2.4,12.1,18.4,12.8c17.1,2.1,47,28.8,66,57.6
		c20.4,27.5,50.4,54.2,64.8,56.2c20.9,3.6,29.8,17.4,29.3,41.3c-0.1,30.6,6.9,38.9,42.6,41.9c39.6,4.5,115.3,89.2,121.1,135.9
		c0.1,9.3,40.8,45.8,90.6,84c49.8,38.2,92.4,80.1,93.3,93.4c2.1,14.7,27.1,47.8,54.4,74.3c34.9,29.6,48,51.4,36,61.5
		c-9,7.5-12,19.4-5,27.7c5.8,6.9,22.1,5,34.2-5c25.6-21.4,72.1,22,59.5,56c-5.9,14.3,15.7,43.3,55.2,78.4
		c36,30.9,71.7,64.5,78.7,72.8c8.1,9.7,19.5,14.2,25.6,9.2c4.5-3.8,116.4,121.1,248.1,278.8c183.2,222.6,233,291.4,218.3,301.3
		c-24.6,13.5,7,48.2,56.1,61.1c19.1,7.5,24.5,17.1,17.4,30.1c-23.6,36.1,3.5,44,30.9,9.4c24.7-34.7,24.7-34.7,36.2,49.6
		c11.4,75,16.9,84.5,51.5,86.1c34.6,1.6,121.9,100.1,351.9,394c5.8,6.9,37.7,39,69.5,71.1c31.9,32.1,58.1,66.5,59,79.9
		c1.3,10.7,41.8,68.4,87.6,126.4c45.8,58,84.4,110.3,86.3,115.7c6.7,20.2,126.7,154.8,142.3,158.2c9.1,1.8,30,36,47.9,72.7
		c32.7,76,32.7,76,107.6,147.3c30.7,30.7,49.7,59.5,43.6,64.5c-7.5,6.3,7.8,21.6,34.2,34.8c32.5,17.5,41.4,31.2,36.2,49.6
		c-7.4,15.6,10.5,21.8,50.3,14.3c63-10.3,101.6,11.4,52.4,29c-17,7.2-22.6,18.9-12.2,31.3c9.2,11.1,11.3,25.8,3.8,32.1
		s16.8,44.6,53,84.9c36.1,40.2,62,77.3,56,82.4c-13.6,11.3,15.6,73.8,34.2,74.7c22.4,2.4,130.5,125.8,131.2,151
		c0.6,25.3,23.8,62.3,79.6,126c20.8,24.9,33.2,52.1,30.7,61.2c-3.7,7.8,29.1,53.2,72.5,99.1c121,126.6,259,307.2,245.4,318.6
		c-15.1,12.6,221.1,320.1,243.1,315.8c27.3-4,41.3,21.9,20.9,34.2c-12.9,6-1.1,38.5,33.2,82.6c73.6,100.5,135.6,208.4,137,237.7
		c-1.8,13.2,56.4,89,126.1,169.4c70.8,81.7,123.2,150.7,117.2,155.7c-13.6,11.3,108.7,148.7,142.3,158.2c13,3.3,16.9,14.1,9.3,20.4
		c-9,7.5,0.7,34.6,21.5,59.5c21.9,26.3,38.2,55,36.8,65.5c-4,19.7-3.6,17.1,89.5,162.4c37.9,57.6,88.8,127.8,114.5,155.6
		c35.3,36.2,39.7,53.7,23.2,76.8c-16.1,20.5-15.3,24.5,2.4,12.1c20.7-15,44.9,4.8,137.3,115.4c63.9,73.4,193.8,213.8,292.1,310.1
		c124.1,124.1,177.2,187.8,182.8,215.9c5.3,30.8,11,37.7,26.1,25.2c10.5-8.8,39.8-7.4,66.5,3.1c29,13.3,39.4,25.8,30.4,33.3
		c-18.1,15.1,104.7,128.5,135.1,122c11-2.1,30.2,14.7,40.7,36.5c10.5,21.8,33.8,37.5,50.2,35.6c21.6-1.6,25.1,2.5,16.2,19.4
		c-8.2,11.6-6.9,31.6,2.3,42.6c10.4,12.5,21,13,24,1.1c4.1-10.4,16.9-16.5,28.7-14.6c10.3,3.1,13.2,21.9,3.9,41.4
		c-10.7,30.1-6.4,38.2,34,56.1c30.2,14.7,51.3,37,61.1,64c8.6,25.7,27.1,47.8,47.7,54.1c17.9,6.2,34.4,22.9,36.9,35
		c-0.3,11.9,37.1,62.9,81.4,112.8c44.2,49.9,94.2,106.8,111.6,127.5c13,18,26.9,29.6,36,31.2c140.6,198.3,284,394.6,432.8,586.8
		c-3.4,3.2-4.9,8-1,12c9.9,9.9,19.4,20.2,28.9,30.4c-2.8,23.7,5.6,49.8,25.1,65.9c8.4,7,11.6,23.1,7.6,33.6
		c-4.1,10.4,5.6,28.2,22.8,39.6C12175.1,12481.3,12174.5,12495.9,12153.5,12522.8z M2048.3,931.1c-6.9-8.3-22.1-5-35.7,6.3
		c-12.1,10.1-13.5,20.6-2,25.2c10.3,3.1,26.6,1.3,35.7-6.3C2053.9,949.9,2054.1,938,2048.3,931.1z M3990.4,2666.5
		c-17.2-11.4-33.6-18.9-36.7-16.3c-3,2.5,4.4,17.5,17.1,32.7c12.7,15.2,29.1,22.6,36.7,16.3C4015,2693,4007.6,2678,3990.4,2666.5z
		 M9203.2,8737.1c-6.9-8.3-14.6-11.3-17.6-8.8c-4.5,3.8-7.4,15.6-5,27.7c1.3,10.7,10,15.1,17.6,8.8
		C9207.2,8757.2,9209,8744,9203.2,8737.1z"/>
</g>
</svg>
