<svg xmlns="http://www.w3.org/2000/svg" xml:space="preserve" id="Layer_1" x="0" y="0" style="enable-background:new 0 0 1280 1280" version="1.1" viewBox="0 0 1280 1280"><style>.st0{display:none}</style><path fill="#1c274d" d="M1262 1213c-2-3-2-7-2-10 1-4 0-5-3-5s-3-1 2-4c4-4 5-5 2-6l-4-5c0-3-2-6-3-8-2-1-3-3-2-5s2-3 0-3l-2-2v-3l-2-6c0-4-1-5-3-4-2 0-3 0-4-2l2-3c1 0 0-2-3-5s-5-6-5-10-1-7-2-7c-1-1-3-3-3-6-2-7-3-7-5-5-3 3-5 1-3-2 1-3 0-4-4-7-4-2-6-4-6-7 0-5-11-14-14-11v-3c1-3 0-5-3-8-3-2-4-5-3-5 0-1-2-6-6-10-6-8-8-9-10-8-3 1-4 1-3-1 0-4-4-10-6-8-1 1-1 0-2-2 0-2-3-7-7-11-3-4-6-7-6-9 1-1 0-2-1-2-3 1-7-5-6-8 0-2-1-2-2-1s-2 1-3-3c-2-4-11-14-20-23l-6-6v-5c3-3 0-7-5-6-3 2-10-3-11-8-1-1-3-3-5-3-4-1-5-2-4-7 0-6-1-7-3-4-2 1-3 1-5-3l-5-6c-1 0-2-1-1-2 0-2-1-3-3-2-2 0-3-1-3-3 1-2 0-2-3-2-3 1-4 1-2-2s1-4-4-6l-6-5c0-8-30-40-34-38-3 2-10-7-9-11 0-3-1-5-4-6s-4-3-3-4c1-3-9-13-12-12-1 1-2-1-2-3l-9-12c-5-4-9-9-9-10s-1-2-3-2-4-2-4-4l-8-9c-5-5-6-6-3-6 7-2 5-4-3-4-4 0-7-2-8-3-1-2-2-3-4-2-2 0-4-3-8-9-5-9-35-39-40-41s-12-8-10-10v-3h-3c-1 1-3-1-8-6-5-6-7-7-8-6-1 2-2 2-2-1l-1-3c-1 1-2 0-2-2s-2-5-5-7l-6-6c0-2-1-3-4-3s-3-1-4-5c0-4-8-11-13-12l-8-10-9-9-7-6c-3-3-5-5-6-4s-2 2-3 1 0-2 1-4c2-2-2-7-6-6-1 1-4-1-7-5l-8-9v-2l-27-26c-22-19-29-24-30-23-1 3-5 0-6-5-1-2-1-3-3-2-3 2-4-1-1-3 4-3 4-3-4-4s-9-2-9-5c0-4-10-13-38-37l-7-7-8-6-12-9-12-9c-2-1-15-13-15-15l-7-5c-8-4-8-4-14-11l-7-5-3-3c-2-4-3-5-5-4s-2-1-1-5c1-6-1-10-3-6-1 2-2 3-3 2l-3-1c-1 1-5-2-9-5-4-4-7-7-8-6s-7-2-7-4-12-13-15-14c-2 0-6-2-12-8l-6-3-10-8c-12-12-30-27-31-25-1 1-31-23-31-25 1-3-2-5-3-3s-4 0-8-3c-10-8-21-14-24-15l-16-13-15-12c-1 1-15-11-16-15l-2-1-6-2-6-4-16-9-15-12c-4-4-5-4-8-3-2 2-2 2-1 0 2-2 0-5-11-14l-30-30c-12-13-18-19-21-19-3-1-4-2-3-3v-7c-1-3-2-4-3-3-1 2-12-11-12-14 1-1-1-3-3-4s-4-3-4-5c1-2 0-3-2-2h-4v-2l2-3c-1-1-2-2-4-1-3 1-4 1-6-3-1-3-3-6-6-7s-5-3-5-5l-4-3-11-9a881 881 0 0 0-74-60l-3-3c-2 0-5-1-6-3l-3-1c-2 1-3 0-4-2-2-2-3-2-6 0-5 4-7 9-5 10 1 2-1 16-5 26-2 8 2 27 9 35l6 8 17 19 2 5c0 2 1 2 2 1s4 0 9 6c4 5 9 8 10 8 2-1 3 0 1 1-1 2 2 4 13 13a209 209 0 0 0 30 20c4 0 5 1 5 4 0 2 7 8 22 21 24 20 27 22 29 21 2 0 16 10 14 11l10 10 39 31c14 12 21 17 24 15 1 0 2 1 2 3a1911 1911 0 0 1 52 52l5 7c14 16 42 51 42 53-1 2 3 5 6 3h3c1 4 9 5 13 3 3-2 3-3 1-7l-4-7c0-3-6-5-6-3s-2 2-3 2c-2 0-2 0-1-1 3-1 3-5-1-11-5-7 0-8 7-2l99 83 34 28c7 7 16 14 20 16 5 3 7 5 7 7-1 1 0 2 3 2a329 329 0 0 0 57 48l6 7c2 3 6 6 9 6 5 2 6 3 6 6s8 11 29 30l33 31c3 2 6 4 7 3 2-1 3 0 2 1-1 3 5 10 34 37a956 956 0 0 1 65 62c3 1 4 2 4 4l9 11 9 11 2 1c1-1 4 2 6 5l10 10c4 3 7 7 7 8s6 8 13 14l12 14c0 2 1 2 4 1 4-1 4-1 4 5 0 5 1 6 14 19 8 7 15 14 14 15 0 2 16 19 24 26l10 11c5 9 10 14 13 13 2-2 3-1 4 3l5 10c3 4 5 5 6 3 2-2 3-2 3 1s5 9 20 25l5 5c1 2 7 5 9 5 3 0 3 1 1 3-3 4 0 8 8 8 4 0 6 1 6 3l8 20 7 11c3 2 6 7 7 9 1 3 3 5 8 6 5 2 7 3 7 5s2 3 3 4c1 0 2 2 2 5 0 5 2 6 8 5s8 1 4 4c-3 2-3 2 1 6 15 15 19 19 18 21 0 2 1 4 3 5l2 3c0 3 1 3 3 3 3-1 4-1 2 1s-1 4 4 8c5 5 7 8 8 13 1 4 2 6 3 5s2 0 3 2c0 2 4 7 9 11 8 8 15 16 16 19 0 2 3 5 7 9l11 14c4 8 13 20 19 26 1 1 0 3-1 4-3 2-2 3 4 10 10 10 18 12 30 7 6-1 11-4 12-5l4-2c1 0 3-2 4-5 2-4 2-6-1-8zM436 347l-3 1v-2h2l1 1zm591 542-3-2-1-3 3 1 1 4zm166 200h-3l1-4h2v4z"/><path fill="#1c274d" d="M1215 28c-4-5-9-7-10-5-2 1-16-1-26-4-8-2-27 3-35 10l-8 6-18 18-5 2c-2 0-2 1-1 2s0 4-6 9c-4 5-7 9-7 11s0 2-1 1c-2-2-4 1-13 12a208 208 0 0 0-19 32c0 3-1 4-4 4-2 1-8 7-20 23-20 25-21 27-21 30 1 2-8 16-10 14-1 0-5 4-9 11l-30 39c-12 15-17 22-15 25 1 1 0 1-2 2a1551 1551 0 0 1-38 44l-4 8a125 125 0 0 1-14 20l-8 10-8 10a329 329 0 0 0-11 16c2 0 1 3-3 8l14-13h1l-2 2-14 13-4 4-75 96-27 35-15 20c-2 5-5 7-6 7-2 0-3 1-3 3 0 3 0 5-2 5-4 1-40 46-43 54l-8 7-6 9c-1 4-2 5-5 6-3 0-11 8-30 30l-29 34c-2 2-4 6-3 7 1 2 0 3-1 2-3-1-9 5-36 35a962 962 0 0 1-60 67l-3 4c-2 0-7 4-12 9l-10 9-1 3c1 1-2 3-5 6l-10 11-7 7c-2 0-8 6-14 13s-12 12-14 12c-1 0-2 2-1 4 1 5 1 5-4 5-5-1-7 1-18 14l-15 15c-2 0-19 16-25 24-3 4-8 9-12 11-8 4-13 10-11 13 1 2 0 3-4 4-2 0-6 3-9 6-4 3-5 4-3 6 2 1 1 2-1 2-3 1-9 6-25 21l-5 5c-2 1-5 7-5 10 1 2 0 2-2 1-4-4-8 0-8 8 0 4-1 6-2 6l-21 8-10 8-9 7c-3 1-5 3-6 9-1 4-3 7-5 7-1 0-3 1-3 3l-5 2c-6 0-6 2-5 8s-1 8-4 4c-2-3-3-3-6 1-14 16-18 20-21 19-2 0-3 1-4 3l-4 2c-2 1-3 1-2 4 1 2 1 3-1 1s-4-1-8 5c-4 5-8 7-13 8-4 1-6 2-5 3s1 2-2 3l-10 9c-8 9-16 16-19 17l-9 7c-6 7-8 9-13 11-8 5-20 14-26 20-1 1-3 1-4-1-2-2-3-1-9 5-10 11-12 19-7 31l6 11 2 4c0 1 2 3 5 4 4 2 6 1 8-1 3-2 6-3 10-3 4 1 5 1 5-2 0-4 1-4 4 1 4 4 5 5 5 2 1-2 3-3 6-4s6-2 7-4c2-2 4-3 5-1 2 1 3 1 4-1 0-2 1-2 2-2h3l6-2c4-1 5-1 4-3s0-3 1-4l3 1c0 2 3 0 5-3 3-3 6-5 10-5s7-1 7-2l6-4c7-1 7-2 4-5-3-2-1-4 3-3 2 1 4 0 6-4s4-6 7-6c5 0 14-11 11-14h2c4 1 6 0 9-4 2-2 4-4 5-3l10-6c7-6 8-8 7-11-1-2-1-3 1-3 4 1 10-4 8-5-1-2-1-2 2-2 2-1 7-4 10-8l9-6c2 0 3 0 2-2s5-7 8-6c2 0 2 0 1-1s0-3 3-4c4-2 13-11 23-20l6-6c1-2 3-2 4-1 4 3 7 0 6-5-2-3 3-10 8-11 1-1 3-3 3-6 0-4 1-4 6-4 6 0 8-1 5-3-2-2-1-3 2-5l6-5c0-1 1-2 2-1 2 0 3-1 2-3 0-2 1-3 3-3 2 1 2 0 1-3 0-4 0-4 3-2 3 1 4 1 6-4 1-3 3-6 5-6 7-1 38-32 36-36-2-2 7-10 12-9 2 0 4-1 5-4s3-4 4-4c3 1 12-9 11-12 0-1 1-2 3-2 2-1 8-5 12-10l10-8 2-4c0-2 1-4 3-4l9-8c5-6 6-6 6-3 2 6 4 4 4-3 0-4 2-8 3-8l2-5a198 198 0 0 0 48-50c2-4 8-11 10-10h3v-2c-1-1 0-4 5-8 6-5 7-8 6-9-2-1-1-1 2-2l2-1 2-1 7-6 6-6c2 0 3-2 3-4 0-3 1-4 4-4 4-1 12-9 12-14l9-8c5-4 10-8 10-10l5-7c4-3 5-5 4-6l-1-3c1-1 3 0 4 1 2 2 7-3 6-6-1-1 1-4 5-8l8-7 3-1 24-28c19-22 24-29 22-30s1-5 6-6c2-1 2-2 2-3-3-4 0-5 3-1 2 3 2 3 3-5s2-8 5-9c4 0 13-10 36-39l7-7 6-8 8-13 9-11 14-16 5-7c3-8 3-8 11-15 3-3 5-6 4-7l3-3c4-2 5-3 4-5s1-2 5-1c6 1 10-2 5-3-1-1-2-2-1-4l1-3c0-1 1-4 5-8l5-8c-1-2 2-8 4-8s13-13 13-15c0-3 2-6 8-13l3-6 7-10c12-12 26-30 25-32-2-1 22-32 24-31 3 0 4-2 2-4-1 0 0-3 3-8 8-10 14-21 14-24l13-16 12-16c-2-1 10-15 14-16l1-2c-1-1 0-3 2-6l4-6c-1-2-1-2 8-17l12-15c3-4 4-6 2-8v-1c3 1 5-1 14-12l29-31c13-12 18-18 19-21 0-3 1-4 2-3h7c3-1 4-3 3-3-2-2 10-13 14-13 1 1 3-1 4-3s3-4 5-4 2 0 1-2v-4h3c0 1 2 2 3 1v-4c-1-3-1-4 3-5 4-2 6-4 7-7 0-2 2-5 4-5l4-4 8-11a993 993 0 0 0 58-75v-1l3-3c0-2 1-5 3-6v-4l3-4c2-1 1-3-1-5zM205 1187c-1 1-2 0-4-1v-2h4v3zm194-174-4 2 2-3c1-2 3-3 4-2s0 2-2 3zm521-607-1 1-1-3h2v2z"/></svg>