<svg xmlns="http://www.w3.org/2000/svg" xml:space="preserve" viewBox="0 0 1280 1280"><path fill="#716b58" d="M-80 1001c5-4 9-4 5-1-2 2-2 6 1 9v4c-4 0-4 3 0 3 2 0 4-1 3-2l6-1c5 1 9-1 5-3-3-1-2-5 1-3 5 1 10-1 10-5 0-2 2-3 5-3 4-1 5-2 4-8-1-5 0-6 1-4 4 4 13 4 13 0 0-2 1-2 2-1 2 2 24 2 24 0l7-3c5-2 6-3 3-3-5-1-4-4 1-4 6 1 8-5 3-8-3-2-3-2 1-4l4-4c0-2 2-2 6-2 5 1 5 1 3-2-1-2-4-4-7-5-6-1-5-3 1-4 4-1 7 0 11 3 6 6 9 7 7 2-1-3 0-4 5-5 4 0 9-2 11-3l3-1c3 1 8 0 7-3v-2c4 0 3-5-2-7s-5-6 1-5l7-4c3-3 3-3 0-3l-4-2 2-1c4 0 3-3-2-5s-4-1 0-4 4-3 6 4c1 5 3 7 7 7 2 1 5 0 6-1 1-3 15-3 19-1 5 2 5-3 1-7-5-5-3-10 3-6 3 2 9 2 10 0l6-3c5-1 5 0 4 4-2 5-2 5 6 2 10-5 13-11 5-10-6 2-12 0-10-3 1-1 1-2-1-2-5 0-15 4-15 7 1 2-1 2-5-1l-10-5c-5-3-5-4-1-7s4-3 6 0c1 2 3 3 5 1l5-1c4 2 9-1 9-5 0-5 3-5 5-1 1 4 2 4 4 2l3-4c-2-2 1-6 5-7 2-1 4-3 5-6 0-2 2-5 5-6 4-1 4 0 4 5s1 6 6 7c6 0 8-2 2-5-3-1-3-2-1-3l3-3c-1-5 0-6 2-4h5l1 3c0 2-2 4-4 5-3 1-3 2 3 3 4 2 5 3 4 5-1 3 3 3 6 0 2-3 2-3-1-5-3-1-3-2-1-4s2-3 0-4c-4-3-3-4 2-4 4 0 5 1 4 4l2 2c2 0 2-1 2-2l4-2c3 0 4-4 0-6l-7-1c-15-1-16-1-15-3l5-1c3 1 6 0 8-1 1-2 4-3 6-3 2-1 2-2-1-4-2-3-2-3 1-2 2 1 3 0 3-1l6-2c5 0 5 0 4-4l-3-4-2-5c-1-6 4-4 8 4 4 9 4 9 9 4 4-4 7-5 11-1s6 3 6-1c0-2-2-3-4-3-5 0-8-3-6-5 1-1 2 0 4 1 2 2 15 0 15-2 0-1-2-3-5-4-7-2-8-5-1-5 7 1 9-2 6-7-2-3-2-4 0-5 4-3 8-2 11 0 3 3 12 5 12 2l4-1c3-1 3-1 0-2s-6-2-8-1c-1 0-3 0-3-2s-1-3-2-3c-2-1-3-3-3-6-1-3 0-4 3-1l2 5c0 2 6 3 11 2 3-1 4-3 4-4s2-3 5-3c3-1 4-2 3-4s-1-2 2-1c2 2 3 1 6-1 4-4 2-5-7-5-6 1-7-2-4-9 1-2 0-3-3-3-3-1-4 0-4 1 0 2 0 3-1 2-2-1 1-10 4-10l1 1c-3 2 8 6 15 6 4 0 5-1 4-4-1-4-1-4 6 0 5 3 5 3 1 5-3 0-4 2-3 4 2 5 5 7 9 6l8-1c5 0 6-1 5-4l-3-6c-1-3 1-4 8-5 4 0 9-2 10-4 2-3 2-3 3 0 0 3 0 3 4 1 3-1 3-3 2-4s0-3 3-4l6-4 5-1 9-1h6c2 2 1 4-6 6-2 1-1 2 1 3 4 3 4 3 1 4h-6c-3-1-7 6-6 11 0 2-8 4-11 3-3-2-5-2-15-1-2 0-4 2-4 4l-4 4c-4 1-4 1-3 4 2 2 3 5 2 6 0 3 1 4 7 4l9 2c0 1-1 2-3 2s-3 1-3 2l-3 1c-4 0-5 3-1 4 2 1 2 2-1 4l-3 4c1 1 0 3-1 5-2 3-2 4 0 6s0 2-7 2c-6 0-9 1-9 3 0 3-6 11-9 11l-1 3c1 2-1 3-2 3-2 0-4 2-5 4-1 3-4 4-6 1l-6-1c-3 0-4 1-4 4v3l-4-3-8-5c-4-1-5 0-6 4s-3 6-7 6c-6 2-6 4 0 5 3 1 6 0 9-2 2-1 2 0-1 3-4 4-6 7-6 10 1 3 0 5-3 5-2 1-4 0-4-1l-4-2-4-2-2-3c-5 0-13 6-13 8s-2 3-3 3c-5 0-5 5 0 6 2 1 2 2 1 4-2 2-2 4 0 4s1 3-1 5l-2 4-2-4-2-10c0-8-5-19-8-19l-2 3-1 4-2 1c-1 0-2 0-1-1s0-2-1-3c-2 0-3 1-4 3s-2 3-7 3c-5 1-5 1-1 3 5 2 5 5-1 7-3 2-4 2-5-1 0-2-2-3-3-3-2 1-2 2-2 3 3 3-5 14-9 14-3 0-4 1-3 2 1 2 0 3-4 3s-6 1-6 2l-3 4c-2 0-5 3-6 5a132 132 0 0 1-24 30l-4 8-4 10-2 7c-1 2 0 4 4 7l5 5c-1 1 0 3 1 4 2 3 4 4 10 2 7-1 7-1 4 2-4 3-4 3 0 5 7 2 10 1 10-3-1-3 0-5 1-5l1-5c-1-3 4-6 9-4 8 4 23 2 23-3 0-2 1-4 3-5 3 0 3-1 0-3-3-3-3-4 2-5 8-3 9-3 4 0-3 2-3 3-1 4l3 4c0 4 3 4 5 0 1-1 3-4 5-4 2-1 2-3 1-7-1-5 2-7 4-2 2 4 13 3 14-1 1-5 6-4 5 1 0 2 1 4 3 4 5 0 4 2-1 6s-5 6 1 7l13 6c6 3 7 4 5 6-4 3-14 2-20-2-6-5-10-6-9-2 0 2-1 3-3 3l-2-2c0-3-8-1-11 2l-4 4v-3c0-5-3-6-5-2-1 3-2 3-5 1-2-2-3-1-3 2 0 2-1 5-3 6-4 2-4 2-1 5 2 2 2 3 0 3-1 0-7 2-11 6-13 8-13 9-18 10-6 1-8 6-5 8 4 2 1 4-5 4l-6 2-3 3c-2 0-4 1-5 4l-5 4c-2 0-3 1-3 3s0 2-2 3c-5 1-20 13-20 15 0 1 1 2 3 2 6-1-1 4-10 6-5 2-9 4-11 7-1 2-3 3-5 3l-3 1-7 8c-6 4-7 7-7 11 1 4 0 5-3 5-4 0-7 3-4 4 2 1 2 3 0 5s-3 3-8 2-5-1-4 2 1 4-3 3c-4 0-6 1-8 5s-2 6 0 8c2 1 0 2-5 3-7 1-9 2-11 7l-4 6-2 2-3 4-2 5c1 2 0 3-2 3-3 0-5 1-4 3 0 4 2 4 8 2 2-1 4-4 4-6 0-3 0-4 6-3 4 0 8 2 9 4l4 2c2-1 13 2 13 4 0 3 7 3 12 0 5-2 5-2 5 2 0 5 3 6 8 1 2-2 5-3 8-2 4 0 4 0 2-3l-6-5c-3-2-4-2-6 1-3 3-3 3-4-1 0-4 1-4 8-3s7 1 6-5c-2-4-1-5 2-2 2 1 3 3 2 4s1 2 3 2l3-2 4-1c5 1 5 1 4-2-1-4 0-5 5-6 6-2 6-2 6 2 0 3 1 4 3 3l7-2c2-1 3-2 2-5 0-2 0-3 2-2s5 0 7-2c3-3 3-3 6 0 4 4 6 3 7-3-1-3 1-4 6-3 8 0 13-3 10-6-3-2 0-6 6-6 6-1 8-4 3-7s-4-4 3-6c6-1 7-2 6-5l-3-5c-2 1-2 0-1-2 0-2 2-2 3-1h6c2-2 2-1 1 6-1 6-1 8 2 8l6-3c2-2 4-2 5-2 2 0 4-2 4-5 1-3 3-4 8-4 7 0 8-4 2-7-3-1-3-2 2-1 9 2 13 6 11 10-1 2-4 3-5 3-2 0-4 1-4 3l-6 8c-4 3-5 5-3 6s2 2-1 4-5 2-6 1c-2-3-5-2-5 2 0 2-1 3-2 3-4 1-13 10-12 12 1 1 0 2-2 2l-15 15-22 27c-6 8-9 12-8 15 1 2 1 3-3 4-6 1-5 4 3 6 9 2 8 4-1 3-8-1-8-1-7 3 0 5 6 6 12 2 4-3 5-3 10 0 4 2 6 2 10 0l4-3c0-1 1-2 2-1s2 0 3-1c2-2-7-5-10-4-1 1-2 0-2-2 0-3 1-4 6-4 3 0 5-1 5-2 0-3 6-7 8-6 1 1 0 2-1 2-2 1-2 2-2 3 1 1 1 3-1 4-2 2-2 3 1 5 4 2 5 2 5 0l3-3 2-2c0-3 12-1 12 2l1 3 5-2c4-4 4-4 3 0-2 5 2 6 4 1l4-2c5 2 6-2 2-7l-4-4 5 3 5 3-1-4c-1-6 8-15 12-12 2 2 4 1 5-1 0-3 2-4 3-4 2 0 9-5 8-5-4-2-12-1-13 1-1 1-2 0-2-2 0-3 1-3 11-2 9 1 11 0 11-3 1-5 10-5 13 0 3 4 4 4 8 2 2-2 2-3-1-5-3-3-3-4 0-6 4-3 4-6 1-6l-2-2c0-1 1-2 3-2l4-2h1c1 4 5 3 5-1l2-4c1-1 2-2 1-3s5-5 8-5l1 4c-2 5 1 6 5 2 3-4 4-11 1-11l-5-3c-2-2-2-2 0-3l6-5c1-3 2-3 2-1s2 3 5 3c7 0 9-3 6-6-4-3 0-3 4 0 4 2 12 3 9 1 0-2 1-4 5-7 5-3 6-4 3-8-2-3-2-4 1-4 2 0 3 2 4 4 0 2 2 4 5 4 7 1 7 3 0 5-5 1-6 2-5 6s0 6-2 9c-5 4-2 5 6 2 8-5 13-12 14-21l2-9v4c-1 6 1 7 8 3 3-2 4-2 8-1l4 1-2-6v-5c1 0 2-1 2-3 0-3 5-4 8-2s14-1 14-5c0-2 8-1 11 2 1 1 2 0 3-2l3-6v-6c-1-3 0-3 2-1 5 3 11 2 11-2 0-2 2-4 5-6 3-1 5-4 4-5 0-1 1-2 5-3 3 0 6-1 6-3 1-10 1-12 2-10s2 3 3 2l3 1c1 1 6-1 12-7 6-5 10-9 9-10 0-1-3 0-5 2s-7 4-10 4c-6 0-6 0-4-4 1-2 4-4 7-4h15c6 1 10 0 9-3v-1c3 1 3 0 3-8 1-6 2-6 7-7l9-3c2-1 7-2 10-1 6 0 11-3 6-4l-3-3h3c2 1 12-7 12-11 0-1 2-3 5-3 4-1 5-4 4-9 0-2 2-2 7-2s7 0 7-2c-1-4 2-5 4-2l4 1 4-2 2-2 4-3c1-1 2-3 1-4-3-4 1-6 5-3s5 3 7-1c1-2 2-5 1-6s0-2 2-2l4 2c1 1 2 1 5-1 4-3 5-3 6-1 2 4 0 6-4 6-2 0-3 1-3 2s-2 2-5 2-4 1-3 3c1 3-2 5-15 13-3 2-3 3-1 4s2 2-1 3l-5 1-7 3c-4 3-4 4-2 7 3 2 3 2-2 1-6-1-11 2-10 7 0 3-2 4-4 4-5 1-12 5-15 11-2 3-5 5-6 5-2 0-3 1-3 3s-9 11-13 11c-3 0-12 7-12 11v5c-1 1-2 1-3-1-1-1-2-1-6 1-4 3-4 4-2 6s2 2 0 1l-7 1-6 3 3 3c3 2 3 3 1 4h-7c-2-1-4 0-7 3l-7 4c-2 0-2 1-2 3s-2 3-4 3c-2 1-2 2-2 3 1 1 0 2-1 2-6 0-19 12-19 16 0 3-1 4-4 4-2 0-3 0-3 2 0 3-13 13-16 13-2-1-3 0-2 2s1 4-1 5c-3 4 4 5 9 2 3-2 3-2 0 1-2 2-2 3 2 5 5 3 7 3 7 1 0-4 6-6 16-8 6 0 11-2 12-3 1-2 2-2 2 0l1 5c2 2 1 3-4 2s-6-1-5 1 0 3-3 4c-4 3-5 7-1 7 1 0 1 1-1 3-3 3-5 3-8 1l-8-1c-4 1-4 1-1-1 3-1 2-1-1-2l-7-4c-4-3-8-3-7 0 1 2-3 7-6 7l1-2c4-3 3-6-1-5-1 1-5 0-6-1l-8-2c-4 0-4 0-3 3s0 3-3 3c-6-2-18 12-13 15l2 2c-2 2 8 8 11 8 1-1 2 0 1 1 0 2 1 3 3 4 7 1 4 6-3 5-8 0-12-2-11-5v-2c-2 0-3-2-3-3 0-5-5-12-8-12l-3 2c0 1-1 3-4 4s-4 2-3 4 1 3-1 3l-2-1c0-1-1-2-2-1-2 1-2 2-1 4 1 3-8 10-14 11-1 0-3 2-4 5-1 4-2 5-6 5-3 0-5 1-5 2s-2 3-4 4c-3 1-4 2-4 4s-2 4-4 5c-3 1-6 3-6 6-1 3-3 5-5 5s-3 1-2 2c0 2-4 7-12 14-6 4-7 11-2 11l3 2c0 1-5 3-16 6-3 1-4 2-3 5 1 2 0 3-2 4l-1 2c1 0 2 2 3 1s2 1 2 2c0 2 1 4 3 4l7 5c2 3 5 5 6 5 2 0 2-5-1-6-2-1-1-3 1-5 3-4 3-5 1-7s-1-2 2-3 5-3 4-6c0-4 1-4 4-1 3 2 3 3 1 4l-3 6-2 7c-2 3 1 3 10 0l9-2c2 1 3 0 3-2 0-1-2-3-4-3-5-2-6-4-1-5 2-1 3 0 3 1l2 3 6 6 5 5-7 6-6 7-3 1c-2 0-3 2-3 3 0 2-1 3-3 2-5-1-7 2-3 5 2 2 2 2 0 2s-3 2-3 3-1 3-3 3l-3 2-2 3-3 4c-1 3 1 4 7 7l11 4c3 0 5 1 5 2 1 7 3 10 7 10 2 0 3-2 2-4s0-3 1-3l3-2c0-1-2-2-5-2-4 1-4 0-2-3 4-4 10-4 10 1 0 3 1 5 3 6 3 3 9-3 7-6l1-3 4 4c1 3 2 3 4 0 3-2 4-3 7-1 2 2 4 2 5 1 0-1 3-3 5-3 5-1 5-2 2-7-1-2 0-3 6-2 7 1 11-1 9-7 0-2 0-2 3-2l6 1c2 0 3 1 3 3l2 2c4 0 5-2 2-5-2-3-1-4 2-5 3 0 5-1 5-2h4c7 3 7 2 6-3-2-6 2-8 10-8 3 1 3 0 2-1s-1-2 2 0c5 3 15 1 14-3v-2l2-2v-1c2 2 5 1 10-4l9-4 3-1c-1-2 13-12 18-13l5-5c1-2 4-3 8-4 6-1 8-2 7-4s0-4 4-6c4-1 10-4 14-8s9-6 10-6l12-9c5-6 11-10 13-10s4-2 5-5 7-7 12-11c7-5 7-6 4-7-4-2-2-4 5-4 5-1 24-15 23-18 0-1 2-3 4-3l7-3c1-2 4-2 5-2s2 1 2-1c-1-4 0-6 3-5l5-2c0-2 2-3 4-3 3 0 26-18 26-20l10-6 10-7c0-1 1-2 3-2 4 0 3 6-2 10-2 1-3 4-3 5s1 1 2-1c4-2 6-2 6 1l-4 4-4 1-5 2c-3 2-4 3-6 1-4-3-7-2-6 2 1 3-5 10-9 10l-2 1-1 5c-1 2 0 2 3 3 5 0 5 0 1 1-6 1-10 4-8 6 1 2 0 3-4 2-5-1-5-1-1 2s4 4 0 4c-5 0-6 3-2 7 2 1 2 1-3 1-6-2-6-1-6 4 1 2-1 6-2 8-3 2-3 2-5-1 0-3-3-5-5-5-3 0-3 0-3 2 2 3 1 3-3 2-3-1-4-1-3 2 1 2 0 3-3 4l-5 1 5 4c6 4 6 6 1 8l-2 2c2 2-8 2-10 0l-6 1c-3 2-5 2-9 0s-5-1-11 4c-7 5-10 11-5 10 4-1 6 4 4 7s-3 3-5 0c-2-4-5-5-7-2l-6 2c-4 0-5 5-1 7 3 2 0 7-4 6-4-2-3 2 2 5l5 2-6-1c-4-1-6 0-6 1l3 2c2 0 2 0 0 1-3 2-3 2-1 5 4 3 3 4-7 5-6 0-9 1-12 5l-4 6 1 5c3 3 3 4 1 5-2 0-4 3-5 5-1 4-2 4-4 2s-4-1-5 1l-5 2c-4-1-4-1-1-5s3-4 0-5c-5-2-10 1-12 4 0 1 0 2 2 1 3-1 3 2-1 7-3 3-5 4-9 3-4 0-5 0-5 2 0 3 2 3 8 2l7 1-3 1c-2 0-3 2-3 3 0 3-10 4-11 1-1-2-11 1-11 3l5 3c5 1 5 1-2 4l-12 4c-6 0-9 5-5 7 2 1 0 1-4 1-7 1-20 5-20 8l3 2c2 0 4 2 4 3 0 2-2 3-6 2-7-1-10 2-7 6 3 5 3 5-2 5-3 0-5 2-5 3l3 2 7 5c5 4 5 4 9 1 5-3 7-2 2 2-4 5-4 7 1 11 5 3 5 3-3 4-9 2-9 2-3 7 4 3 5 3 6 1l2-1c1 2 3 2 6 2 6-1 16-7 15-9l1-1c1 0 2-2 1-4 0-3 1-4 7-4l9-2c2-3 2-3 5-1 4 2 5 2 7 0l5-4c1 1 1-1 1-3-1-2 0-3 2-3l4-2 9-3c9-1 13-3 16-10 2-4 10-5 9-1l2 5c3 4-3 9-7 6s-6-2-6 1l-2 4c-1 0-2 1-1 3 2 3 1 4-1 3-4-1-11 4-13 8-1 2-3 3-5 2-2 0-3 2-5 5-2 4-4 6-7 6-2 0-5 2-5 3l-4 3c-1 0-4 2-5 5-2 5-3 6-8 6-8 0-23 7-23 11 0 2-3 5-8 8l-9 7c0 2-5 6-7 5-1-1-8 4-15 10-11 9-14 13-13 16 1 2 1 3-2 2-6-2-7 2-6 12v8h43a533 533 0 0 0 35-3c-17 1-20 1-17-3l7-6c3-3 5-3 6-2 2 2 11 2 13-1l4-2c2 0 3-1 3-3 0-3 0-4 5-4 6 0 13-6 13-10l7-3c6-2 6-3 5-6-2-5 3-13 6-10 1 1 3 1 8-2s7-3 7-1c0 1 1 2 3 2l3-1c0-1 3-3 7-4l9-4c1-1 2-3 4-3 3 0 10-6 9-8l2-1c4 0 16-8 16-11 0-2 12-9 15-9l2-2c0-2 11-7 14-7s1 3-5 8l-7 7c0 1-2 3-5 4-8 3-30 22-28 25l-3 3c-1 2-2 3-1 4s-1 2-3 3c-5 3-6 9-2 10 3 1 3 1 0 3s-1 6 3 4c2 0 4 1 5 3 1 3 1 2 7 0l9-2c5 0 6-3 4-9-2-4-1-5 1-4 2 0 5-1 7-3 4-3 13-5 15-3 1 1-2 2-7 2-3-1-5 5-5 10s6 5 14-2c4-3 9-5 11-5l7-4 8-5c7-3 6-9-2-10-10-2 0-4 11-2 10 2 12 1 13-1s4-3 6-3 3 0 1-2-2-2 4-2c6 1 6 1 5-5-2-5-1-5 1-3 4 2 12 1 14-3l3-2c1 1 5-2 9-6l6-6h3l6-1c2 0 5-1 7-4l8-4c2 0 7-3 10-7 5-6 7-7 14-7 10 0 12-2 8-4-3-1-3-1 0-2 2-1 4-2 4-4s2-2 4-3l2-4c-1-1 0-2 2-2l6-3 7-2c5-1 18-9 18-12 0-1 1-2 2-1 1 0 2 0 3-2l4-2c3 1 9-3 12-8 1-2 4-3 5-3 2 0 4-1 5-3l7-4c4-1 6-3 6-4l8-5c4-1 9-6 13-9l14-8 13-7c2-2 6-4 9-4 2 0 3-1 3-3s2-4 5-4l4-2c0-1 2-3 5-3l4-3c0-2 6-7 9-7 2 0 5-2 8-5l7-4c2 0 3-1 3-2 0-2 17-16 24-19 4-1 6-4 6-5 0-2 1-3 2-3 3 2 8-2 10-7 0-2 3-4 5-4l6-2c1-3 2-3 4-1 3 2 4 2 3-2-1-3-1-4 3-5 3 0 7-2 8-4s3-3 5-3l3-2 3-2c2 0 5-2 7-5s5-5 6-5c3 0 10-7 10-10 0-1 2-3 5-3l6-3c0-2 17-16 20-16 2 1 3 0 3-2l8-7 14-10 11-7c3 0 5-2 5-5s2-5 3-5l12-7c4-3 9-7 11-7s2 0 1-1 2-4 6-7l17-14 14-9 3-1c0-3 11-13 14-13 1 0 2-1 1-2-1-3 0-3 3-2 4 0 6-1 9-4l7-4 2-1 1-2 11-1c-1-1 1-4 3-6l4-7 2-2c5 0 26-17 26-21l7-5c6-2 19-10 26-16a358 358 0 0 1 24-15c0 1-3 4-6 5-7 4-6 9 0 9 4 0 4 0 0 3-5 4-7 4-6 1 2-6-5-4-8 2l-5 6c-4 0-8 4-7 7 1 2 0 3-2 3-4 0-12 9-13 15l-4 4-6 1c-2 0-3 1-3 2l-1 4-1 3c0 1-4 4-8 4-5 2-8 3-8 5s-3 4-7 6c-6 3-6 3-3 6s3 3-4 3c-8 0-8 0-8 5-1 3-2 6-4 7-1 1-2 3-1 4v2l-4-4c0-2-2-3-3-2-2 1-2 2 0 4 1 3 1 4-1 4-4 0-14 4-14 5s2 2 5 2c4 2 4 2-3 3-10 0-15 6-8 8 3 1 5 0 6-1 1-2 2-2 2-1 0 3-3 4-13 5-5 0-8 1-8 2 0 2-3 3-6 4-3 0-5 2-5 3l-4 4c-2 1-5 3-4 4 0 5-1 7-4 7-1 0-5 1-7 3l-7 4c-2 0-4 1-4 3s-1 4-3 5-3 4-4 6l-2 3c-3 0-15 7-17 9l-1 6c1 5-5 11-12 11l-4 2-2 1c-4 0-22 19-21 22l-7 3c-5 1-6 2-5 4s0 4-1 4l-3 5c0 4-1 5-7 5-5 0-7 2-9 5-1 2-4 4-6 4-4 0-15 9-15 12l-3 2c-4 0-10 6-9 9 1 2 0 2-3 2-5-1-15 5-15 8s-6 7-8 6c-2 0-4 1-5 3s-3 3-4 2-3 2-7 6l-9 9c-1 1-3 4-2 5l-1 2c-4 0-15 7-14 9 1 1-1 1-3 1-5 0-10 6-8 9h-2c-3 0-4 0-2 3 1 2 0 4-4 5l-9 2c-2 0-3 2-3 3s-1 3-3 3-6 2-10 5c-6 6-9 10-4 7l2 1c0 3-3 4-7 1l-4-2 1 2c1 1-16 13-18 13l-7 4c-4 3-8 4-9 4-2-1-3 0-3 1l2 2c2 0 1 1-2 2-4 2-5 4-5 6 0 3 0 3-4 3-3-1-6 0-11 4-6 6-8 11-4 11l3 1-4 2c-1 0-3-1-3-3s-1-2-2-2c-2 0-13 8-13 9 0 3-17 15-43 31l2 1c3 1 2 2-1 3l-6 1c-3 0-7 4-7 7 0 1-3 4-7 5-3 1-6 3-6 5s-1 2-3 2-7 4-13 9c-9 7-10 8-6 10s4 2 0 1c-6-1-13 1-11 4 0 1 0 2-3 2-2-1-4 0-4 1l-3 4c-3 3-3 3-6 0s-2-2-2 1l-3 3-23 2-7 5v1l-2 1-33 26a481 481 0 0 1-13 13c4-3 16-3 18-1 1 1-11 16-17 20-2 1-3 3-2 4l-3 3c-3 0-5 1-4 2s0 2-2 2c-2 1-3 3-3 5l-2 4c-2 0-2 2-2 4l-4 5c-3 2-2 6 2 5h2c0 1 2 3 6 3l6 1-7 2c-4 1-7 0-8-1-1-2-6 0-6 2l6 3c2 0 5 2 4 3 0 3 7 3 9 0 1-3 8-5 16-5 4 0 5-1 5-3s0-3 2-3c2 1 4 0 6-1 3-3 10-4 10-1l3 1 2-2c0-1 1-3 3-3s3-1 3-2c0-2 2-3 5-3l6-2c0-2 2-2 7-2 6 0 12-3 12-6l3-2 3-2c-1-2 1-3 11-7 2 0 3-2 3-3 0-2 3-4 19-10l7-5c-1-1 3-3 8-5l19-6c13-6 25-9 30-10l6 3c4 2 5 2 13-1l26-17 34-22 1-1a539 539 0 0 0-26-3c3 0 4-1 3-3 0-3 1-3 7-3 7 0 8-1 11-6 1-3 5-6 7-7 2 0 6-3 9-6l8-5c2 0 4-2 6-4 1-2 6-5 10-7l8-5 3-2c2 1 15-5 15-6 0-2 10-10 13-10l2 2c0 2 1 2 2 2 2-1 2-3 2-4-1-3 0-5 10-10l9-6c1-2 4-3 6-3 1 1 2 0 2-3 0-2 2-4 4-5 5-2 26-16 31-20 8-7 31-23 34-23 1 0 5-3 8-7l8-6c1 1 6-3 12-8s14-9 17-10l6-6c0-2 4-5 8-7s8-4 8-6c-1-1 1-2 3-3 5-1 14-9 14-11s10-10 13-10c1 0 2-2 1-3 0-2 1-2 7 0 8 3 9 3 9-3 0-3 1-5 3-6l3-3c0-4 19-18 26-19 4-1 5-2 4-5s0-3 3-2c2 0 3 0 3-2l2-2c2 0 4-2 5-5l5-4c2 0 5-2 7-5l5-5c2 0 10-5 16-11 3-3 12-7 18-10 11-5 12-6 9-7-4-2-4-3 3-4 5-1 7-3 7-7 0-2 2-5 5-6 2-1 4-2 4-4-1-2 7-6 10-4 1 0 3-1 3-4 1-3 2-4 6-2s9 0 7-2c-1-1 1-4 4-8 3-3 6-6 6-8 0-1 2-2 5-1 3 0 6 0 5-1 0-2 17-15 19-15s2-1 1-3 0-2 4-1 4 0 3-3-1-3 3-3h5c0-1 1-2 3-2 4 0 8-6 5-8s-2-4 2-4c5 0 9-4 9-7 0-4 4-6 7-4 2 2 4 1 6-3 1-2 5-6 9-7l5-3 4-33-31 20-26 18c-4 3-8 5-10 4-2 0-3 0-2 2s0 3-1 3l-5 4c-1 3-3 5-6 4-4-1-5 1-4 5l-4 1c-4 0-38 22-53 34-5 4-11 8-13 8l-3 1-2 2c-4 0-34 23-34 26l-3 1c-2-1-6 2-9 5-4 4-8 6-9 6l-4 3-5 2c-2 0-3 1-3 2 1 2-1 4-3 4-4 1-4 2-2 6l4 4 12-8 11-7c2 1-21 21-25 21l-2 3h-2l-3 1c0 1-10 11-24 21-30 24-38 29-41 29-2 0-3 2-3 4s-4 5-8 8l-10 8c-1 1-2 3-4 3s-6 2-8 5c-3 3-6 5-8 5l-12 8-12 7-2 1c0 2-13 12-15 11-1 0-2 0-2 2s-1 3-3 2-3 0-3 1c1 2-6 9-10 10l-13 8c-22 16-26 18-27 16l-2-1c-1 0-2 1-1 2 0 2-14 15-18 15l-2 2c0 4-8 7-10 5-2-3-5-2-5 1l-7 7-13 9-16 9-9 7h-3c-2-2-3-2-3 0s-5 7-8 7l-16 11c-2 2-8 5-13 6l-8 6-3 1-10 5c-4 3-8 6-10 6l4-5c7-4 8-6 2-5l3-4 7-7 6-3c3-2 4-4 4-5-1-1 1-2 4-2s6-2 6-3c1-2 3-3 5-2 5 1 9-2 8-5-1-2-1-3 1-2h3c0-1 1-2 3-2s3-1 3-2l6-2c4 0 7-1 10-5l4-6c0-4 7-8 13-8 3 0 6-1 6-3-1-1 0-2 1-2l3-4c1-2 2-3 6-2s5 0 4-2v-2c2 0 3-2 3-3l2-3v-2c-1-2 0-2 3-2 3 1 3 1 2-1-1-1-1-2 3 0s5 1 5-2c-1-3 0-4 3-4 4 1 10-7 8-10l1-1c1 0 2-1 2-3s1-2 2-2l3 1 2 2c1 0 2-1 1-3s0-3 3-5l4-4c0-3 5-6 10-6 3 1 4 1 3-1-2-3 4-8 9-8l5-4 3-3c0 2 6-3 7-6 1-1 0-4-1-6-1-4-1-4 6-2 4 2 7 2 7 1l6-6c5-3 5-4 2-7-2-2-2-3 1-2s4 1 4-1l2-3c1 0 3-2 3-5l7-7c3-1 6-3 6-5 1-3 3-3 7-3 4 1 5 1 5-1s1-3 3-3 3-1 3-2c0-2 5-7 10-11 7-6 9-9 8-10s-2-2 0-4c3-3 10-3 10 1s6 2 6-2c0-6 1-6 6-6 6 0 9-3 6-6-3-2 7-11 12-10 2 0 2-1 1-2l1-3 2-4c0-2 1-3 4-1 6 2 7 2 7-2 0-2 1-3 3-4l3-1 4-1c1 1 3 0 3-2l2-2 3-4c1-2 4-4 6-4 5-1 9-5 9-9 0-3 4-6 8-6 5 0 5-3-1-4-5 1-5 0-1-1l16-5c5 0 6-2 3-4-5-2 1-8 10-11s10-4 6-7c-1-1 0-2 5-3 9-1 19-10 19-15 0-4 3-5 5-2l4 1c1-1 1-2-1-4s-2-2 2-1l5-1 5-4c3-1 5-3 4-4-1-2 1-2 4-2l4-2 3-5c2-1 3-4 3-5-1-1 0-2 2-2l5-4c1-3 5-6 9-8l7-5 2-7c2-4 4-6 6-5s4 0 5-2l7-7c5-3 6-5 5-7-1-3 0-4 2-3 6 0 10-1 9-2-2-3-3-16-1-16 1 0 2 2 1 4-1 4 2 6 6 2 4-3 5-6 1-6l-2-1c0-3 3-2 9 2l6 4v-4c0-2 1-4 3-4v-2l1-2c3 0 11-5 11-8l6-1c5 1 6-1 2-4-2-2-2-2 0-2l4 2c2 5 6 3 5-2-2-6 4-16 9-15 2 1 4 0 4-1l3-2c2 0 3-1 3-2l5-5c3-2 4-3 4-5s0-2 2 0l1 8a551 551 0 0 0 3-76v1c-2 4-3 4-11 3-21-4-29-5-31-3l-6 2-4 3a396 396 0 0 0-61 38c1 2 1 2-1 1-1 0-2 0-2 2s-2 2-4 2-4 2-5 5-4 4-6 4l-2 2c0 1-3 2-7 1-6-1-7-1-4 1 3 4 0 7-9 10l-6 4c0 2-2 3-3 3l-4 2c1 2-18 17-22 17l-5 1-4 1c-1 0-2 1-1 3 0 2-2 5-8 9-4 3-9 7-9 9-1 2-3 3-5 3-4 0-36 26-34 28 1 1-1 1-3 1a170 170 0 0 0-56 41l-5 4c-1 2-3 4-6 5-2 0-4 2-4 3 0 2-4 5-10 7s-11 6-12 8c-3 4-14 13-14 11l-5 3-6 7-2 2c-2 1-2 1 0 3s2 1-4 1h-6c2 1-3 6-7 6l-4 3-5 4c-1 0-5 1-7 3s-5 3-7 3c-2-1-3-1-2 2 1 1 0 3-2 3-4 2-18 13-18 15l-3 1c-2-1-4 0-5 3s-5 5-7 6l-13 8-9 6c-3 0-18 14-18 17 0 4-3 5-5 2-1-2-3-1-6 2l-11 7c-4 1-6 3-6 4l-5 3-6 3c0 1-2 2-5 2s-6 1-5 2l-7 7-10 7-6 3c-1 0-3 1-3 3s-2 3-5 3l-22 15-11 5-3 2-5 3c-3 2-5 4-5 6s-1 3-3 3c-2-1-7 1-12 5l-9 6-6 3c-6 4-9 5-9 2l-4-2c-3-1-2-2 5-5 5-2 7-5 7-6-1-2 0-3 3-3s4-1 4-2c0-2 1-3 4-2 5 1 5 1 5-11 0-2 2-4 3-4l7-1c4 0 4-1 3-3s0-3 3-2l12 2c8 1 9 1 6-2-3-2-2-2 2-2 3 0 8-2 11-5 4-5 4-5 0-7-5-4-6-9 0-9 2 0 3-1 2-3-1-1 0-2 1-2l3 2 2 1c1 0 2-1 1-2-1-4 1-5 4-3l7 1c2-1 7-2 10-1 5 0 6-1 5-3s0-2 4-2c3 0 5-1 5-3s15-13 19-13c3 0 3-1 1-3-2-1-4-2-5-1s-2 0-2-1 3-1 9-1 8 1 8-1 10-10 12-11l10-7c8-8 10-13 6-13-2 0-2-1 0-3s1-2-4-4c-7-2-12-7-9-10l6-1c3 1 5 0 5-1 0-2 0-3 2-4s16 5 15 7l7 2c7 0 8-1 7-4 0-3-1-4-6-3-5 0-6 0-5-5l2-6 9 6c8 6 11 6 12-3 0-6 0-7 2-9 1 0 2 0 1 2 0 3 7 2 12-3 3-1 6-3 7-2 2 1 3-1 3-4s-1-5-2-5l-2-2c0-1 2-2 5-2 4 0 6 0 5-2v-4c1 0 3 0 3 2s4 2 7 1c4-1 5-2 4-4l-4-4c-1 0-1-2 2-3 2-1 3-4 3-6 0-4 1-4 4-2s4 2 4 0l4-1c4 1 12-2 12-4s-1-2-3-2-3-2-3-4l-2-7c-1-4-1-4 5-3 5 1 5 0 4-4v-4c14-2 16-1 11 2l-1 5c1 2 3 2 9 0 6-1 8-3 9-6s3-5 4-5c5 0 6-4 2-7-5-4-4-5 3-4 4 0 7 0 9-2l5-3c4 0 4-2 1-5-3-2-2-2 2-1 3 1 6-1 13-6 10-7 10-8 5-11-3-2-3-3-1-4l2-6c0-2 1-3 3-3 1 0 2-2 1-4v-3l5 2c7-1 8 0 7 4-1 3 0 4 1 4 2 0 4-2 5-4s4-4 6-4c1 0 2-1 2-3s2-2 4-3l5-5 5-5c5 0 14-9 13-12-2-5 1-12 5-11 6 2 12-1 15-6 2-3 2-6 1-7-1-2-1-2 1-1s3 3 3 5c0 3 1 4 4 4 4 0 11-12 6-13-4-1-2-3 2-3 3 1 5 0 5-1l2-4h1c-2 3 2 3 8 1 2-2 3-3 3-5-1-1 0-2 2-2s3-1 2-2c-3-3 3-3 10 0 10 4 10 3 2-4-8-6-8-10-1-11 3 0 6-3 8-5l7-3c4 1 3-2-1-5-2-2-3-4-2-5 2-2 5-2 7 2 1 4 5 5 5 1 0-1 1-4 3-5l2-4 5-3c3-1 5-2 5-4l2-2c1 0 2-1 2-3s2-2 5-1l6-1c0-1 1-2 3-2s3-1 3-2 4-5 9-8c6-5 8-7 7-10s-1-3 5-2 7 0 7-3 11-8 20-8c6 0 10-5 6-8-3-2-3-4 1-4 1 0 2-1 2-3-1-1 1-5 3-8 4-4 6-5 10-4l6-1c1-2 6-4 10-6 7-3 8-4 7-7l-2-5c0-3-2-3-6 0-3 4-4 3-11-1-4-3-6-4-8-2h-4c-1-2-3-3-5-3l-6-2h-7c-2 1-3-1-3-2l-2-5c-1-1 0-2 2-2s3-1 2-2c-2-3-10-1-9 3 0 5-6 10-11 9-1-1-3 0-4 1 0 2-2 2-2 2l-6-4c-5-2-5-2-5 4 1 5 0 7-2 7l-5 1-2 2-2 3c-1 0-3 2-3 4-1 3-4 5-9 6-7 3-8 4-7 8l-4 2c-3 1-4 2-4 4 1 1 0 2-3 1-5-1-7 4-3 7 3 2 3 3 1 5h-4c-3-3-9-1-9 2 0 1-2 5-6 7-12 9-11 9-19 9-2 0-2 2-1 4s0 3-1 3l-4 1-6 3-7 4c-1 2-3 4-5 4s-4 1-5 3l-7 9c-2 3-5 6-5 8-1 2-3 2-5 2-2-1-4 0-5 2l-6 7a332 332 0 0 0-45 35c-2 0-4 1-4 3-1 1-2 2-3 1-2 0-2 1-1 4 1 4 1 5-2 4s-7 1-15 8c-6 6-11 11-10 12l-3 1c-2 0-3 1-3 2 1 1-1 2-3 2l-4 1c0 1-8 9-19 17l-19 18-6 4-15 11-11 8-2 1-13 12c-8 6-14 12-14 14s-3 4-7 5l-9 6-4 5h-6c-2 1-4 2-3 4 0 3-1 4-4 3-4-1-8 4-3 5v1l-4-1c-2-2-6-3-5-1s-19 18-32 26c-7 3-11 7-10 8s0 1-2 1l-7 4-15 10-26 19-16 11c-3 0-12 7-12 9 0 1-3 3-7 4-5 2-6 3-6 6 1 3 0 4-9 6l-7 2c3 1-12 11-15 11-2 0-3 1-2 3 0 1-1 3-3 3-2 1-7 3-10 6l-8 3c-1-1-2 0-3 3s-3 4-5 5c-2 0-5 1-7 3l-4 3c-3 1-15 11-14 12l-4 2c-3 0-6 2-8 4l-9 6c-4 2-9 6-12 10l-7 6c-1 0-5 2-7 5l-8 4-6 3c-3 4-12 8-12 6 0-1 1-3 4-4 2-2 4-4 3-5 0-1 2-3 5-3 6-1 22-13 22-16l7-5c7-3 8-4 7-8-1-3-1-4 3-5l6-5c1-3 4-5 10-6 5 0 7-2 6-3 0-1 2-3 6-3l6-3 4-5c3-2 5-5 5-7s1-3 3-3l10-6 14-10 8-8c1-2 3-5 6-6 3-3 4-3 1-6-2-2-2-2 5-2 7 1 8 0 8-3 0-2 1-3 3-2 3 1 12-6 12-10h3c2 0 3-1 3-2 0-2 1-2 2-2l9-1c4-1 6-3 7-8s3-6 10-8l9-5 3-5c1-1 3-3 3-5s3-4 6-5c4-2 7-4 7-6 0-1 1-3 3-3s3-1 4-2c1-2 3-3 6-3 4 0 5-1 5-3s2-3 4-3 6-3 8-7 3-5 5-4c3 1 3 1 3-1l2-3c2 0 3-2 4-4 2-2 4-4 6-4l2-3c0-2 2-4 7-5 4-1 7-3 7-4l3-3c2 0 3-2 3-3-1-2-1-3 1-2s4 0 3-2 2-4 5-5l4-2 7-6 5-3 10-6 7-7c2-2 4-4 6-3 4 0 4 0 1-3-2-2-2-2 2-3l5-3 4-1c3 0 4-1 3-2 0-1 0-2 2-2s3-1 3-1c-1-1 2-3 5-6 5-3 6-4 4-5-3-1-3-2 0-2 2 0 6-3 10-7 3-4 8-8 11-9l5-4 30-27c17-14 32-27 32-29 2-4 13-9 17-7 2 0 2 0 1-2s0-3 1-3l2-4c0-4 2-5 8-5 2 1 2-1-1-4l-5-4c-1 0-1-2 1-5 4-6 6-7 4-2-1 4 5 7 7 4 1-1 4-3 8-3l5-3c0-2 4-6 9-9a247 247 0 0 0 24-22c1-3 3-3 7-3h6v-2c-2 0-2-2 0-6 1-3 3-6 5-6l4-2 9-7 7-4c-2-4 0-6 6-6 5 0 7-1 10-5 1-3 4-6 7-8s4-4 4-5c0-2 6-6 8-6l4-4 6-5c5-1 18-10 20-15 0-2 3-4 4-5 3 0 3-2 2-6-1-3-1-5 1-5 1 0 2 1 1 2l3 1c2 0 10-3 16-8l13-9 2-3c0-1 3-4 5-4s3-1 3-2 4-5 10-9c6-5 9-9 8-11-2-2-1-2 3-1 3 1 5 0 5-2-1-2 1-3 4-3s4 0 3-1l6-6c4-3 6-5 4-5-3 0-2 0 1-2 6-3 16-10 16-13 0-1 2-3 5-4 8-3 10-8 3-8-3 0-10-2-16-5-7-3-15-5-18-5l-13-2c-6-1-14 0-12 3l-1 1-3-2-3-1c-2 0-3 1-3 2 0 2-2 3-3 4-2 1-3 2-3 4s-1 4-3 4v3c1 2 2 3 5 2 3 0 4 0 3 2-1 3-4 3-9 3-1 0-3 0-4 2l-8 1h-6l3 6c3 6 2 9-1 5-1-1-5-2-8-1-5 0-7 1-8 3 0 2-1 4-3 5l-3 6-4 7c-10 4-14 8-12 11 0 3 0 3-2 1s-3-2-4 0c-1 1-3 2-5 1s-5 2-8 6l-7 6c-1 0-6 3-9 7l-7 7c-1 0-2 1-1 4s0 4-3 4l-3-2-2-3c-1 0-2 2-2 5s-1 5-2 5-2 2-1 3 0 2-2 2l-4-1c0-1-1-2-2-1s-2 3-1 4c1 2-1 4-5 5-4 2-7 4-6 5 0 2-1 3-3 3-3-1-5 1-5 4-1 2-2 3-4 3-1-1-2 1-1 3 0 3-2 5-3 5-2 0-5 1-7 3l-6 4c-3 0-16 11-16 14 0 2-1 2-2 0-3-4-8-1-5 3s1 5-4 1c-2-2-4-2-6-1-3 3-5 10-2 12 1 1 2 2 0 3l-2-1h-4c-4 3-4 7-1 7 4 0 1 2-3 3l-7-4c-2-2-3-3-4 0l-1 5c1 3-12 14-15 12-2 0-2 1-1 3 1 3 1 3-2 2-2 0-3 0-3 2l-4 4c-2 0-3 1-1 2 2 2-10 14-14 14-2 0-3 1-3 3s-1 2-4 1l-4 1c1 1-1 3-3 5l-6 6h-2c-2 0-4 0-5 2l-8 5c-4 2-6 5-6 7s-1 3-4 3c-5-1-8 1-5 3 2 0-3 5-9 10l-12 11-4 3-4 3c0 2-6 6-9 6-1 0-4 2-6 5l-6 6-2 4c0 1-2 2-6 1-4 0-6 1-6 3 0 4-4 7-7 6-2 0-3 1-5 3-1 5-8 10-14 10-3 0-4 1-4 3l-4 4c-2 0-4 2-4 4s-1 3-4 3-4 1-6 3c-1 2-4 5-7 5l-6 3c0 2-6 7-9 7-1 0-2 1-2 3s-2 4-3 4c-2 0-4 1-4 3l3 3 1 2h-4c-3-2-13 1-11 4v5c-1 3-3 3-6 3-3-1-7 1-13 7l-11 7c-4 0-14 9-12 12 0 1-1 2-5 2-3 0-6 2-7 3l-8 5c-3 0-6 2-6 3 1 2 0 3-2 3l-12 9c-5 5-11 8-12 8-2 0-4 3-6 6-2 4-2 5-3 3-1-4-5-4-5-1 0 2-2 3-3 3l-5 2c-1 2-2 3-4 3s-3 1-3 2l-8 5c-4 2-6 4-6 6h-1c-3-2-4-2-5 1l-4 3c-2 0-4 2-6 4-1 2-3 3-4 2-2 0-2 1-2 3s-2 4-4 5c-1 0-3 2-2 3s0 2-1 2l-11 7-9 6c-1-2-10 5-10 8l-4 2-4 1-5 3c-3 1-5 3-5 6s-1 4-5 4l-8 2 1 1c2 0 2 1 2 2l-6 2c-3 0-4 1-3 2l2 5c2 3 1 3-9 4-5 0-5 4 0 6 4 1 5 1 1 2l-6 1h-5l-7 3c-3 0-9 4-13 8-8 6-24 15-21 11s-1-10-7-11c-5-1-7-5-3-5l3 2 3 1c2-1 6 0 9 1 2 2 5 2 5 1l5-2c4-1 4-2 1-3-2-1-2-2 0-4 1-2 4-2 6-2s3 0 3-1l-5-3-3-2 4-1c5 1 14-2 14-5 0-2 3-4 5-5l8-4c11-8 13-10 12-11s1-3 4-4c3 0 6-2 6-3s1-3 4-5 4-4 3-5 0-2 1-1l8-2c4-2 4-3-2-4-5-2-5-2 2-1 6 0 7 0 7-4 0-5 5-13 7-11 1 1 3 0 4-2l7-4 4-4c-1-2 2-3 7-2 6 0 10-4 7-6-2-2-2-3 1-3l5-4c2-3 4-4 6-4 3 0 4-1 4-3-1-2 0-4 1-4 2 0 2-1 1-3 0-1 1-2 4-2 4 0 4-1 1-3-2-3-2-3 1-2 5 1 10-4 9-10l1-4c1 0 2 1 2 3s2 4 4 4 3-2 3-3l4-5c3-3 4-5 3-8s-1-4 2-3h5c0-1 2-2 4-1 2 0 4 0 4-2 2-4 21-20 24-20l6-4 6-7 5-7 5-4c4-1 11-6 15-11 1-3 3-5 4-5 4 1 7 0 7-2s3-5 7-9a125 125 0 0 0 25-24c1-2 3-3 6-2s4 0 5-4 3-6 6-6l4-2 3-4c2 0 3-2 2-3-2-3-1-3 3-1 5 4 8 4 4 0-2-2-2-4 0-6l5-2 7-5 8-4 2-2 6-3c4-2 5-3 3-5-4-3-4-3 4-6 4-1 6-2 5-3v-6c1-3 3-4 5-3 4 0 18-8 17-11l6-6 11-10c3-3 6-4 8-3 4 1 4 1 2-1-4-4-2-7 4-10l5-3c0-1 5-6 12-11s12-10 11-12 1-1 3-1c3 1 5 0 5-3-1-2 0-3 2-3l2 2h2c1 0 2-3 1-5-1-4 0-6 8-9 3-1 7-5 9-7 1-3 4-5 6-5s4-2 4-3c0-4 8-15 11-15s3-1 2-3c-1-3 1-4 9-4 4 0 4-2 1-7-2-3-2-3 2-2 3 1 4 0 4-1l6-6c3-2 5-5 5-6l5-4c3-1 6-4 8-7 1-2 3-5 5-5s3 0 2-2c-1-3 8-11 13-11 3 0 8-5 7-7-3-3 2-8 8-8 5 0 6-1 6-3s1-3 3-2 5-2 8-5c2-4 5-7 6-7 2 0 4-3 5-7 2-5 4-8 6-8s4-1 5-3l4-2c1 1 3-1 4-4 1-6 5-8 7-5 3 3 3 1 2-5 0-5 3-6 8-3 4 2 6-2 3-5-2-2-2-2 0-3 4 0 5 0 8-2 2-1 3 0 3 1 0 4 3 4 5 1 1-1 0-2-1-3-3-1-3-2 0-4 3-1 4-4 4-6s2-4 4-5 4-3 4-4c-1-1 2-3 6-5s9-6 10-10c3-5 4-6 8-5s5 1 4-1c-1-3 0-4 3-4 2-1 4-2 3-4s4-6 5-5 4-9 3-12c-1-2-1-2 4-1s6 0 7-5l3-5 6-6c4-5 4-6 2-10-4-5-6-6-14-5h-5c2-2-13-9-16-8-1 1-3 0-6-2s-5-2-9-1c-4 2-6 2-6 1l-3-2c-2 0-3 1-3 3s-1 2-3 1c-3-2-4-2-5 0s0 4 1 4v4c-1 2-2 2-6-2-4-3-4-3-5-1 1 3 0 3-3 1-1-1-3-2-2-3s0-2-1-2c-4-2-5 2-1 7 3 3 3 5 1 8s-4 4-7 3c-2 0-4 0-4 2 0 1-1 3-3 3-1 1-3 2-3 4s-3 5-7 8c-5 3-7 6-6 8s0 2-3 1h-7c-4 4-2 8 4 8 4 0 4 0 0 5-3 3-7 5-9 5l-10 4c-9 5-14 6-12 2 1-3-1-7-3-6l-1 6c1 5-1 8-6 12l-6 6c0 1-1 2-3 1l-4 2c-1 2-2 3-4 2s-7 6-5 8c1 1 0 1-2 1-1-1-6 1-10 5-7 4-8 6-6 7 2 2 2 2 0 2l-8 4c-4 4-4 5-2 6 2 2 2 2-2 2-6-2-11 3-7 6 2 3 1 3-5 3s-8-1-9-3c-1-3-1-3-2 0-2 3 7 11 14 12l-4 2h-10c-4-3-6-2-4 1 3 6-6 17-12 15-1-1-2 0-2 1l-2 1c-2-2-9 4-8 6s-1 3-6 4c-7 1-7 2-9 9-1 7-5 10-5 5 0-2-1-3-2-3-4 0-4 2-2 5 1 3 1 4-4 5-6 1-6 2-2 6h-2c-3-2-4-2-5-1 0 2-3 5-6 7s-5 6-5 7l-2 2c-2 0-6 3-10 6-5 5-8 6-11 6-3-1-5 0-6 2l-5 5c-2 1-2 2-1 4 1 1-1 2-4 3-6 2-16 10-16 13 0 2-1 3-2 3-3 0-12 11-12 14 0 2-1 2-2 2-7 0-10 1-10 4l-1 2c-2-2-12 7-12 11 0 3-3 6-5 3 0-2-2-1-6 2-3 3-6 5-8 5l-2 2c0 3-7 8-21 18l-8 6-2 3-1 6c0 5 0 5-3 2s-8-2-8 2l-4 3-4 1-4 1c-2-1-3 0-2 1 1 3-10 12-14 12-2 0-1 1 1 2s2 2-1 4l-7 3-3 2-2 3c-3 0-12 6-19 13l-8 4c-2 0-3 2-3 4s-2 3-4 3c-4 0-9 4-9 8 0 2-1 2-2 2-3-1-11 5-11 9 0 1-1 2-3 2-3 0-17 12-15 14 1 1 0 1-2 2-2 0-5 1-7 4s-4 4-6 4-3 1-4 3-13 8-17 8l-1-3c0-1 2-2 5-2 6-1 9-5 5-8-2-2-1-3 7-4 7-1 8-2 7-4 0-2 0-4 2-5 3-2 4-2 4 0l2 1c2 0 3-2 2-3 0-3 7-6 11-6 1 1 2-1 2-3s1-3 3-3 3-2 3-4l2-6c1 0 2-2 1-3s0-2 2-3c4 0 16-5 18-7l6-4 6-6c1-2 3-3 5-3l4-4c0-2 3-5 6-7 3-1 5-3 5-4l5-5 4-6c0-1 1-2 3-2s3-1 3-2l7-3c3-1 6-3 6-5s2-2 5-3c2 0 3-1 3-2l3-6c3-2 3-5 3-6-1-1 3-3 9-6 7-3 9-5 8-7l1-3c2 0 2-1 1-3s0-2 2-2c2 1 6 0 8-1l3-3 6-5 14-11c4-3 10-7 13-7l4-3-4-1c-3 1-3 1 0-1 2-1 4-4 4-6l4-3 6-1c2 0 3-2 4-5 2-5 2-6 9-5 6 1 7 1 7-2-1-6 0-9 3-9 4 0 14-10 13-12-1-1 0-1 2-1 1-1 4 1 4 2 1 3 2 3 4 1s2-2 0-3c-3-1-3-6 1-6 2 0 3 0 2-1s1-2 3-3c4-1 4-1 2-6-4-5-1-9 6-7 4 1 5 1 5-3s0-4 2-2 2 2 2-1-1-4-3-4-2-1 0-2 4-2 6 0c3 2 7 2 5 0-1-1 1-4 4-7l11-11c2-4 6-7 7-7 4 1 16-13 15-18-1-3 1-4 8-5l9-4 6-8c7-6 7-6 3-7s-4-2 1-3c2 0 5-2 5-3s1-3 3-3c3 0 17-10 15-11-2-2 5-6 7-6 1 1 4-1 7-3 6-4 6-4 7-1 3 6 6 4 4-4 0-6 0-8 4-8 2-1 4-3 4-5s1-3 3-2c4 1 4 0 2-2-4-3-2-5 4-5l4-2c0-2-2-2-4-2-4 2-4 1-1-1l6-3 6-4c3-2 3-4 1-5-3-2-3-6 0-4s9-1 9-5c-1-3 0-3 1-1 2 1 3 2 4 0s2-2 4 1c3 2 4 2 7 0s4-6 1-6l-3 2c-1 1-2 0-4-2-2-4-2-4 1-6l3-3c-1 0 0-2 3-4l10-6 8-4c2 0 3-1 2-2-1-2 1-5 4-8 4-3 5-4 5-1l3 3c1 0 2-2 1-3-2-3 2-12 5-10 1 0 2-1 2-3 0-4 13-15 17-15 1 0 2-1 2-3s2-4 5-6l4-4 1-1c1 0 5-3 7-7s6-7 7-7 5-2 7-5 5-5 6-5c2 0 7-5 12-11 5-5 11-10 13-10 6 0 5-4 0-7-3-1-5-3-5-5 0-4-4-7-8-6-2 1-2 0 1-2 6-3 6-6 1-6-2 1-4-1-3-3 0-2-2-4-3-4-1-1-2 0-2 1l-2 4c-1 0-1 2 1 3 1 1 2 3 0 5-1 2-2 2-2-1s-1-3-3-1h-4c-1-1-1-2 1-2l2-5c0-2-1-3-8-1-4 1-7 3-7 4s-2 3-4 3l-7 2c-1 1-2 0-1-1 1-2 0-3-1-3-2 0-2-1-1-2h4c2 0 3 0 2-2-2-3-1-3 2-2 3 3 6 1 4-2-1-1 1-4 3-5s4-4 3-5c-1-2 0-2 3-2 2 1 3 1 3-1s2-3 9-2h9l-6-3c-6-5-7-7-2-6 4 1 10-5 8-8-1-1 1-1 3-1s5 0 4 1-1 2 1 3c1 0 2-1 2-4 0-6 3-9 7-8l4-1-2-2c-1 0-2-2-2-6l1-5c3 2 9-1 11-6 2-3 3-3 5-2 3 3 5 2 8-1 1-3 1-4-1-6-3-2-3-3 2-6 3-2 5-5 5-6 0 0 2-2 5-2 4-1 5-2 4-4-3-4-1-7 4-7 3 0 4-2 4-5s3-7 10-13c12-9 16-13 14-13l7-6c9-7 16-22 12-26l-6-3c-2 0-4-1-5-3-1-3-9-8-9-5h-6c-3-1-5-3-5-4h-4c-2 1-5 0-6-1-2-3-6 1-4 5 1 3 0 4-5 4l-9-3c-3-1-4-2-5 0h-5c-3-1-3 0-2 2 0 1 0 4-2 5-3 2-3 2 0 4 2 1 3 3 2 4s1 3 3 4c3 2 3 3-2 2-4 0-6-1-8-3-4-5-5-5-11-1-3 3-5 4-10 3-7-1-11 1-7 5 3 2 3 4-2 5-3 0-4 2-4 4s-2 3-7 3l-6-1-3-1c-1 0-2 1-1 4 2 5 2 5-1 2l-4-4-1 4-3 6-2 5c0 3 7 9 9 7 1-1 2 0 2 1 0 4-7 1-11-4-3-5-4-5-8-3-4 1-5 2-3 3 1 1 2 2 1 3l-2 5c-1 3-2 4-8 4-3 0-5 1-5 4l-4 5-3 3c0 1-3 4-7 5l-6 4c0 4-4 3-5 0 0-7-1-8-4-9-2 0-2 0-1 3s0 4-3 5-4 1-2 3c2 1 2 2 0 3-3 2-3 4 2 4 2 0 4 1 4 4 1 2 0 3-1 2-3-2-9-2-9 1l-3 2c-2 0-5 2-6 4-4 4-6 4-6 0 0-2 1-3 3-3 2 1 3 0 3-1l-4-1c-5 0-10 7-9 12 0 2-1 4-3 4l-4 6-4 6c-2 0-3 1-3 2 3 3-1 7-6 6-3 0-5 1-7 5-1 2-2 6-1 7 1 2 1 2-2 0-2-1-3-1-6 2l-4 5-3 2c-2 1-3 2-3 4s0 2 3 1c2-2 3-2 3 0 0 1-5 4-11 6l-13 7c-2 3-6 3-6 0 0-2-1-3-2-3l-2 4-2 5c-2 0-2 1-2 2l-3 3c-1 0-2-2-1-4l2-4-4 4c-3 3-5 3-8 2-6-2-7 2-1 6 4 2 4 3 2 7-1 2-5 5-9 6-5 3-6 3-6 1l-2-2c-1 1-2 4-1 8 1 5 0 7-2 7-3 0-10 7-9 9 1 1-1 1-3 1l-5-1v1c0 1 0 3-2 5-1 1-1 2 1 3 3 2 2 4-3 4-2 0-3 1-3 3v2l-4-2-1 2c0 4-9 13-12 13-2 0-3 1-4 3 0 2-2 3-4 2-2 0-4 0-4 2 0 1-1 3-4 5-2 1-4 3-4 5s-2 3-4 3c-5 0-7 2-4 5 1 1 1 3-2 5-4 4-8 5-6 2 1-1 0-1-1-1-5 1-5 5 0 6l4 2h-5c-4-1-6 0-10 3l-7 4c-2 0-3 1-3 3l-7 5c-4 1-6 4-5 5s-1 2-3 2l-5 3c0 2-2 3-4 4-3 1-4 2-2 4 1 3 2 4 0 4l-2 2c0 1-1 3-3 3l3 3 4 4h-5c-4-3-8-1-7 3 3 4 3 10 2 10l-4-3c-2-5-14-2-15 3l-1 7c0 3-3 2-5-2-2-3-2-3-3 1 0 4-1 5-7 5-5-1-7 0-7 2-1 10-1 9-4 6s-4-3-6-1c-1 2-1 3 2 5 3 1 3 2 0 3-1 1-4 2-6 1-3 0-8 3-16 9l-13 10c-4 0-13 9-16 17-3 6-5 8-12 11l-12 4-4 2c0 1-1 2-4 2-5 2-5 6 0 6 1-1 2 1 1 2-1 3-3 4-6 4l-6 2h-5c-4-2-5-3-2-7 3-6 10-10 13-9l3-1-2-2c-2 0-2-1-2-3 0-1 0-2 2-1l6-3c2-2 4-4 3-5s0-2 2-2c3 0 29-20 29-22l4-3c3-1 5-4 7-9 2-6 4-7 7-7l6-2c1-2 2-2 5 0 4 2 4 3 0-8-1-3-1-4 3-4 5 0 13-6 13-9 0-1 2-4 6-6 4-3 5-6 5-9-1-3 0-4 2-3 3 1 5 0 6-3 2-4 10-9 12-8 1 1 5-2 10-6 5-5 11-8 12-8l5-4 4-2c1 1 2 0 2-2s4-7 8-11c5-4 9-9 9-10s1-2 2-1c1 0 3 0 3-2s3-2 5-1c2 0 3 0 2-1s0-3 2-5l2-6c-1-1 0-2 1-2 3 0 17-11 17-14l3-1c3 0 3-1 2-3 0-1 0-2 3-2 2 0 3-2 4-4s3-3 5-3c3 0 4-1 3-3s2-5 6-5c6-1 11-5 12-9 0-3 2-6 6-8 3-3 5-5 4-6-2-2 7-8 11-6 5 1 6 0 5-6 0-4 1-5 1-3l4 2c4 0 4-4 1-5-2-1-1-3 3-6s7-6 6-8c0-1 0-3 2-3l7-4c4-3 5-4 2-4-2 0-2-1-2-3l6-3c3 0 3-1 2-3-1-1 0-2 1-1l4-1 4-1c1 1 2 1 1-1-2-3 6-12 11-12l2-2 9-11c8-10 21-18 23-14h3c2-1 2-9-1-9l2-5c3-3 4-6 4-7s3-3 7-4c4-2 6-4 5-5s1-2 3-3l3-2c0-5 3-8 6-8s4-1 4-2c-2-4 12-14 18-14l6-2-3-1-2-3 4-2 2-2c-2-2 3-7 7-7 1 0 3-2 4-5s3-5 4-5c2 0 3-2 3-4s1-3 3-3 3-2 3-4 1-3 3-3 4-2 4-5c1-2 3-4 6-4 2 0 5-2 6-5l5-5 2-4c0-2 1-5 4-6l4-5 3-2 6-5c1-3 4-6 7-7 7-3 11-9 7-11-2-1-2-1 1-1 2-1 3-1 2-3s4-4 11-3v-4c-1-3 0-4 1-4 5 0 7-8 3-16l-6-8-1-3c0-2-1-2-3-1l-4 1-2 1-2 2c-1 0-2-1-1-2s-2-2-6-4c-6-2-8-2-13 0-4 2-6 2-8 1h-2l-2-1c-3-3-8 0-6 3 1 3 0 4-3 4-5 0-6 3-2 6 2 2 2 2-1 2-2 0-3 1-3 2 0 2-1 2-3 0-3-2-7-2-11 1-3 2-3 3-1 7 7 10-2 15-12 7-6-5-6-5-5-1s0 4-4 4c-4-1-5 0-4 4 1 3 0 4-3 3-5-1-13 5-12 9 1 1 0 3-2 3l-3 4-3 4c-2 1-3 4-3 5 1 2 0 2-3 1s-4 0-4 2l-3 4c-2 0-3 2-3 3 2 3 0 7-4 7-2 0-3 0-2-1s0-2-2-3c-4-1-8 3-5 5 4 2-5 12-10 13-3 0-9 3-14 7-7 7-8 8-6 10 4 2 3 6 0 5-1-1-6 1-10 4-6 5-6 6-4 9 2 2 2 2 0 1s-4 0-7 3l-9 8c-5 4-6 6-5 9s1 3-2 2-11 5-9 8l5 1c3 0 4 3 1 5l-3-2c-1-2-2-2-5 0s-12 4-15 3c-2-2-10 6-9 9 1 2 0 3-1 4l-4 5c-1 4-3 4-4 3-4-3-6-3-5 0 1 2 0 3-1 3s-3 2-4 5c-2 2-4 4-6 3-4-1-5 1-3 5 1 3 1 4-1 5-2 0-3 2-2 3 1 2 1 2-1 0-5-3-7-2-6 2l-2 4c-6 0-10 3-9 6 1 2-1 6-6 10l-7 7-4 3c-2 1-5 2-5 4l-3 6c-2 1-2 4-2 7 2 4-1 6-4 2-2-2-5 0-4 3 1 2 0 3-2 3l-5 2-4 3c-2 0-3 1-3 2 1 2 1 2-2 2-2-1-3-1-1 1s0 2-5 1c-5 0-5 0-4 4 0 3 0 4-3 3s-4 0-4 3-2 5-3 5c-4 0-6 4-5 7 1 2 1 2-2 2-2-1-4 0-5 3l-2 4-2-4c-2-5-5-5-5 0l-1 2c-2-3-5-3-5 0s-10 13-13 12c-4-1-9 3-8 7 1 3 1 3-2 1-2-1-3-1-3 1 0 1-1 3-3 3-3 0-3 1-3 2l2 6c0 1 1 2 2 1 1 0 2 0 3 2 1 1 0 2-2 1l-3 1c0 1-2 2-5 2-3-1-5 1-8 5-3 5-7 7-10 4-2-3-4-2-4 2 0 3-1 4-5 4h-4c1 1 0 3-2 5-1 2-3 3-3 2l-3 3-3 8c0 2 0 2-2 0-2-3-7-1-7 3 0 2-1 3-2 3-2 0-3 1-3 2l-3 2-4 7c-1 3-3 6-5 6-10 1-10 1-10 6 0 2-2 4-4 4-4 0-19 11-17 14 1 1 0 3-3 5-3 3-4 4-2 6 3 2 1 4-6 4-4 0-7 1-8 4-2 3-4 5-6 5s-3 1-3 2l-3 1c-2 0-4 2-5 4s-3 3-5 3c-5 0-10 4-12 8 0 2-3 5-6 5-7 2-12 8-9 11 1 2 1 2-2 2-2 0-3 1-3 2l-5 5c-3 3-4 3-6 2-1-2-2-2-3 0l-8 6c-7 3-8 6-2 6 2 0 2 1-3 5-4 3-5 4-2 6 2 1 1 1-1 1-7 0-6 11 1 13l5 1-5 1c-5 0-7 4-3 4l2 1c0 2-8 4-12 4-2 0-3 1-2 3 2 3-4 9-6 7-3-2 3-12 7-12 1 0 3-1 3-3s-1-3-3-3c-1 1-3 0-3-2l-3-4-2-2c0-2-3-1-8 4-4 4-7 5-7 4 0-2 3-5 6-8 4-3 6-6 4-7-3-1-8 1-9 4 1 2 0 2-1 0-3-5-3-6 2-5 4 1 6-2 1-4-2 0-2 0 0-1l6 3 4 2c3 0 1-6-1-8-2-1-2-2 1-2l4-2 2-1c1 0 2 1 2 3s1 3 3 3 3-1 2-2 1-3 3-4c6-3 6-10-2-12-5-2-6-3-4-4 1-2 3-2 4 0l17 1c0-4-5-9-8-9l-4-2c-1-3-1-3 8-1l8 5c-1 1 0 2 1 2l2-2 1-4c0-2 2-3 4-3s5-2 6-4c2-2 4-4 6-4 4 0 4-1 3-4s0-4 7-5c8-1 9-2 7-5-1-3-2-5 0-5s2-1 2-3l2-5c2 0 2 0 2 3v7c2 2 3 2 3-4 0-1 2-2 5-2 2 1 3 0 2-2l1-4c2-1 2-2-1-3-4-1-4-1 0-2s3-1 0-4c-5-4-4-6 1-5 3 0 4 0 4-2l3 2 6 3c2-2 0-6-5-10-3-3-3-4 8-3s15-1 8-3c-3-1-2-1 4-4 4-2 7-3 8-2h4c2-2 2-3-1-5-3-3-3-3 1-4 5 0 6-1 2-5-1-2-1-2 3-3 6-1 8-7 3-7l-4-2c0-2 2-2 7 0l4 4c0 5 4 3 6-2 1-5 8-10 13-11 7 0 8-1 9-2l7-6c4-4 6-7 5-9s-1-3 1-2c4 1 7-3 4-5l-6-8c-4-6-4-7-2-7 3 0 5 3 4 7 0 1 0 2 2 2s2 1 3 3c1 4 2 4 4 2 1-2 5-3 10-3 6 1 6 1 4-3-3-5-6-6-6-3l-2 1c-3-2 2-6 5-5 1 0 4-1 5-4s2-4 0-4-1-1 0-3c0-3 2-3 6-3 7 1 21-7 19-11-1-1 0-2 1-2 2 0 2-1 0-3-2-1-2-2 1-3 2-1 2-2 2-4v-2l2 8c1 3 2 6 4 7 1 1 2 2 1 4-1 1-1 1 1 1 3-1 3-4 1-10-1-2-1-3 2-3 4-1 4-3 0-5-8-2-1-11 8-11 2 0 5-1 7-3l10-6c6-4 7-5 3-7l-3-3c1-1 3 0 5 1 5 3 8 3 6-1-1-3 0-4 6-4 2 0 3-2 2-5 0-4 1-7 3-8l6-7c2-3 4-5 5-4l3-3c1-2 2-3 4-3 6 0 8 0 8-3 0-5 7-12 11-12 3-1 6-2 7-4 2-3 6-3 4 0-1 2 0 3 3 2s3-3 2-7 0-5 1-5c3 2 7-3 5-5-5-6-1-9 13-8 4 0 5-1 5-5l-4-8c-2-1-2-2-1-2 7 1 10-1 9-5 0-2 2-4 4-5l3-3 2-3c1 0 2 1 2 3s1 2 3 1c2-2 4-2 6 0 2 1 2 1 1-2s-1-6 3-8c3-1 5-4 5-6 0-3 2-4 4-4 2 1 3 0 2-3-1-2 0-3 5-2 6 1 6 0 4-4-1-3 0-4 5-5 4 0 6-1 6-5 1-7 7-15 11-14h5c2-1 1-2-2-4s-3-2 1-1c4 0 5 0 7-5 2-2 3-5 4-4s9-5 9-7l6-7c5-3 6-5 5-8-1-4 0-5 3-5 2 0 7-2 10-5l8-5c3 0 8-4 8-7l3-3c1-1 3-4 2-7s0-4 2-4c6 1 8 0 7-2-1-1 3-5 8-9 8-6 9-8 6-8-2-1-2-1 1-1 4 0 5-1 5-4 0-2 2-3 3-3 2 0 5-2 7-5s5-4 8-4 4-1 3-3c-2-4 18-21 25-22l6-3h-5c-3 0-4 0-3-2 1-1 4-3 7-3s5-1 5-3 1-4 3-5c2 0 3-2 3-5-1-4 0-5 3-4 3 0 9-6 8-9 0-1 2-2 5-2 3-1 7-5 11-9 3-5 7-9 9-10l2-4c0-1 1-2 3-2l2-2c0-3 6-9 11-11 2 0 3-2 2-3-1-3 7-10 10-10 2 0 3-2 4-4 1-3 3-5 5-5l2-2c0-1 0-3 2-3 1 0 2-1 2-3s2-3 4-3 4-2 3-2c0-1 4-6 10-10 6-6 9-10 8-11s0-3 3-5c3-3 4-5 3-8-2-8-11-14-20-17-5 0-5 0-4 2s1 3-3 2c-3-1-5 0-5 1l2 1 3 2c0 1-2 2-4 1-2 0-4-1-4-3s-1-4-3-4c-1-1-3 0-2 1 1 8-7 14-18 14-4 0-5 1-5 5l-5 7c-4 2-4 6 0 4 2-1 1 1 0 3-2 3-3 3-7 1l-4-2-1 3c0 1-6 4-14 5-13 3-14 4-14 8l-1 5c-1 1 0 2 2 4 4 2 3 2-1 2-6 0-9 3-5 5 2 1 3 2 1 2s-3 2-2 7c2 10-2 13-18 12-11 0-12 0-15 5-2 3-3 5-6 4-2 0-6 1-10 4s-7 4-7 3c-1-3-9-3-9 0l1 1c2 0 2 3 3 5l-2 6c-1 0-2 1-1 4 1 2 1 3-1 1-2-3-16-4-14-1 0 1-2 2-5 2-7 0-8 1-4 6 3 4 2 5-6 5-3 0-5 1-5 2l-4 2c-2 0-3 1-2 3l2 8c1 4 0 5-5 5l-12 3c-4 1-5 2-2 2 2 1 4 2 4 4 1 8 0 10-2 10l-4 1-4 1c-4 0-12 6-12 9l4 1h3c0 1-2 3-4 3s-5 2-5 4l-5 3c-4 1-5 2-4 4 1 3 0 4-1 4s-3-1-3-3c0-3 0-3-11 3-9 4-11 9-7 13 1 2 0 4-2 6-4 3-4 3-7 1-2-3-3-3-5-1-2 1-3 3-2 5 1 3-3 5-10 5-3 0-6 2-7 4-3 5-8 9-8 8l-4 1c-3 3-3 3 1 6 4 2 4 2-1 2-3 0-6 2-8 5l-6 6v-2c2-4-2-2-7 3-3 2-5 5-4 6s0 1-1 1c-2-1-3-2-3-4 1-1 0-3-1-3-4 0 0-6 4-8 2-1 7-2 10-1 5 1 5 1 3-3-2-2-2-3 0-3l1-2c-2-2 11-13 14-12 1 0 2-1 1-2-1-3 7-12 10-12 2 0 3-2 4-5s3-5 4-5 2-1 1-3c-1-1 0-2 1-2 4 0 10-6 10-9 0-2 1-3 2-3 4 0 17-12 22-20 3-3 6-6 8-6 3 0 4-1 3-3s1-4 4-6c3-1 6-4 7-6l3-4 2-2 3-5c13-11 18-17 17-19l4-3c2 0 4-2 4-4l7-9c4-4 9-8 10-11s3-4 5-4c1 1 2 0 2-1 0-2 7-8 12-13 3-1 4-3 4-4 0-2 1-3 2-3 2 0 3-1 3-4s1-4 2-4c3 0 8-5 8-7 0 0 4-5 10-9l9-7 4-2c3-3 3-3 1-5-3-1-2-1 1-3 3-1 5-4 6-6 0-2 3-5 5-5 5-1 6-4 1-5-4-2-2-4 4-5 3 0 4-1 4-3 0-3 1-4 5-3 5 1 6 1 6-4l3-4c2-1 3-3 3-5l8-8 7-7c0-1 2-3 5-4 4-2 5-4 4-9 0-4-1-9-3-11-1-2-2-5-1-6l-2-1-4-2c-1-2-4-2-9-2l-11-2c-3-2-4-2-6 0-3 4-2 5 3 5l4 1s-1 2-3 2c-9 0-15 4-10 8 1 1 1 2-1 4s-4 4-4 8c1 4 0 6-2 5l-4-3c0-1-1-3-2-2-2 0-3 2-3 4s-2 4-4 5l-3 5c0 2-2 2-8 1-8-1-10 1-5 5 4 3 1 6-5 6-2 0-3-1-2-3 0-1 0-3-2-3-1 0-3 3-3 7-1 5-2 7-6 7l-5 3-2 3c-2 1-3 0-2-3s0-4-2-5c-5-2-4-2-6 4-1 3 0 5 2 7 4 2 0 6-6 5l-8 1-5 1-2 2c0 3 8 5 9 3 0-2 6-3 6-1 0 1-1 3-4 4s-4 4-4 5c0 2-1 2-3-1-4-3-4-3-7 0-2 2-2 5-2 7 2 3 2 3-2 1-3-2-4-2-6 1-1 2-3 2-5 2-3-1-3-1-2 1l-1 4c-1 1-2 3-1 4 0 3 0 3-3 3-3-1-4 0-4 1s-2 3-5 3l-4-2-2-1c-1 0-2 2-1 4 1 4 0 5-4 6-4 2-5 3-3 5 2 1 1 2 0 2-2 0-3 3-3 6 0 5-1 7-5 8-3 1-5 3-5 4s-2 2-5 2c-2-1-4 0-4 1l3 1c2 0 4 1 4 3 1 1 0 2-4 1-3 0-5 0-5 2s-1 4-3 4l-3 4c0 3-1 3-8 2h-9c-2 2-3 10 0 10 4 0 2 3-4 5-7 3-9 2-4-2 5-3 2-7-4-6s-8-4-2-6c1 0 3-1 2-2s1-4 5-7l6-7 6-3c3-2 5-3 4-5s1-2 3-3l4-2 2-6c4-5 5-19 3-19s-2-3-2-6c1-4 0-6-2-5-4 1-16-2-17-5-1-1-4-2-11-1-9 1-15 4-13 6 1 1 0 3-2 4-2 2-3 2-4 1 0-1-3-1-5 2-4 3-4 4-3 6 2 2 2 2 0 2l-5-2-1 2c0 2-2 4-3 5-3 1-3 2-2 4 1 3 0 3-1 3-5-2-11 1-11 5l-3 7c-2 2-3 4-1 5 1 2 1 3-3 4l-8 2-7 1c-4 2-4 2-1 3h6c4-2 2 2-2 4l-5 5c0 2-2 2-6 1-9-1-8 3 1 6 5 1 7 3 6 4h-3c-1-2-4-3-6-3l-10-1c-3-1-5 0-5 1l-3 1-3 2c-1 2 0 2 7 1 5 0 7 0 7 2s-6 3-14 3c-2-1-3 0-4 2l-5 2c-6-2-10 1-7 6 3 4 2 4-9 5-7 1-7 4 0 5 6 0 7 3 2 4-4 2-4 6-1 6l2 2c0 1-2 2-4 1-4-1-4-1-2 2 2 4-1 6-10 6-6 0-9 3-7 8 2 4 0 5-9 4-3 0-4 1-4 3s-1 4-3 4-4 1-5 3c-1 3-2 3-4 2-4-3-10-1-8 2s1 9-3 12c-3 3-3 3 0 4l3 3c-2 2-7-3-8-9-1-5-6-10-6-5 0 6-6 12-10 12l-7-2c-2-2-4-1-4 2-1 8-2 10-6 10l-5 2c0 1 0 2 2 2s2 1 2 2l-1 1c-2-2-8 4-6 6s-5 7-10 6c-3 0-5 0-6 2l-5 2c-3 0-4 1-3 4s1 3-1 1-7-1-6 3l-3 2c-2 1-2 1 0 3l7 5c3 3 3 3 0 2s-6 1-12 6c-7 7-13 8-14 5-1-1-2-2-3-1s0 2 2 3c4 3 5 6 0 8-2 2-3 2-3 1l-2-2-2 2-8 6c-5 3-7 6-7 8 0 3-1 4-4 4-5 0-7 4-7 11 0 5 0 5-2 3-1-2-3-3-5-2l-2 2c2 3-4 4-7 2s-3-2-2 1 0 4-2 5c-3 0-6 3-7 6s-4 5-5 4c-3-1-9 8-7 10l4 1c2-1 4 0 4 1 1 2-2 2-9 2-11 0-16 3-14 8 1 1-2 3-5 4-4 1-7 3-7 4l-3 2c-5 0-9 8-5 12 2 1 2 2 0 2l-3-2c-2-2-10 3-9 5 0 1 0 2-2 2s-4-1-5-3c-2-4-3-4-6 2s-4 6-6 5c-4-3-7-1-11 6l-3 3c-1-3-5-2-5 1l-2 4c-1 0-2 1-1 4 2 4 2 4-2 0-3-3-3-3-3 3 0 8-2 12-6 12-2 0-3 1-2 4s0 4-4 4c-3 0-5-1-5-3 0-1-1-2-3-1-3 1-2 8 1 11 2 1 2 2-1 2-2 0-3 1-3 3l-2 5c-2 0-2 2-2 4 3 5-1 7-12 7l-12-1c-3-1-11 5-11 8 0 1 3 2 8 1 6 0 7 0 7 3 0 2-1 3-2 2-5-1-9 5-6 10 2 3 1 2-3-1-3-3-6-4-7-3s-3 2-5 1c-2 0-3 1-3 3 0 5-3 8-7 7s-6 5-2 7l3 4-4-1c-1-2-3-2-4-1-2 3-11 6-13 5-3-1-17 6-17 9l4 1c5 1 5 1-1 5-6 3-6 3-11 0-6-4-7-4-7 0s-3 4-8 1c-5-4-7-1-2 3 4 3 4 3 0 3-2 0-3 1-2 3 2 4 0 5-5 2-4-2-8 0-5 3 2 2 2 2-3 3-3 1-5 3-5 4 0 2-1 2-3 1-2-2-4-1-7 1-4 2-4 2 2 3 4 0 3 5-2 5-2 0-4 2-5 3h-5c-4-1-20 5-26 10-5 5-5 11 1 9l6 2c4 4 2 6-3 3-2-2-5-2-7-2l-6-2c-1-2-1-3-4-1s-2 3 2 5c4 3 4 3 1 3l-5 2c-2 3 1 9 5 9l3 2c0 3-4 4-6 1-1-2-14 0-15 3l-3 2c-1 0-2-1-1-2 1-2 0-3-5-3l-8 2c-1 1 0 2 2 2s2 1-2 4c-6 5-7 8-3 8 3 0 2 5-1 8l-4 1c-1-1-1 1-1 4 1 2 1 4-1 4l-1 2q2 3-2 2c-1-1-3-2-2-3 1-2 0-3-2-4-4-1-6 1-4 4 2 1 2 3 1 3-1 2-8 3-10 1-3-2-5-1-5 1s2 3 4 4c4 0 4 2 3 4l-2 8c1 5-2 5-4 0l-3-3c-3 0-7 7-6 11 1 3 0 3-9 4l-17-2c-9-3-11-2-6 3 5 4 5 5-3 5-5-1-7 0-11 4s-4 5-1 7c4 3 5 10 2 10l-3-3c-2-4-8-3-9 1-1 3-2 4-7 3s-5-1-4 3c2 4 1 4-4 3h-6v-2c1-6 0-6-6-2-3 2-4 5-3 6s0 2-1 3l-4 4c0 2-2 5-5 6-2 1-4 3-4 5 0 3-6 6-7 4-2-2-5-2-9 1-2 2-3 2-3 1s-2-2-4-1c-7 2-8-2-3-6 5-3 4-7-1-5l-3-1c0-1 1-2 2-1l2-2c0-3 0-3 2 0 3 4 10 3 16-2l6-3c0 1 2-1 2-4 0-2 1-5 3-5 5-2 12-8 12-10l5-1c7 2 9-2 4-5-4-2-4-2 0-5 2-1 3-3 2-4-1-2 5-6 9-5 2 1 12-5 12-8l9-9c6-4 10-8 10-9s13-13 15-13c2 1 9-5 12-10 2-2 4-3 5-2l3-2-1-3-2-1 2-1c3 1 18-12 18-15l1-3c0-1 1-2 3-2 3 1 12-5 11-7-1-1 2-3 6-4l9-5 6-3 7-7 6-8c7-3 10-6 9-8l1-1 7-4 3-3h3c2-2 4-4 3-5-1-4 2-7 7-7 2 0 4-2 4-3s3-4 6-5l5-3 5-1c5 1 6 1 4-3s-2-4 1-3 3 0 2-3 0-4 4-6c3-1 6-3 7-6 0-2 3-4 6-4 3-1 5-3 5-4l2-3c1 0 2 0 2-2 0-3 16-13 20-13 2 0 4-1 4-3l2-2 2-3 11-11 10-10 5-3c3-1 5-4 6-6l3-4c5 0 7-2 8-5 1-2 3-3 5-3s3-2 3-3 3-5 7-8l6-7c0-5 5-7 13-5 7 1 8 1 13-3 4-3 4-4 1-3l-3-1-3-1c-2 0-3 2-2 3 0 1-1 2-3 2l-3-2c0-2 12-14 21-21 6-4 9-8 9-11s1-4 5-4c3 0 5-1 5-3l2-2 2-2c0-1 2-4 5-6 8-6 17-16 15-16s9-6 13-8c2 0 4-2 4-3h-3c-3 1 4-7 8-9h7l6-1c0-1-1-2-3-2-6 0-6-2 2-7 3-3 6-6 5-7l2-1c2 0 3-1 3-2 0-2 12-14 21-22l7-7 3-3c2 0 3-2 3-3 0-2 1-3 2-3 2 0 5-3 8-6l5-5 4-3 5-7 2-1c1 1 3 0 4-2 1-3 15-17 25-25 2-2 3-3 3-5l3-1c3 1 4 0 5-4 0-3 2-7 4-8l8-7c2-2 5-3 7-2l4-3 5-6c3-3 3-3 0-5-3-1-3-2 0-3l8-5 12-7c3-2 6-3 5-4 0-4 3-8 6-8 2 0 3-2 3-3s2-5 5-8l6-6c0-1 1-2 3-2s3-1 2-2-1-2 1-2c1 0 4-3 7-8 5-6 7-7 10-6 3 0 4 0 3-1-2-3 3-8 16-20 8-7 11-11 10-14 0-3 0-6 2-7l-1-2-2-3c-1-8-5-14-10-14-2 0-4-1-5-3l-5-2h-6c-2-2-11-2-13 1l-1 9c0 7 0 7-3 4-3-2-3-2-5 0-1 2-1 3 1 5s2 2-1 1-6 6-5 11v2c-2-3-10-2-10 0 0 3-9 11-11 9-2-1-13 5-12 8 1 1 0 2-2 2-6 0-7 2-5 5 2 1 2 2-1 2l-9 4c-3 2-5 5-7 5-1 0-3 2-4 5l-4 3c-2-2-21 13-21 16l-1 7c0 3-1 4-2 4l-2-3c1-1 0-2-1-2l-2 2-7 8-9 9c-2 3-5 4-8 4-4 0-5 1-4 3 2 2-9 11-12 10-1-1-2 0-2 2 0 1-1 2-3 2l-7 3c-2 3-4 3-4 1-2-4-7-1-6 4 0 4 0 6-3 5-5-1-9 3-6 6 4 5 1 8-7 8-5-1-6 0-6 3 0 2-1 4-3 4l-2 5c0 2 0 3-5 2-3-1-4-1-2 1 4 3 4 5 0 5-2 0-5 2-6 4l-5 4-9 2c-7 1-7 1-3 4 3 3 3 4 1 5l-6 2c-2 0-3 1-4 3s-3 4-6 5-6 3-6 5 1 2 2 1l3-2c1 0 1 1-1 3-4 3-4 3-6 0-2-2-3-1-7 2l-10 10c-3 3-6 7-5 8 1 2 0 2-2 2-2-1-4 0-4 2l-4 4c-2 1-4 3-3 4 1 2 0 3-2 3s-3 1-3 2l-3 1c-1 0-4 0-6 2-1 2-4 4-7 4-4 1-5 1-4 9s-2 11-5 5c-2-3-6-3-5 1s-4 9-9 7c-2 0-2 1-1 3 1 3 0 4-3 5-2 0-5 2-5 4l-10 10c-5 4-8 8-8 9l-3 2c-2 0-4 2-5 5-1 5-2 5-5 2-3-1-5-2-5 0 0 1-2 2-4 1l-6 2c0 1 1 2 3 2 5 0 6 5 2 8l-3 6c1 1 0 2-2 3-2 0-3-4-3-11l-2-2c-2 0-3 3-2 6l-1 5c-2-2-7 3-7 6 0 2-1 3-2 3-3 0-9 4-9 6l-4 5-3 6c1 1 0 2-3 2-2-1-3 0-3 1s-2 4-6 7c-4 2-6 5-6 7 1 1-1 3-8 4-11 3-19 9-17 15l-2 4c-1 0-2-1-1-3 0-1-1-2-3-2-3 0-10 6-10 10l-4 2c-3 0-6 2-7 6l-6 6a2 2 0 0 0-2 3l-3 3c-1 0-3 2-2 3 1 2 1 2-2 0h-9c-3-2-4-1-4 2l-2 1c-1 0-4 3-5 6-2 3-4 5-5 4-2-1-2 0-2 2 1 3 1 4-1 4s-4 1-5 3l-5 2c-5 0-14 7-11 8l3 3h-4c-2-2-4-2-5-1-2 1-2 2-1 2l-3 4-8 3c-2 0-5 1-6 3s-5 4-9 4c-3 0-5 1-4 3 1 3-5 7-8 4-2-3 0-7 9-15 9-9 10-10 6-11-2-1 0-1 3-1 4 1 7 0 8-3 6-8 14-18 16-18s16-12 16-14l3-2c3 0 14-10 14-13 0-1 1-2 3-2 3 0 12-7 12-10 0-1 1-2 3-2s4-1 5-3l4-2c2 0 3-2 3-3l3-6c4-3 4-4 1-5s-2-2 2-2c6 0 13-6 13-12 0-5 0-5 4-3 4 1 4 1 4-1 0-1 2-3 5-3l4-3c-1-3 2-7 6-6 1 0 3 0 3-2-1-1 0-3 1-3s3-3 4-7c1-6 1-6 4-5 3 2 4 1 8-4l4-9c0-2 1-3 4-3 4 0 5-1 5-3l2-3c10 0 15-5 13-13-1-3 0-4 5-5 8-2 18-9 24-19 3-5 7-8 9-8l11-6a1331 1331 0 0 0 22-23l5-7 8-8 5-3 1-3c2 0 3-2 4-4s4-4 7-5c2-1 5-3 5-5 0-4 2-5 6-3 2 2 3 1 1-2-1-3 0-5 1-5 2 0 2-2 2-3-1-3 0-4 4-5l5-3c0-2 1-3 2-3l4-3c2-5 13-16 17-16l2-2c0-2 2-4 5-7l4-5 2-1c3-1 8-5 8-7l13-12c7-7 14-13 14-15 2-4 9-10 12-10l3-4c2-6 9-15 13-15 2 0 3-1 3-2 0-2 4-7 14-16l12-13 11-11 3-5c0-3 7-8 10-7 2 0 3 0 3-2 1-8 3-12 10-15l7-6c12-14 17-20 18-25 1-3 2-4 5-4 2 0 6-3 9-6l11-10c3-3 5-5 4-6 0 0 1-3 4-5l5-9c1-2 2-4 3-3 1 0 3 0 4-2 3-3 5-11 3-11l-4-8c-1-6-2-9-4-8-1 0-2 1-2 3s-1 2-2 2c-2 1-2-2-2-6 0-6 0-6-6-6h-9c-2-1-6 1-9 2-5 3-5 4-3 6 3 3-1 6-8 5-6 0-7 5-1 6 5 1 6 5 1 5-2 0-3 1-2 2 1 3-3 11-6 11v3l-1 2-2-4c-1-5-7-2-12 6-4 7-4 8 0 7 4-2 4-1 0 2l-6 3c-6 0-12 3-14 7-3 6-9 8-13 5-3-2-3-2-4 8v10l-2 1c-1-1-3-1-4 1l-7 1-10 3-3 3-5 6c-6 4-8 7-7 9s0 4-6 6l-9 3c-1 0-2 3-2 7l-1 8c-2 3-6 1-6-3l-2-4c-4 0-12 7-10 9 1 1 0 2-1 2-7 1-17 5-17 7l3 3c2 0 3 2 3 3l4 4c5 1 4 1-1 3-4 2-6 1-9-1-4-4-8-4-10-1-1 3 2 6 6 6l2 2c0 2-8 2-11-1-2-2-3-2-7 1l-4 5-11 11-18 17c-6 7-9 8-13 8l-6 2c-1 1 0 2 1 1h2c-1 2-4 2-5 3-4 0-10 5-12 11 0 2-2 3-4 3-2-1-4 0-4 1l-4 4c-3 2-3 3 0 5l1 3-5 1c-3 0-10 6-8 8 1 1 0 1-1 1-4 0-11 7-9 8s1 2-3 4c-5 3-7 3-9 1-3-2-1-7 3-6 2 0 3 0 3-3s2-6 4-8l4-4 6-7 18-17 2-1c2 1 2 0 1-1s2-5 7-9l6-6 5-6c3-3 7-5 9-5s2 0 1-1-1-2 1-3l2-4 4-5 4-3 4-4 3-3c0-2 3-5 7-8s10-10 14-16l9-9c1 1 2 0 2-1 0-3 3-7 11-14 2-1 5-6 7-10 3-5 6-8 7-8l6-6 5-6 5-6 6-6 1-2 5-7c4-4 4-6 3-11l-2-9c1-4-4-8-10-8-5 0-7 0-7 2 0 3 0 3-2 0l-5-2c-1 1-4 0-7-3s-6-4-7-3c-4 1-3 4 1 4 4 1 3 1-1 2-6 2-4 7 3 6 4-1 4-1-1 1s-6 5-2 5c2 0 1 0-1 1-3 1-7 1-12-2-7-5-9-5-9-2 1 6 0 8-4 7-3 0-5 0-7 2-3 4-10 7-14 6-1 0-3 1-3 3l2 2 1 6c-1 6-3 7-10 6l-6 2c-4 2-4 2-3-1 1-2 0-2-4-2s-5 0-4 3l4 4c1 0 1 1-1 2-1 1-2 0-2-1 0-3-10-1-12 2-2 5 1 8 8 9 3 1 5 2 5 5s-1 3-3 2c-3 0-4 1-4 2l-2 2c-2 1-3 0-3-1l-4-2c-3 0-4 1-3 3s0 2-2 1c-1-1-2 0-1 2v3c-3 0-15 10-15 11h3l3 1c0 1-4 2-10 2-8 0-11 0-12 2s-4 3-6 3l-8 1c-2 2-2 11 1 11s-1 2-5 3l-8-1c-7-2-10 2-4 7 5 4 2 7-6 7-5 0-6 0-5 3 0 2-5 5-15 8-3 1-5 0-5-1l4-3c3 0 5-3 6-6 0-4 2-6 4-6s3-1 2-2c0-1 3-5 8-9l8-7 3-4c3-2 5-9 6-21 0-5-1-8-4-9-2-2-3-4-2-6s0-2-1-2c-1 1-3 0-4-1-1-3-9-3-10 0h-2l-4-2c-2 0-5-1-5-3 0-3-7-7-8-4l-4 2c-3 0-3 0-1 2 7 4 3 8-5 7-6 0-8-1-11-4-2-4-2-5 1-7 3-3 3-3 0-5l-4-4-7-3c-4 0-7-1-7-2l-1-4-9-1-12-1c-3 0-4 1-3 4 0 3-1 3-4 3-3-1-5-1-5 1 0 1-2 4-5 6-12 7-16 11-15 13 2 4-2 4-5 1-2-2-2-3 0-4 4-4 0-5-6-2-3 1-6 4-6 6-2 5-12 10-16 8-2-1-9 6-8 8v4c-1 2-2 3-4 1-3-2-4-2-5 0-6 8-6 8-10 6-2-2-3-2-4 0l-6 2c-2-1-4 0-5 3l-1 5c0 1-1 2-3 2-4 0-4 2-1 4 3 0 2 1 0 1s-4 1-5 3c-3 2-3 2-5-1-2-5-6-5-4 0 0 2 0 3-3 3-5 0-8 3-4 4h-2l-6 2c0 2-3 3-6 3-4 0-6 1-6 3l-2 2c-3 0 0-7 3-9l3-4 8-8 7-9c0-1 1-3 3-3 3 0 10-5 10-7l4-4 8-8c2-2 5-5 7-5 4 0 5-6 1-9l-3-4c0-4 4-2 9 4 5 5 6 6 8 3 2-2 2-2-1-3h-2c2-1 2-2 2-4-1-1 1-4 5-8 4-3 6-6 6-7-1-2 0-3 3-3 2 0 4 0 3-1s0-4 2-6l2-5 1-3c2-3 2-4 0-4-1 0-2-1-1-2 1-3-7-11-11-11l-5-2c-1-1-4-3-5-2l-3-1c-2-2-12-2-12 0l-4 2-5 2h-6c-3 0-4 0-4 2l-3 4c-2 0-2 1 1 2 2 2 2 2-2 1-3 0-5 0-5 2 0 1-1 2-3 2l-4 1-4 1c-1-1-2 1-3 3-3 5-13 11-16 8-1-1-2-1-4 1-3 3-6 2-6-3l-3-4c-3-1-12 7-12 11 0 1-1 2-3 2v-3c1-2 0-2-2-2h-6c-1-1-3-2-4-1s0 2 1 3c4 3-1 12-5 11-2 0-4 0-4 3l-5 4-11 6-7 5 7 1 8 1c4-1 8 0 6 1 0 1-2 2-4 1s-4 1-6 5c-2 3-3 4-4 3 0-4-11-7-12-4-1 2-3 2-7 1-7-1-8 1-7 9 0 2-2 3-6 4s-6 2-6 3c1 2 0 2-5 2-3-1-6 0-7 1s0 2 1 2 2 1 1 2l-6 1c-9 0-10 0-9 4 1 5-5 8-7 4-1-2-2-2-4 2-3 3-5 3-7 3-2-2-2-2 2-3s6-4 3-4c-5 0-20 10-20 14s-3 5-5 2c-2-1-5-3-8-3-3-1-4 0-4 2s-1 3-4 3c-3-1-6 0-9 3l-8 4c-2 0-8 5-14 9l-13 9-5 1-7 4c-4 4-5 4-8 2-2-1-3-1-3 2l-3 6c-2 1-3 3-2 3 1 1 0 1-3 1l-6 3c-1 4-2 4 4 5 7 1 3 3-6 3-6 0-7 1-7 4 0 2 1 3 4 2l8 1c2 2 2 3 0 3-2 1-3 2-2 3 2 2 3 2 8 0h5c0 3 8 4 10 1 3-3 18-9 23-9l13-4 18-8 9-4 11-7 18-12c6-4 10-6 15-6s9-2 13-4c6-5 13-6 15-3 0 2 2 1 5-1l9-3h6l-6 2c-3 0-5 2-5 4 1 3-8 6-10 3-2-2-2-2-5 0-3 3-4 4-1 6 2 2 1 3-3 5l-12 3c-3 0-3 3 1 3 1 0 2 2 2 6-1 5-2 6-6 5l-7 2c-4 3-4 4 2 5h5l-5 1c-5 0-6 5-2 8v5c-3 5-7 5-7 1s-5-5-10-1c-2 2-2 3 1 4 4 2 4 2 0 3-5 1-10-2-9-5 2-4-3-3-9 2-3 2-5 5-4 6 1 3-4 7-7 6-5-2-7 4-6 13 0 7 0 9-2 8l-7-2c-4-1-5 0-5 2 0 3-1 4-6 4s-5 0-2 2c5 3 5 4-1 6s-7 5-2 5c3 0 4 2 2 4h-5c-2-2-3-1-3 2l3 6c2 1 2 2 0 2l-2 2 3 1 2 1c-2 2-9-1-8-3 0-1 0-3-2-3l-1-2-1-4c-2 0-3 1-4 3 0 2-3 4-5 4-5 0-5 0-1 2 3 2 6 2 8 2 1-1 2 0 1 1h-7c-5-1-7 1-7 11-1 3-2 6-4 7l-2 3-4 4c-4 0-4 1-2 4 1 2 4 3 5 3 5 0 5 4-1 8-3 2-4 3-2 4l5 1 1 2c0 2 0 4 2 4l5 7 4 6 11-2c11-2 35-10 33-12l1-2c1 0 3 1 3 3 2 2 4 0 5-4 0-5 13-10 18-8 4 2 5 2 5-1-1-3 1-4 6-5 4-1 6-2 4-3-1-1-1-3 1-5 2-4 3-4 9-4h7c0-1 2-2 4-1 2 0 5-1 8-4 6-6 7-8 3-7-2 0-3-1-3-2l5-1c10-1 11-1 11-5 0-5 3-8 5-5l8 2h7l-5 5c-3 4-6 5-11 5-10 0-17 6-18 14l-8 4-7 4-2 5c-1 2-1 3 1 4 1 0 2 1 1 2l2 1c2 0 2 1 0 3s-4 2-6 2l-5 2-7 2c-3 0-4 1-3 3 0 2-2 5-5 6l-3 4c1 2-8 8-11 7-2-1-7 6-7 11 0 2-1 2-2 0-5-5-13 7-9 14 2 4 1 5-3 6l-7 1-3 2 2 1c2 0 3 2 3 5 0 2-2 4-3 4-4 0-5 4-1 6l1 2c-2 3 4 11 7 10h1l1 4c1 2 2 1 4-1 4-4 7-2 3 3-2 3-2 4 1 5l4 1v2c0 2 1 4 3 5 2 2 3 2 3-1l2-3 2 2 2 4c0 2-1 3-4 3-3 1-4 3-4 7s-1 5-5 6l-8 5c-1 3-3 4-4 4-3-2-13 12-12 14 1 1 0 2-1 2l-6 3c-3 2-2 3 2 9 3 5 4 7 1 7l-3-3c0-4-8-3-11 1-2 4-2 4 2 3s5-1 2 2l-5 4c-2 0-3 1-2 3s1 3-2 3l-3 3-2 12h-4c-4-1-4 0-4 6 0 5 2 11 5 14 4 7 13 15 16 15l3 1c1 2 17-1 25-3l3-1c1 0 2 0 2-2 0-1 3-3 6-3 5-1 6-2 6-4s-2-3-4-3c-1 0-2 0-1-1 1-2 3-1 6 1 5 3 13 2 16-4 2-3 4-4 6-4 3 1 19-10 17-12-1-1 0-2 1-3s2 0 2 1l2 1c1 0 3-1 2-2s1-3 3-3l2 2c0 1 1 2 2 1 3-1 4-8 2-8l-2-2 6-1h7l-2-5c-2-3-2-4 2-3l9 1c4 2 8-1 6-5 0-1 1-2 4-2 6 0 7 2 2 6-5 3-6 7-1 7l1 1h-5c-4-3-7-1-8 5-1 5-2 6-12 8-6 1-11 4-11 5 0 2-8 6-10 5h-1l3 4c2 1 2 2 0 2s-4 2-5 5c-2 4-3 5-6 4-6-1-10 2-7 6 2 3 2 4-2 5-2 0-6 2-9 5-4 3-5 5-4 9s4 7 7 8l4 3c0 2-3 1-7-2-5-4-8-5-8-1 0 2-1 3-6 2s-7-1-7 1 1 3 3 4v3c0 2-2 2-3 1-2-1-4 0-5 2-2 2-2 4-1 4 4 2 3 4-3 4l-8 1c-2 2-1 12 1 12 1 0 2 1 1 2s0 3 2 4c2 2 5 4 5 6 2 4 4 4 14 4l20 1c7 1 8 1 7-2-2-3 5-5 8-2s6 3 4 0c-2-4 1-8 7-8 3 0 5-1 5-2l3-4c2 0 3 0 3 2s2 2 6 0c3-1 5-2 4-3h2c3 0 3 0 3-4 0-6 2-9 6-9 2 0 3-2 2-3-2-3 3-4 10-1l10 1c5-1 5 0 5 6-1 2 1 4 2 5 1 2 2 4 1 6s-7 3-7 0h-4c-2 0-3 0-3-2l-2-2c-3 0-7 5-6 8 1 2 0 5-2 7-3 4-3 4 3 8 5 3 5 4 3 4l-8-3c-2-2-4-2-6-1-4 2-3 5 0 5 2-1 3 0 3 1 0 2-5 4-10 5l-10 1-6 1c-2 0-5 8-5 12 1 5 0 5-5 5-4-1-8 0-9 1s-3 3-5 3-5 3-13 14c-1 2-3 3-4 2l-2 4c-1 4 1 5 5 1 3-3 7-2 6 2l-1 4-2 1c-3-2-11 0-11 2l6 3c5 1 7 2 7 5l1 8c1 3 0 4-4 5h-6c0-3-6-2-11 2-4 3-5 5-4 8 2 4 2 4 4 2 2-5 5-4 5 0 0 5-4 10-8 10-2 0-2-1-2-3 2-4-2-5-4-1-1 1-2 2-4 1l-1 2c1 2 0 3-2 3-9 0-11 1-11 3l4 4c3 1 3 2 1 4-4 4 0 10 9 13 10 4 25 6 25 3l4-2c3 0 4-2 5-5s3-5 4-5c2 0 2 0 0 2-1 2-2 3-1 4 1 2 14 2 14 0 0-1 2-2 5-2l6-4c1-1 2 0 3 2 1 3 3 4 5 3l6 1c0 1 0 2-2 2l-4 2v5l-4 2-5 1c-2 2 5 6 9 4 4-1 4-1 0 2-2 2-6 3-10 3s-7 1-7 3l-6 8c-3 4-3 6 0 9 3 5 0 9-5 5-3-1-4-1-7 1s-4 5 0 4 9 4 6 6c-3 3 0 5 5 4 2-1 4-1 4 1h-2l-4 1-6 2c-6 0-8 4-2 4 3 0 3 0 1 1-2 0-5-1-7-3s-6-4-9-4l-9-2c-4-1-5 0-5 2s2 3 5 3c3-1 5 0 6 1v5c1 6-1 8-9 5l-8-2c-2 1 7 8 10 8 2 0 1 1-1 2-4 4-7 3-9 0-1-3-1-3-4 1l-3 8c0 2-1 3-2 2l-8-2c-8-1-11 3-7 7 2 2 0 3-6 6l-9 3-4 4c-1 2-4 3-7 3-5 0-6 10-1 12 5 1 2 4-3 4-4 0-6 5-3 11 2 3 17 3 19 0l1 3-2 6-2-2c0-3-4-1-5 3-2 7 0 10 6 7 9-4 11-4 20-5 7 0 10 0 10 3l-3 2c-1 0-2 1-1 3 1 1-1 2-6 3-9 0-7 3 3 4l10 2h5c4-3 3-6-1-5-5 2-6-2-1-5 3-2 8-4 13-4l10-2c2-2 7-2 12 1 3 3 4 3 4 1-1-5 0-7 3-7l4 2c1 4 7-2 7-7 0-3-1-4-6-3-9 0-10-3-2-7l6-1 4-2c3-4 3-2 0 5-1 2-1 3 2 2 3 0 3 1 1 5-2 3-1 5 0 6 2 2 3 2 3-2 0-2 3-2 6-2s7-1 10-4c5-4 5-5 1-5l6-2c8-2 9-3 9-6s0-3 4-3c3 0 5-1 5-2-1-1 0-2 2-2 5 0 4 1-10 13-32 27-36 31-35 33 1 1 1 2-1 1s-10 3-10 5l-4 4c-9 8-11 11-10 14 1 2 1 3-3 2-5-1-17 6-17 10 0 1-3 3-6 3l-5 3-6 7-23 21c-5 4-7 7-6 10s-2 5-4 1c-1-3-6 1-6 5l-1 3c-2-4-5-2-8 3-1 3-3 5-5 5l-6 4-10 10c-5 4-6 6-4 8s2 2 0 2-4 2-5 4c-1 5 1 6 5 3m230-30-5-1 5-1 5 1c0 1-2 2-5 1m14-8c-1-3-5-5-7-6l-5-1 5-1 5 2 2 1c2-1 6 4 6 7 0 4-4 2-6-2m9-12c-3-3-3-3 0-3l5 3c1 3-1 3-5 0m8-29 6 1 2 1c0 3-2 2-7-1-4-2-4-2-1-1m1 33v-3c2-2 5-3 5-1s-1 3-5 4m7-17c-2 0-4-1-3-2 1-2 3-3 5-2 4 1 3 4-2 4m10-24c-3 2-6 0-6-3l4-2c3 0 4 3 2 5m4 32c-2 0-3 0-3-2l1-1 2 1v2m2-51-8-1-3-2c1-1 0-3-1-5-2-1-2-2-1-3l1 1c0 1 2 2 3 1 2 0 4 1 5 3 0 2 3 5 5 5s2 1-1 1M38 1164v-3c0-2 1-1 1 1s0 3-1 2m40-85 2 2c1 1 1 1-1 1l-2-1 1-2m-6 48 2 1v2c-2 0-3-1-3-2l1-1m-1 20c-1 0-1-2 1-3 2-2 4-2 5-2 2 2-4 6-6 5m13-33-2-3 2-1 2 3-2 1m3-24c-1 2-2 2-3 1-2-2-3-2-7 0-3 1-4 1-4-1l1-3 14-1-1 4m16-22-2-1c0-1 0-2 2-2l2 2-2 1m8-17c1 0 2 1 2 3s-1 2-2 2l-2-2 2-3m-1 43c0-3 0-3 5 1 3 3 3 3-1 3-2-1-4-2-4-4m13 34-2 4v2l-9 1 10-7c4-3 4-3 1 0m6-24-3-3q-1-2 2-1c3 1 4 4 1 4m44-91 1 4c-2 2-3 1-3-3 0-3 0-3 2-1m-30 63 2 2c1 1 0 2-1 2l-2-2 1-2m-1 5 1 2-2 2-1-2 2-2m-2 38-4-1c6-1 8-4 3-5l3-1 4 1 2 3c1 2 0 3-8 3m8-53-4 2 2-3c3-3 6-3 6-1 0 1-1 2-4 2m7 15c-2 0-2 0 0-2 1-2 3-2 4-2 3 1 0 4-4 4m6 8-2-3 2-1 2 3-2 1m9-39c-5 2-14 3-14 1 0-1-2-2-5-1-6 1-8-3-2-7 3-3 7-4 7-1-1 3 1 5 6 6s7 0 9-2c2-3 3-3 3 0l-4 4m5-25-4 5c-3 1-4 3-2 5 4 5-5 9-11 4l-1-3c1-1-1-3-5-5-3-2-5-4-3-4l4 1c3 3 14 0 16-3 1-4 7-7 9-6v2c-1 1-3 2-3 4m5 49-2-1 2-2 3 1c0 1-1 2-3 2m2-29-2-2 2-1 2 1-2 2m2-32-2-2 1-2 2 2c1 1 0 2-1 2m6-19 1 4c-2 2-3 1-3-3 0-3 0-3 2-1m1 30c-1 3-1 3-2 0-1-2 0-4 1-5 3-2 4 0 1 5m4-10c-2 0-2-1-2-2l2-4c1 0 2 1 2 3s-1 3-2 3m-55 203v-3c1-2 1-1 1 1s0 3-1 2m66-40-3-1c0-1 1-2 3-2l2 2-2 1m217-59h-3c0-1 1-2 3-2h2l-2 2m-125 101c-2 0-3-1-2-2l4 1c2 2 1 2-2 1m5-12c-2-1-2-2-2-3l3 2c1 3 1 3-1 1m11 62c-1 2-2 2-3 2l-1-1c0-1 1-2 3-2l1 1m-2-8-5-2 3-1 5 1-3 2m6-37-3-2c-1-1 0-2 1-2l2 2v2m6-33-3-2 1-3c1 0 2 1 2 3v2m31-1c-2 1-4 1-6-1l2-2c4-1 7 1 4 3m-10-16c2-1 4-3 3-5-1-3 3-3 5 0 1 3-1 5-7 7s-6 1-1-2m-14 44-2-1 2-3c1-1 2 0 2 1 0 2-1 3-2 3m2-19-2-1c0-2 3-4 5-3s0 4-3 4m13 26q-6 3-4-5c0-4 0-4-3-3h-2c1-1 4-2 7-1 4 1 4 1 2 3s-2 3 0 4 3 1 0 2m3-20c1-4 4-5 4-1l-2 4c-1 0-2-1-2-3m4 45c-1 0-2-1-2-3 0-5 3-6 4-1l-2 4m0-35c-3 0-4-1-3-2l4-1c4 1 4 2-1 3m25-68c5 1 5 2 1 3l-4-2c-1-1 0-1 3-1m-4 13c-1-2 0-2 1-2l4-1c2-3 3-3 9 0s7 2 9-1c2-2 2-2 2 2 1 4 0 4-12 4-9 0-12-1-13-2m23 114c-1 2-4-2-4-6-1-1 0-1 2-1l1 1c-1 1-1 2 1 3v3m2-16c-2 0-2-1-3-2s1-3 3-4l2 2c0 3-1 4-2 4m1-73c-3-2-3-2 0 0l4 3c0 1-2 0-4-3m6 40-1-3c1-1 2-1 2 1l-1 2m4 2v-3c2-3 5-5 5-2l-5 5m35-109c-2-1-4-2-8-1h-3c5-4 11-3 12 0 0 3 0 3-1 1m0-15c-1-1 0-2 1-2l2 2-1 1-2-1m3 9c-1-2-1-3 2-2l4 2c2 3-5 3-6 0m66-63 4 2-1 1-4-1 1-2m-8-5 2 2-2 1-2-1c0-1 0-2 2-2m-41 62h-5c-3-2-3-3-1-4 4-1 8 1 6 4m7-4c0 1-1 2-2 1-2 0-2-3-1-5l-2-5v-3a2 2 0 0 0 3-2c0-1 0-3 2-4l1 2c-1 1 0 3 3 3 3 1 4 0 4-1 0-3 10-6 12-4 3 1-12 15-16 15-2 0-4 1-4 3m12 6c-2-1-3-3-2-4s2 0 3 2c4 4 2 5-1 2m-1 50c-2-1-2-2 0-3 3-3 3-5-1-5l-3-2 4-2c4 0 5 2 5 6 0 6-2 9-5 6m7 14c-1-2-1-3 1-4 3-1 3 0 4 3 0 5-2 5-5 1m15 28h-3l4-1c2 1 1 1-1 1m2-116h-7l2-4c2-1-1-2-20-2-5 0-8-1-8-2s4-2 10-2c3 1 3-1 0-4-2-1-1-2 2-2 7 0 6-3-2-5-7-2-7-4 1-5 4-1 6 0 7 1 1 2 3 2 5 1l5 1c1 1 0 2-3 2-2 1-4 2-3 3s0 2-2 3c-8 2-1 8 9 8 4-1 5 0 5 2l-1 5m3-23-3-2c-1-1 0-1 2-1l3 1c0 1 0 2-2 2m8 6c-2 2-3 5-2 6s0 2-1 1c-2 0-3-2-3-5 1-6 2-8 6-7 3 1 2 1 0 5m14-61c3 0 3 1 1 4l-3 3-1-3c0-2 1-4 3-4m-6 13c1-1 9 3 9 5 1 3-8 1-9-2v-3m-4 26 2-2 5-2c1 1-4 4-7 4m14-6-5-3-4-4c0-2 7-2 9 1 2 2 2 5 0 6m12 2-4-5h4c1 1 3 3 3 5 0 3 0 3-3 0m3-8-2-1 1-2 2 1c1 1 0 2-1 2m8-3-1-2c1-1 0-3-2-5l-3-5v-3c-2-1-2-2 1-4 2-2 3-2 3 1l3 4c3 2 3 3 1 4s-1 3 0 4c3 1 1 6-2 6m30-53v1-1m-5 28h-3l4-1c2 1 1 1-1 1m-7-35 2 2c1 1 0 1-1 1l-2-1 1-2m-1 21c1-3 9-3 9 0l-3 4c-3 2-8-1-7-4m0 9c2-1 3 0 3 1l-3 1h-3l3-2m3 97c0 4-2 5-4 4-2 0-3-1-3-2l3-3 1-4c-1-3 0-4 2-4 3 1 3 2 1 9m-1-75c-4 0-6 0-5-2l-2-3c-2-1-2-1 2-1 6 0 11 2 11 5l-6 1m14 84c-1 3-7 5-7 2l4-3c4-2 4-2 3 1m2-16c-1 5-1 5-3 0v-6c2-2 4 3 3 6m-166 278-3 2c-2 0-2-1-1-2l3-1c2 0 2 0 1 1m1-34c-2 0-3-1-3-2l2-3c2 0 3 1 3 3s-1 2-2 2m10 22-3 2v-2l2-1c1-1 1 0 1 1m13-29c-3 0-4 0-3-1h4c2 0 1 1-1 1m26 16-3-4c2-1 6 3 6 5 0 1-2 1-3-1m0-8v-3c2-2 3-4 4-3s-2 6-4 6m13 5v-2c0-1 0-2-2-3s-2-2 1-4c4-3 4-3 3 0-1 2-1 4 1 5s0 4-3 4m2-34-2-2 1-1 2 1c1 1 0 2-1 2m12 18-6 3c-3 2-3 2-2-1 1-2 3-3 7-3s5 0 1 1m-124 145-2 3c0 3 0 2-3 0-2-2-3-4-2-5h5c3 1 4 1 2 2m28-35 1-3h3c0 2-3 4-4 3m10 19-3-1 1-2 3 2-1 1m14-26c-4 6-7 6-7 1 0-3 4-7 8-7 2 0 2 1-1 6m13 4-2-1h4c1 0 1 1-2 1m15-19c-2-2-2-3-1-4 2-1 3-1 4 1 3 3 1 5-3 2m6-18-2 2-2-2c-1-1 0-1 2-1s3 0 2 1m97 31h-2c0-1 0-2 2-2h2l-2 2m49 132-2-1 1-2 2 1c1 1 0 2-1 2m155-153c1 0 2 1 1 2l-2 3-1-3c0-2 1-2 2-2m-3 50-9 4 9-6 8-4-8 6m24-15 4-4 8-5c4 1-8 9-12 9m449-312 3-2v2c-3 3-5 3-3 0m-26 19c4-4 12-6 11-3-1 2-12 8-14 7l3-4m-9 7h4c2 1 1 1-1 1s-4 0-3-1m-335 224c-3 0-6-1-7-3-4-3-3-3 5 0 6 2 6 3 2 3m4-41c-2 2-3 2-3-1l2-2c1 1 2 2 1 3m171-132-2-1v-2c2 0 3 1 3 2l-1 1m37-39-2-1 2-2 2 1-2 2m44-32-6-2c-3-3 0-3 5 0 4 2 4 2 1 2m21-23-2 1-1-2 3-3c4 0 4 3 0 4m26-23-4-2 2-1c1-1 3 0 4 1l-2 2m8 7-2 1-1-1 2-2c1 0 2 1 1 2m10 8-4-3c-2-1-2-4-1-4l5 4c1 1 2 3 0 3m27-12c-2 0-3-1-2-2l3-2 2 2c0 1-1 2-3 2m26-35c-4 2-4 2-4 0l4-1c3 0 3 0 0 1m107-130v1l-2 2-1-2 3-1m-10 25c2 0 3 1 3 2s-1 2-3 2-3-1-3-2 1-2 3-2m-5 17-1 2-2-2v-1l3 1m-8-15 4 2h-1c-3 0-4-1-3-2m-2 12c0-2 1-1 1 1s0 3-1 2v-3m-43-35 4 2-1 1-4-1 1-2m-55 36c1 0 2 1 1 2-2 2 2 2 5 0 1-2 3-2 3-1 0 2-7 6-9 5-2 0-2-2-2-3l2-3m126-140 4 4-4-1-3-4c0-1 2-1 3 1m-43 22c4-3 4-3 2 1-2 2-3 4-4 3l2-4m-22-30 1 1-3 2-1-2 3-1m-68 103c0 2-2 2-3-1-1-2-1-2 1-2l2 3m-9-46h4c2 1 1 1-1 1s-4 0-3-1m-75 106c1 0 2 2 1 4l-2 3-1-3 2-4m-32-5c2-1 2-1 2 2s0 4-2 2c-2-1-2-2 0-4m0 16 3 2-3 1-2-1 2-2m-17 16c2 2-2 6-6 6l-4-1c0-2 8-6 10-5m-13-5 3 3c0 2-2 2-4-1l1-2m-67 75c2-3 6-4 6-1v4c0 1-2 2-4 1-4 0-4-1-2-4m-11 17h2l-2 2-2-1 2-1m-91 64c2-3 8-2 17 2l6 3-5 4c-5 5-8 6-8 3l4-3c6-3 6-5 0-5l-6-2-5-1c-3 1-3 0-3-1m-22 20c5 0 5-1 2-6-2-3-2-3 4-3s6 0 4 5l-4 7c-4 2-8 1-9-1-1-1 0-2 3-2m-3 13 4 2c1 1 0 2-1 2l-3-2v-2m-10-8c4 2 1 7-3 6l-4-2c1-3 4-5 7-4m-32 16c1 0 3 0 5 2 4 3 2 3-3 1-2-1-3-2-2-3m-1 10c6 0 9-1 9-2l4-2c5 0 3 3-4 5-8 2-17 2-18 0-1-1 3-2 9-1m-11-7 2 2c1 1 0 2-1 2l-2-2 1-2m-4 37c2-3 5-4 5-1 0 1-1 2-5 3v-2m-20-11c2 2 2 2-1 3-3 2-8 3-8 1s6-5 9-4m-20 10c1-1 2 0 3 1 1 3-2 4-4 1l1-2m-5 25c2 0 3 0 2 1-1 2-5 3-5 1l3-2m-18 7c0-4 0-4 2-1 3 4 3 5 0 6-1 0-2-2-2-5m-3-7-2 1h-4c0-2 4-3 6-1m575-590 3 1c0 1 0 2-2 2s-3-1-3-2l2-1m-186 200 4-2c1 0 1 1-1 2-4 2-5 2-3 0m-170 135 4-3-2 4c-3 3-5 3-2-1m-97 74c6-2 8-2 6 1-3 3-6 4-8 1 0-1 0-2 2-2m-15 7c1 2 0 6-2 6l-2-5c-1-4 2-5 4-1m-41 41h4c2 0 1 1-1 1l-3-1m-57 37c5-5 8-5 6 0-1 2-3 4-5 4-4 0-4 0-1-4m-45 30c2-2 10-2 9 0l-6 2c-3 0-4-1-3-2m-15 11c10-1 12 0 7 4-5 5-6 5-11 1-3-3-3-4 4-5m-7 10c5 0 5 1 0 5-6 3-9 3-9-2 0-3 2-4 9-3m-17 18h2l-2 2h-2c0-1 0-2 2-2m-27 25c-1 1 0 3 1 4 2 2 2 2-3 2s-6-1-7-4c0-3 1-4 5-4 3 0 5 1 4 2m-10-10c2-5 9-7 9-3l-4 4c-5 3-7 2-5-1m-82-32 2 2-1 2-2-2c-1-1 0-2 1-2m-17 8h4c2 0 2 1-1 1l-3-1m2 50h3l-3 2h-4l4-2m-50 106c0 2 0 3-2 1-1-1-2-2-4-1s-2-1-2-3 1-3 3-3l3-1v-5c0-2 1-3 3-1 3 2 9 1 7-2-1-1 0-1 2-2 2 0 2 1 2 3l-3 3-3 4c0 3-1 5-3 5-1-1-3 1-3 2m22 15-7 5c-6 3-7 3-10 1v-6c1-3 2-3 2 1v4l6-5c4-3 7-4 9-3 3 2 3 2 0 3m18-21h-7l3-4c2-1 3-1 5 1 2 1 2 2-1 3m-8-30 1-1 2 1v2c-2 0-3-1-3-2m8 7 3-2c2 0 2 1 1 2l-3 2c-2 0-2-1-1-2m5 11-1-3c1 0 2 0 2 2 2 2 1 2-1 1m8-9-3-1 4-1c2 1 1 1-1 2m6-5c-1 2-2 2-3 0l1-3c2-2 4 0 2 3m-2-29c-3 1-4 2-4 4 1 2 0 3-3 2-7-2-8-2-9 0 0 1 2 3 6 4 5 2 6 2 3 5-5 3-26 2-26-1l1-4 4-4c1-2 4-3 7-3 5 1 6-2 2-4-3-1-3-1 0-2l2-3c0-2 2-3 4-3l5-3c2-2 4-3 7-1 7 2 7 13 1 13m11 16c-2 3-5 3-6 0-1-1 0-3 2-4 4-1 5 0 4 4m8 36-3-1 3-1h2l-2 2m7-12-3 2-2-2c0-1 1-2 3-2s3 1 2 2m-5-8c0-1 0-2 2-2l2 2-2 1-2-1m9-35c0 4-6 9-9 9-2 0-3-1-1-3l6-6c5-3 5-3 4 0m10 13c-3 1-5 0-7-3s-2-3 5-2 12 4 12 7l-3-1c-2-1-5-2-7-1m19-11c0 1-1 2-3 1l-6 1c-4 2-4 2-3-1 3-5 12-5 12-1m-2-11 2-1c1 0 2 1 2 3 0 1-1 2-2 1-2 0-2-2-2-3m-4-5c-4 5-6 4-3-1 2-3 1-4-2-5-4-2-5-1-8 1-4 3-5 3-5 0s10-6 12-4h3c1-1 3 1 4 2 2 3 1 5-1 7m-7 93-3-1c0-2 4-3 5-1 1 1 0 1-2 2m3-25c-2 0-3-1-3-2l3-2 2 2c0 2-1 3-2 2m-1-18v-2l4 1c1 3-2 4-4 1m17 7-4 2c-2-1-4 0-5 1-1 2-2 1-3-1s0-4 1-4c3-2 12 0 11 2m10-11 5-2c2-1 3-1 2 1l-3 3-3 3c0 2 0 2-1-1v-4m5 19c-5 4-7 1-2-3 3-3 4-3 5-2s0 3-3 5m16 0c-4 2-5 1-2-3 1-2 2-2 3-1s1 3-1 4m5-11c-5 3-6 3-3-1 1-2 4-3 5-3 1 1 0 2-2 4m37 15c-1 2-2 2-3 0v-3c4-1 5 1 3 3m9-20-1-4c1-1 1 0 2 2 1 3 1 3-1 2m6-2 2-4c2-2 5-3 5-2 1 1-4 6-7 6m33-60 2 2-1 1-2-1c-1-1-1-2 1-2m8 41-8 1 5-2 3 1m-2-33-2 2-2-2 2-1 2 1m-7-25 4-3-1 4c-4 3-5 3-3-1m-21 8c1-1 2 0 3 2s1 2-1 1-2-3-2-3m-4 9c4 0 4 0 2 3l-7 2c-2 0-4 2-4 3s-1 2-3 2l-3-4c0-3 8-6 15-6m-59-1 3-1c2 0 2 0 0 1-4 2-5 2-3 0m-1 39-5-1-6-2c0-3 7-4 9-2 1 2 8 1 8-1 0-1 3-3 7-4l7-7 7-5c4-2 6-2 12 1 6 4 10 5 10 2l9-3c6 0 10-2 11-3 2-2 15-3 15 0s-14 14-17 13c-1 0-2 0-2 2 0 1-2 3-5 3-2 1-5 3-5 5l-3 3-16 9-16 9-2 2 3 1c2 0 3 1 2 2-2 3-5 2-8-2-2-2-5-3-7-2-4 1-8-4-6-7 1-3-4-3-8 0h-5c-3-2-5-2-8-1-6 3-6 3-6-1 0-2 0-3 3-2s22-7 22-9m-30-31c2-3 8-3 8-1l-3 4c-3 2-7 0-5-3m-1 78 3 1-1 2c-2 0-3 0-3-2l1-1m-3-107c2 3-1 7-5 6l-5-1v-3c3-4 8-5 10-2m-13-17 2 2-2 1-3-1c0-1 1-2 3-2m-8 25c4-1 11 0 10 2s-4 2-9 1c-2-1-2-2-1-3m-19 6c1 0 2-1 2-3s2-2 4-2l5 1c0 1 2 2 5 2s4 0 1 1c-6 1-4 5 2 5l4 2c0 1-4 2-7 1-4-1-7 0-9 2-4 3-6 2-8-4-1-3 0-5 1-5m-2 15 4 5-4 2c-6 4-11 4-11 2 0-1-1-2-3-2l-3-1c0-2 2-2 5-1 5 1 6 0 6-3 0-2-1-3-3-3l-2-2c0-3 6-2 11 3m-5-11c-2 0-3-1-3-2 1-1 3 0 4 1 2 2 2 2-1 1m-6-40c5-3 5-3 4 1-1 6-5 8-15 9l4-3c2-1 4-3 3-4l4-3m12-41-2-1 1-2 2 2c1 1 0 1-1 1m5 4-1-2c0-1 1-2 3-2l1 2-3 2m4 5-2-2v-2l3 2-1 2m22-21c-2-1-3-3-2-3 1-1 5 1 5 3h-3m45-59 2 2c-2 3-6 2-6-1 0-1 2-2 4-1m0 24-2 2-1-2 2-1c1 0 2 0 1 1m6-15-4 1c-4-1-3-2 0-3 4-2 6-1 4 2m5-10c-4 0-4-1-2-2 2-2 3-2 5 0 2 1 1 2-3 2m575-571 2 1-2 2-2-1 2-2m-84 80v2c-2 3-8 3-8 1s7-4 8-3M917 905c1 2 0 2-2 2s-4-1-4-2c0-3 5-3 6 0m-17-52c1 0 2 1 1 2l-2 2-1-2 2-2m-5 66c2-2 6 1 6 4 0 2 0 2-4-1-2-1-3-3-2-3m-34 39 7 2c2-1 3 0 3 1 0 2-2 2-9 0l-6-3c0-2 2-1 5 0m-37 14c2-1 3-4 3-6 0-3 1-4 6-3 8 0 9 1 7 4-1 1-2 3-1 5 1 4-12 8-16 4-1 0-1-2 1-4m-7 14c0 4-1 6-3 6s-2-1-2-2c1-1 0-3-2-4-4-2-4-2-1-4 6-3 7-2 8 4m-12-54 3-2c3 1 1 4-2 4l-1-2m1 67 3 3 1 4c-2 0-3-2-4-4v-3m-3-7 1 2-3 2-1-2 3-2m-3 36 2 2c1 1 0 1-1 1l-2-1 1-2m-30 35c-3 2-7 1-7-1s2-3 4-3c4 0 6 2 3 4m-34-16c1-3 3-5 5-6 3 0 4-2 4-6s1-4 5-5c5 0 7-1 9-5 2-3 3-5 3-3 0 1 1 1 4-2l8-4c2 0 3-1 3-2l3-3c3 0 3 1-1 5-5 6-4 10 2 8 3-1 3-1 0 2l-4 5c1 1-1 2-2 2-1 1-2 0-1-1 1-2 0-3-8-4-6-1-6-1-5 5 1 4 3 8 5 9 3 2 3 2-4 1-5 0-8 1-10 3s-3 2-4 0c-2-3-8-2-7 2v2c-1-1-2 0-2 1l-2 2-1-6m-9-23c2 0 3 1 3 2l-1 1-2-1v-2m2 26c3-3 3-3 3 2 0 4-2 6-5 2-1-1 0-3 2-4m-4 36 3 2-3 1c-2 0-3-1-3-2l3-1m562-793 2 2c0 3-1 2-3-1-1-1 0-2 1-1m-26 16 2 2-2 1-2-1 2-2m-1 19c4 0 6 2 4 4s-4 1-6-2c0-1 0-2 2-2m-25 75c2-1 4 1 3 4h-3v-4m-26 31-2-2 2-1 2 1-2 2m-1-12c3-2 3-2 3 2 0 3-3 4-5 2-1-1 0-3 2-4m-7 51c-4 2-5 2-3 0l4-2c1 0 1 1-1 2m-3-47 2 1-2 2-2-2 2-1m-6 17-2 1c-2-1-2-2-2-3l2-1 2 3m-8-66c0-1 2-2 3-1 3 1 2 4-1 4-2 0-3-1-2-3m-13 2c1-3 2-3 2 0l3 2c2-1 3 1 1 3-3 2-7-2-6-5m-39 114 2 2v1l-3-1c-1-1 0-2 1-2m-5-68c1 0 2 1 1 2l-2 1-1-1 2-2m-13 204c3-2 3-2 2 1l-3 2c-1-1 0-2 1-3m-17-101 2-2 1 2-2 3-1-3m-1 16c-4 2-5 2-3 0l4-1-1 1m-6-87c1-2 2-4 1-5l1-1c4 0 3 8-1 9l-4 1 3-4m-34 104v-3c1-1 1-1 1 1 1 2 0 3-1 2m-1-81 4-1c2 0 2 0 0 1-4 2-5 2-4 0m-49 163-2 1-1-1 2-2c1 0 2 1 1 2m1-39c1 2 1 3-1 2l-3-2c-2-3 3-3 4 0m-6-67c3 0 3 0 0 2-4 2-4 2-4 0l4-2m-29 83 4-2c1 1-2 5-4 5s-2-1 0-3m-3 145c4-2 4-2 1 1s-4 4-4 2l3-3m-13 2c2 0 4 2 5 4 2 2 2 3-1 3-1 0-4-1-5-3-2-3-2-4 1-4m-6-20 2 2-2 1-2-1 2-2m-17-128c1-1 2 0 3 1l-3 1h-2l2-2m-4-14c1 0 2 0 2 2l-2 3-2-2 2-3m-16 137c2 0 3 1 3 2l-1 2-3-2 1-2m-15-103c4-3 7-1 6 4-1 4-1 4-5 1-3-2-3-3-1-5m-2 100c3 0 5 1 5 2l-3 2-5-2c-1-1 1-2 3-2m-10-42h-4c-1-2 0-3 1-3 3-1 5 1 3 3m-1-29c2 1 1 2-1 3-2 0-4 2-4 3s-1 2-2 2l-2-4c0-4 6-6 9-4m-11-12 6 2c2 1 2 1-1 1-3 1-6-1-6-2-2-2-1-2 1-1m-23 17 5-3-2 3-4 2c-1 0-1-1 1-2m-17 110 2 1-2 2-2-2 2-1m-9-21h2l-2 2-2-1 2-1m-20-43 2 2 1 5c0 6-4 4-5-2-1-3 0-5 2-5m2 44c6-2 10-2 10 1l-8 2h-8zm-17 16c1-3 2-3 4-1 4 2 4 3 0 4-5 1-6 0-4-3m-1 14 4-1c1 0 0 2-2 3-4 2-6 1-2-2m-7 62c-2 0-3-1-1-1 1-1 2-2 1-3s0-1 1-1c4 2 3 5-1 5m-6-126 4-2 2 2-4 2-2-2m-13 16 1 1-3 2-1-2 3-1m390-490h4c2 0 1 1-1 1s-4 0-3-1m-45 41c1 0 2 1 2 3 0 1-1 2-2 1l-2-3 2-1m-14 11c3-3 3-3 3 0l-2 4c-1 0-2 1-1 2s0 2-1 2l-2-2 3-6M983 409c1-3 8-3 8-1s-2 3-4 3c-3 0-5-1-4-2M820 563l3 2-1 2-3-2 1-2m-3-11 2 1c1 1 0 2-1 2l-2-2 1-1m-16 70c1-4 5-5 5-3s-4 6-5 6v-3m-23-9 2 2-1 2-2-2c-1-1 0-2 1-2m-8-12 4-1c2 1 1 1-1 1h-3m534-578 2 1-2 2s-2 0-3-2l3-1m-12 4c6-2 9 0 3 2-2 1-4 3-4 5 0 6-3 5-4-1-1-4 0-5 5-6m-12 9c2 0 3 2 2 3-2 2-4 1-7-1-3-3-1-4 5-2m-25 17 3 1-2 2-3-1 2-2m-13 5 3-2 1 2-4 1v-1m-40 43c2 2 3 2 7 0l6-2c1 2-13 7-16 5l-4-1-3-2c-1-3 6-3 10 0m-71 50c-1-1-1-2 1-3l2 2c0 3-1 4-3 1m0-7 3-2c2 0 2 1 0 2-4 2-5 2-3 0m-7 0 2 2c1 1 1 2-1 2l-2-2 1-2m-32 109c2-1 2-1 1 1l-2 2c-1 0-1-2 1-3m-19 18 4-3h3c1 1 1 2-3 4-7 3-7 3-4-1m-18 22v-4l1 1-1 3m0-18 2 1c1 1 0 2-1 2l-2-2 1-1m-10 5 2 1-1 2-2-2 1-1m-9-44c5-3 7-2 5 2-1 3-5 4-8 2-1-1 1-3 3-4m160-247 3 1c0 1-1 2-3 2l-2-2 2-1m-28 20h4c4 1 4 2-1 2-3 0-4-1-3-2m-59 45 3 2c1 1 1 2-1 2l-3-2c-1-1-1-2 1-2m-18 32c-2 1-2 1-3-2l2-4c2 0 3 4 1 6m-2-13c5-2 5-2 5 1s-5 4-7 1c-1-1 0-2 2-2m-5 20c1-1 1 0 1 1 1 2 0 3-1 3v-4m-32 28 5-3c1 0 0 2-2 3l-5 4 2-4m-48 45c-1-2 0-4 1-4s2 1 2 3c0 6-1 6-3 1m13-25 4-4v-4h3c2 2 2 3 0 5l-1 3c1 1-1 1-4 1-4 0-4 0-2-1m-20-11c1-5 2-5 4-2l3 2v-2l2-3c3-3 7-1 10 4 1 4-1 4-5 1-1-1-3 0-7 2-6 5-8 5-7-2m-4 16 3-2c1 0 2 1 0 3-3 3-6 2-3-1M801 458c-3 0-4 0-3-1h4c2 1 1 1-1 1m14 53-3-2c-1-1 0-2 1-2l2 2v2m1-211-4-2 4-2c2-1 3 1 3 2l-3 2m6 20v2l-2 2-1-2c0-1 1-2 3-2m-2-10c0-1 1-1 1 2l-1 2v-4m1-14-4-3c1-3 5-2 7 2 1 3 1 3-3 1m-1-17-2 2-3-1c0-1 1-2 3-2l2 1m3 138c-2 0-2 0-2-2l2-1 2 1-2 2m6 15c-4 2-5 2-3 0l4-1c2 0 1 0-1 1m16 71c-2 3-4 3-8 1-2-1-3-2-2-3s3 0 4 1l4 1h2m15-25-2-2 1-2 2 2c1 1 1 2-1 2m10-5c-2 0-3-1-2-2 1-2 5-1 5 2h-3m54-127-2-2 1-1 2 1-1 2m11-16-3 2c-1 0-2-1 0-3 3-4 5-3 3 1m45-49 3 1-1 2-3-2 1-1m-5 3c4 0 4 1 1 4-4 4-7 4-5 0l1-3 3-1m-3-93-3 1-1-1c0-1 1-2 3-2l1 2m16-19-5 1c-2-1-5 0-6 1l-4 2 2-3c4-3 13-4 13-1m-13-17c2-1 4 1 2 3-1 2-1 2-2 0v-3m-21-46c2-2 2-2 1 1l-2 2c-1-1 0-2 1-3m-11 73c3-1 3-3 2-5-1-3 0-3 2-3h6c3-2 3-2 0-4-2 0-2-1-1-1 12-2 16-4 16-8 0-5 3-6 5-2 1 2 0 4-2 5l-2 3-3 5c-2 2-4 4-3 5 1 2 0 2-3 2-3-1-5 0-6 2-2 6-8 9-12 6-2-3-2-3 1-5m17 12-1 2-2-2v-2c2 0 3 1 3 2m-15 12 3-3c3-2 3-2 3 0l-1 4c-2 1-5 1-5-1m2 7-2 1-2-3h2l2 2m-10-90 2 2-2 1-2-1 2-2m-17 11c1 1 2 2 1 3-2 2-3 2-3-1l2-2m-4 8 4 4-4-1-4-3h4m-3 66c2-5 5-8 7-8s3-1 3-3c-1-1-1-2 1-1 2 0 3-1 4-3 1-1 3-3 7-3 6-1 8 2 2 3-3 1-2 2 3 3 6 3 7 3 4 3l-8 3-6 3c-3 0-5 1-4 3 0 2-2 4-4 4-3 1-3 2-1 3 3 2 3 2 0 1l-8 2c-5 3-6-1 0-10m-7-12 2 2c0 1-1 2-2 1l-2-3h2m-6 50 3 2c1 1 0 1-2 1l-3-1 2-2m-8 100 3-4c0-2 1-2 2-2 3 0 7-4 9-8 1-2 3-2 5-2 3 1 4 1 3-2-2-2 1-5 8-10l9-9c0-3 8-10 16-13l5-5 8-9c7-6 10-8 11-6 1 3-3 10-11 17-3 2-5 5-4 7s0 3-2 3-5 2-6 5c-2 3-4 5-5 4s-5 3-8 8c-4 4-7 6-8 5h-4c-1 0-2 1-1 2l-9 9c-6 5-8 9-7 9 2 1 2 2 0 4-2 1-2 3-1 4s0 2-1 3c-1 0-2 2-1 3l-1 3c-2 2-5 2-5 0 0-1-1-2-3-2-4 0-6-10-2-14m-12-107 4 2c1 1 0 2-2 2s-3-1-3-2l1-2m-3 7 1 2-3 2-1-2c0-1 1-2 3-2m-1 117 3-4 2-2c5-3 7-1 2 2l-3 4c0 1-1 3-3 3-5 2-6 1-1-3m-5 33c-4 4-8 5-8 2l4-2c1 0 3-1 3-3 0-1 1-2 2-1 2 1 1 2-1 4m1-26c1 1 0 4-3 6-6 5-11 6-10 3l6-4 5-4c0-2 1-2 2-1m-15-66 2-2v2c-2 3-3 2-2 0m8-49 3 3h-3l-4-2c0-3 1-3 4-1m-10-59h4c2 1 1 1-1 1-3 0-4 0-3-1m-3 66c5-2 7-1 7 3 0 2-6 3-10 1-2-1-1-2 3-4m0 124c2 0 2-1 2-3-1-1-1-2 2-2 6 1 5 4-2 8s-12 4-7 0l5-3m-10-74 3 2-3 1c-2 0-3-1-3-2l3-1m-10-35c7 2 7 5 1 7l-5 2v-5c0-4 1-5 4-4m4 122c7-6 8-6 5-1-1 2-5 7-9 9-9 6-11 6-7 2l11-10m-12-171-2 2-2-2 2-1 2 1m-6-12c5 1 5 2 1 2l-4-1c-1-1 0-1 3-1m-3 14 3 2h-3l-4-1h-2c0-3 1-3 6-1m-5 75 4 2-1 1-4-1 1-2m-15 11c3-1 5-3 5-5l3-3c2-1 2 0 2 2-2 4-12 11-13 10s0-2 3-4m-20 140c3-1 3-1 1-3l-2-3 5-3c2-1 5-3 5-5s4-5 7-6c3-2 5-4 4-5 0-2 1-3 4-3 6 0 11-5 10-9-1-2-1-3 2-2 2 0 3 0 3-2s1-1 2 0c3 2 1 9-2 8l-7 5c-5 4-5 5-3 8 2 4 2 7-1 7-1 0-2-1-1-3 2-3-4-3-8 1-2 1-3 4-2 6s1 3-1 2h-6c-4 1-3 2 0 4 3 1 3 2 2 2l-5 1c-2 0-3 1-2 3 0 4-1 4-5 1-3-2-3-3 0-4m-14-177 5-2 3 1-4 2-4-1m5 213 4 3c0 2-1 1-4-1-3-3-3-3 0-2m-5 62c0-2 1-1 1 1l-1 2v-3m-9-42-3 1v-1l2-2 1 2m5-41c-1 3-5 4-5 2l4-4c3-2 3-2 1 2m-4-65 4 2-1 2-4-2 1-2m-4-48 3 2c-2 3-5 2-6 0s0-2 3-2m-2 134c2-3 4-3 7 0 4 2 4 4 1 4l-2-1c0-1-2-2-4-1s-2 0-2-2m-7-194 3 1-1 2-4-2c-1-1 0-1 2-1m-4 209 3 1-1 2-2-1v-2m0 27-2 2c-2 0-2-1-2-2s0-2 2-2l2 2m-6-34 2 2c1 1 0 1-1 1l-2-1 1-2m0 78c3-2 5-1 3 2l-3 1c-2-1-2-2 0-3m-1 13 3 3c3 4 3 4-1 1-2-2-3-3-2-4m-12 3-2-2 2-2c1-1 2 0 2 1 0 2-1 3-2 3m4-76c2 0 3 3 2 12l-2 3-1-8c0-4 0-8 1-7m-5-89c2-1 4 1 2 3-1 2-2 2-2 0v-3m-4 76 3-4 2 4c2 5 0 8-4 5-2-1-3-2-1-5m-4 19 2 2-1 2-2-2c-1-1-1-2 1-2m-14 90c2-2 4 1 3 6l-1 4-2-4c-2-3-2-5 0-6m-10 14c1-2 3-3 5-3 4 0 4 0 0 5-3 4-7 2-5-2m-1 14-5 5 1-3c1-4 4-5 4-2m-6-15 2 1-1 2-2-2 1-1m-328 94-3 2c-1 0-2-1-1-2l3-1c2 0 2 0 1 1m11 8 1-3 2 4c0 4-2 3-3-1m3-4-2-2c0-2 3-4 5-3s0 4-3 5m2-11-1-1 4-2 1 2-4 1m6 16-2 1-1-1 2-2c1 0 2 1 1 2m5 100c5-2 15-4 15-2s-3 3-11 3c-5 0-7 0-4-1m7-96c-6 3-8 2-4-1 2-1 4-2 5-1 1 0 1 2-1 2m2 77-2 2-1-2 2-2c1 0 2 1 1 2m-3-66 2 4c-3 1-5 1-6-2-2-4 0-5 4-2m20 118c-3-2-4-4-3-5h2l4 2 3 2c0 1 2 3 4 2 2 0 4 1 5 3 0 2-1 3-6 4l-7 1-6-4c-4-3-4-3 1-1 7 3 9 0 3-4m8-126c2 0 2 1 2 2-2 2-4 2-8 0-3-2-3-3-1-4 3-3 7-3 5-1-1 1 0 2 2 3m15 74c0 2-2 1-3-2-1-1-1-2 1-1l2 3m-3-42 2-2 2 1-2 2-2-1m4 51c1 3-3 8-5 5l-1-5c1-5 5-5 6 0m-13-74c-2 0-1-2 1-3l6-6c1-2 1-2 1 1 1 3-5 8-8 8m3 61-2 2-2-2 2-2 2 2m-21 193 2 1-6 2c-5 0-6-1-4-2s2-2-1-4c-4-2-4-2 0-7l9-7c4-2 4-2 4 0s-1 3-3 3-3 1-3 2 3 2 8 1l8-1-9 6c-4 3-7 6-5 6m-42-98c-3-2-2-2 3-2s5-1 4-3c-2-7 10-12 16-7h5c2-2 4-2 5-2l-2 2-6 3-5 1c-2 4 3 7 12 8l9 1c0 3-3 7-5 7v-3c1-2-1-3-5-2-3 0-8-2-11-4l-5-4v5c0 3-1 4-4 5l-5 1c0 1-1 2-2 1s-2-2-1-3c0-2-1-3-3-4m8-26 2 2-1 1-2-1c-1-1 0-2 1-2m5-9-2 2-1-2 2-1c2 0 2 0 1 1m2 15v2c-2 0-3-1-3-2l1-3c1 0 2 1 2 3m6-21 3-2c3-2 3-2 3 1s-1 3-3 3l-3-2m13 34 2 1-2 2-2-1 2-2m12-8c-5 2-7 1-4-1 1-2 4-2 5-1 2 1 2 1-1 2m6 12-2 2-4-2c-1-1 0-1 2-2l4 2m2 85c-1-1 0-2 1-2l2 2-1 2-2-2m-4-46 2-2c1-2 4-2 6-2 4 1 3 2-8 4m3-44c2 0 3 1 3 2l-1 1-2-1v-2m-9-83-3-4c-2-5-1-5 2 0 2 2 2 4 1 4m-2 66c4 0 4 0 0 3-5 5-6 5-5 1 0-2 2-3 5-4m-24-121c2 0 3 0 2 1l-5 1 3-2m-5 69c2-1 4 1 2 3s-2 2-3 0l1-3m2 18c3 0 3 1 2 3-2 1-2 2-1 4 0 1 0 2-3 2-2 0-3 1-3 2s-2 2-5 2l-6-2 4-1c2 0 4-1 4-4 0-5 4-8 8-6m-13-71c3 0 5 3 3 4-2 2-5 1-5-1s1-3 2-3m-1 53 2 2-1 1-2-1c-1-1 0-2 1-2m-2 6h5c1 0 1 1-2 1l-3-1m-5 13h7c2 1 0 1-3 1-4 0-5 0-4-1m-2 48-2-4c2-4 4-3 5 2 0 2-1 3-3 2m-18-119c0-1 1-2 3-2l6-3c3-2 5-3 7-1s2 2 0 2-2 1-2 2c1 1 1 3-1 4-3 3-13 2-13-2m12 16c2 0 4 0 4-2h1c2 1-1 6-3 6l-4-2 2-2m-3 54c5-4 5-4 2-6-4-1-4-1-1-2 5 0 8 5 4 8-3 3-2 11 2 12l-2 1c-5 0-7-1-9-4-2-4-2-5 4-9m4 50h-3l-4-2c0-3 1-3 3-1l4 3m-16 40c2 5-1 7-5 4l-2-6c1-1 1-3-1-5-3-3-1-4 3-1 2 1 5 3 8 3l4 3h-5c-3 0-3 0-2 2m-3-29c-1-1 1-2 4-2 5 0 5 2 0 5-3 1-4 3-4 4 0 2 2 3 4 4 5 1 6 4 0 3-2-1-5 0-5 1-2 2-3 1-5-1l-3-4 5-5c3-1 5-4 4-5m13 68v4c-2 2-8 2-8-1 0-2 6-4 8-3m-3-58-2-1 2-2 3 1-3 2m-10-76 6-2c4 0 4 0 0 2-5 3-8 3-6 0m3 28c0 2-9 1-10-1-1-1 0-2 1-2 4 0 9 2 9 3m-12-23c2-2 4 1 2 3-1 2-2 2-3 0l1-3m-4-15 3 1c0 1-1 2-3 2v3c1 2 0 4-1 4s-3-2-3-4 2-5 4-6m-1 13 2 2-2 1-2-1c0-1 0-2 2-2m-3 76c3 2 1 5-3 4l-4-2c0-1 6-3 7-2m-5-18 6 2c2 2 3 3 1 3s-5-1-6-3c-3-2-3-2-1-2m5 35c2-2 3-3 4-2 4 3 1 8-3 7-3-1-3-2-1-5m-3-85 2 2c-1 2-5 1-5-1 0-1 2-2 3-1m-4 16c4 0 5 1 4 3l-1 4-4-4c-4-3-4-3 1-3m7 15c4 2 4 2 0 2l-8-2c-8-5-1-5 8 0m-17 37h4c2 0 1 1-1 1l-3-1m0 46 4-2c7-1 7-1 3-4-4-2-4-2 0-4 2-1 3-4 3-5 0-2 3-3 7-4 6 0 6 0 6 3-1 1-1 3 1 3l2 1c0 1-2 2-4 1s-4 1-5 4c-3 6-19 13-17 7m21 45 5 1-4 1c-3-1-4 0-4 2 0 3-1 2-3-1-2-2-3-5-2-6s1-1 2 1l6 2m-39-156 2 1c1 1 0 2-1 2l-2-2 1-1m-1 77c2 1 5 0 6-1 2-1 3-1 5 1l-1 3-5 5-4 4c-2-1-2-2 0-3 3-3 3-5-1-5-2 0-3-1-3-2 0-2 1-2 3-2m3 37-4 1-1-1 4-2 1 2m-14-84h5c2 2 2 2-2 2s-5 0-3-2m-15 39c1-2 3-2 7-2 3 1 5 1 5-1 0-4 3 0 3 5 1 4 1 4-2 2-2-3-4-3-8-2-5 3-7 2-5-2m2 10c6 0 7 2 2 4-2 0-3 2-2 4s0 3-1 3c-2-1-3-3-4-6 0-4 0-5 5-5m-11 13c-1 3-3 5-4 5l1-5c1-6-1-6-8 0l-4 2c0-1 0-2 2-2 1 0 2-1 2-3 0-1-2-2-3-1l-4-1-2-1c-1 1-2 0-3-2-1-3 0-3 2-2 3 2 9 1 15-1 4-2 5-2 4 2-1 3 0 4 2 4 3 0 3 0 0 5m5 4c3-3 4-4 6-2 2 3 0 6-5 6-4 1-4 0-1-4m4 14c2-3 5-4 9-2s6 11 4 11-3-1-3-3-3-3-5 0c-3 3-8-2-5-6m11 22c2 1-3 6-5 6l-3-2c-1-1 0-2 2-2s3-1 3-2c-2-3 2-8 5-7 1 1 1 2-1 3l-1 4m-5 40c-1 0-1-1 1-3l3-2c2 1-1 5-4 5m-2-10c3-3 3-2 1 2 0 2-2 3-2 2l1-4m-1 25c4-3 5-7 2-7l-2-1c0-1 1-2 3-2s3 2 7 13c0 1-1 2-3 1h-7c-3 0-3-1 0-4m6 12c-4 2-7 2-5 0l5-2c3 0 3 1 0 2m-50-60-2-2c0-1 2-2 6-2 3 0 4 1 2 1s-4 2-4 3h-2m6 27c7-3 9-9 7-12-2-1-2-2-1-2l-1-5c-1-3-1-6 1-8s2-2 5 0c2 1 4 3 6 2s3 2 4 5c1 2 2 4 3 3l2 1-2 2c-1 0-4 2-6 6s-4 6-5 6l-6 2c-2 1-4 3-7 3-4 0-4 0 0-3m16 141c-1 3-1 3-4 0-2-1-2-3-2-4 2-2 8-2 8 0l-2 4m5-45c-4 2-4 2-4 0l4-2c3 0 3 1 0 2m13-42h-6l-4 1 3 2 6 2-6 2-9 4c-4 1-4 4-1 4 3 1 1 7-2 7l-3-3-5-2c-2 0-3-1-2-2s0-3-1-5c-3-3-2-4 2-6l4-5c0-3 5-5 8-2 2 1 4 1 6-1 4-3 14-2 14 1 0 1-2 3-4 3m12 24c-2 3-4 3-8 0v-2l4 1 3 1h1m3-38-3-3c1-2 4-1 4 1 1 1 0 2-1 2m-2-102c-2 1-3 0-5-1v-4l1 1 4 2c3 0 3 0 0 2m6-11c0-2 0-3-2-4-2 0-3-2-3-3 2-2 7 2 9 7 1 3 0 4-2 4-3 0-3-1-2-4m7 106c-1 2-2 3-4 3s-2-1 1-3l4-4-1 4m2-76-5-4c2-3 7-2 9 1 2 5 1 5-4 3m3 73c-1-1-1-2 1-3 3-1 5 0 3 2l-4 1m5 12-3-2c1-1 2 0 4 1 2 2 2 2-1 1m-5-18-1-1 5-4c4-1 5-1 5 1s-3 3-9 4m8-155-2-1 4-2 2 2-4 1m9 136c-2 0-4 0-3-1h4c2 0 1 1-1 1m9 44c-2 0-3-1-3-3l1-3 3 3c2 3 2 3-1 3m6-17-6 1c-4-1-4-1-1-2 3 0 4-2 3-3-1-2 0-2 2-1 2 0 3-1 3-2 0-3 6-4 7-2l1 5c1 3 0 4-3 3-2-1-5 0-6 1m6 17 1-2 2 2c1 1 0 2-1 2l-2-2m7 18c-2 2-5 1-5-2l2-2c3 0 5 2 3 4m1-84-6-1-4-1c0-2 1-2 7-3 7 0 8 1 7 3 0 2-2 3-4 2m3 6c-1 0-1-1 1-1l3 1c1 1 1 2-1 2l-3-2m4 23-3-3 3 1 4 2h-4m14 66-4 3c-3 0-3 0-1-2l4-3c1 0 2 1 1 2m1-99c-2 7-3 9-5 9s-2-2-1-4 0-3-1-3l-3 2-2 1c-2 0-2 0 0-2l1-3c-1-1 0-2 2-2l6-1c3 0 3 0 3 3m1-78 3 1c2 1 2 1 0 2-3 2-6-1-3-3m-1 16h4l9 1c5 0 5 0 2 1-6 2-15 1-15-2m9-9 3-1h3c0 1-1 2-3 2l-3-1m5 61-2 1-2-1c0-1 0-2 2-2l2 2m-10 50c0-2 1-3 3-3s2 1 2 4c-1 3-5 3-5-1m6 56c-1 0-2-1-2-3 0-3 4-3 5 1 0 2-1 3-3 2m-1-24c0-1 1-2 4-1 4 0 4 1 2 2-4 2-6 2-6-1m10 16-4-4 3 1 4 3h-3m14-3c-2 0-3-1-3-2l2-2c2 0 3 1 3 2l-2 2m2-6h-3c0-1 1-2 3-2 1-1 2 0 2 1l-2 1m-18-47c-2 0-1-1 2-3 6-2 7-2 13 0l6 3h-21m6-23 2-2 2 1-2 2-2-1m9-89c0-1-2-2-6-2s-7 1-7 2l4 1 3 1 2 4c1 3 1 3-2 1l-8-6-8-3c-7-2 0-5 9-3h10c2-2 4-2 5 0 2 2 4 2 5 2h2l1 3c1 1-1 2-4 3-4 0-6-1-6-3m12 139 8 2c3 4 0 4-7 0-5-2-5-2-1-2m1 25c-3 0-4 0-3-1h4c2 1 1 1-1 1m14-10c-3-1-4 0-5 3 0 4-3 5-6 2-2-2-2-3-1-4 2-1 2-3 1-5-1-3 0-3 1-1 2 2 4 3 7 2l5 1c1 1 0 2-2 2m22-11c-3 1-6 2-7 1s-3 0-3 1c0 3-4 3-6 0 0-1-2-1-3 1s-2 1-3-1 1-5 7-9c4-4 8-7 7-8l2-1c3 0 3 3 0 6-2 1 0 2 3 4 6 3 6 3 3 6m-3-64c2-2 3-2 3-1 0 3-3 5-4 3l1-2m11 45-3-3 3-2c2-1 3 0 3 2s-1 3-3 3m4-157-4 1c-2 0-3-1-2-3 1-4 0-4-5-2-4 2 1 10 5 10 3 0 3 1 1 4-1 2-4 3-6 3s-2 0-1-2c2-2 2-3 1-4-1 0-3-2-3-4l-1-3c-4 0-3-10 0-11 2-1 3 0 3 1 0 2 2 2 3 2 2-1 11 6 9 8m-8-14c-1-1 0-2 3-3 6-2 7-2 6 2-2 3-7 3-9 1m14 107-2 2-1-2 2-2c1 0 2 1 1 2m-2-162c-2 0-3 1-3 2s-1 2-3 2l-2-2c0-3 6-9 8-9 4 1 4 7 0 7m4 22c2-2 6 1 6 5 0 2-1 2-4-1-3-2-4-3-2-4m4 113c2-2 4 1 2 3-1 2-2 2-2 0v-3m5 68-3 1c-1 0-2 0-1-1l3-2c2 0 2 1 1 2m1-51-4-2 1-2 4 2-1 2m-3-102-2-3c1-2 5 1 5 3h-3m0-14c-2 0-3-1-3-2l3-1c2-1 3 0 3 1s-1 2-3 2m4-20c-2 2-3 2-3-2 0-1 1-2 2-1s2 2 1 3m0-68c-3 3-9 1-12-2-1-1 0-3 1-4 2-2 3-1 2 0 0 2 1 3 5 3 7-1 8 0 4 3m-6-60c0-2 1-1 1 1l-1 2v-3m15-53c3 0 11 6 11 9l-4-2c-5-5-10-3-8 3 1 4 1 4-1 0-2-3-6-7-9-8-3-2-3-3-1-2l4-1c0-3 7-6 11-4 2 2 2 2-1 1-2-1-4 0-4 2l2 2m6 138v-4c1-3 0-5-1-5-5-3-3-4 3-3 3 1 5 3 5 5s0 2-2 0-2-2-2 1-2 6-3 6m1 11-2 2-3-3c0-1 1-2 3-2 1 0 2 1 2 3m-6-116c2-2 3-2 4 0v3c-4 2-7 0-4-3m-11 11c2 0 2 1 1 2l-2 2-1-2 2-2m1 54c0-3 1-3 3-1l4 3h-4c-2 0-3-1-3-2m6 14c0-2 2-2 5-2 3 1 2 2-6 4l1-2m5 245-1-2 2-1 1 1-2 2m5 7-3-2 1-1 3 1-1 2m4-164-1 2-3-2v-3l4 3m-1-13v-2l3 2-1 2-2-2m-1 23c-3 2-5 2-6 0-1-1 0-2 2-3 6-3 9 0 4 3m-5 32 4-1c3 0 4 1 3 2s-7 1-7-1m11 122c-2 0-3-1-3-2l2-2 3 2c1 1 0 2-2 2m4-87-2-2 2-1 3 1-3 2m-1-82-2-2 2-2c1-1 2 0 2 2s-1 2-2 2m2-12v-2c1-1 2-4 1-5h1c3 2 1 7-2 7m8 86-5 3c-1 0-1-1 1-3l4-2c2 0 1 1 0 2m1-93c1-7-6-8-15-3-6 3-7 3-10 1-4-2-4-2-1-4l9-2c4 0 6 0 5-2 0-1-2-2-4-1l-4-1c0-2 4-6 5-6 5 0 6-1 8-4 1-3 4-5 6-5 3 0 4-1 3-2 0-2 0-3 2-3s3 1 3 3l2 7c2 5 2 5-3 1l-6-2c-1 1 1 3 3 4 4 2 4 2 0 3-4 2-5 5 0 5 3 0 6 5 4 6l-4 4c-1 4-4 4-3 1m-11-196c1-1 3-2 5-1 3 1 3 1 0 2-5 2-7 1-5-1m-3-16c-4 0-4 0-2-3 3-4 6-3 6 1l-4 2m29 94 2 5c1 2 0 3-2 3l-4-2c0-3 4-8 4-6m-4-50 4-2 2 2-4 2-2-2m6 116c6-1 8 2 3 3-4 2-5 2-8-1-2-1-3-2-5-1s-1 0-1-1c-1-1 1-2 3-2l3 2h5m18-84-4 2c-7 2-7 2-6 0s10-4 10-2m-10-39c0-1 1-2 3-2l2 2-2 2c-2 0-3-1-3-2m14 29h-3c-2 0-3-1-2-2 1-2 5 0 5 2m-5-21 1-1 2 1v2c-2 0-3-1-3-2m12-66 2-2 2 2-2 2-2-2m1 8v-3c0-2 1-1 1 1s0 3-1 2m10-46-2 2-1-2 3-1v1m3 43c2 0 2 2 0 4-2 1-2 1-2-2l2-2m-4 24c-1 1-3 0-4-2l-2-5c2-1 7 5 6 7m-7 62c-6 1-7 1-7-6l-1-6 5 3c6 5 7 7 3 9m-6 52c2-2 2-2 0 2-3 6-7 5-7-1 0-3 2-5 3-5l1 4c-1 2 0 2 3 0m0 46 2-1c2 0 4 0 4-2 1-2 1-2 5 0 3 2 4 4 3 7-2 4-2 4-6 2h-8c-3 0-3 0-1-2 2-1 2-3 1-4m3-14 3 2-1 1-3-1 1-2m12 146-7-1 2-4c1-2 2-2 7 0 8 3 7 4-2 5m-1 7-3-2c-1 0-1-1 1-1l3 1c1 1 1 2-1 2m-4-37c1 0 3 2 3 4l1 11c2 9-2 6-4-4-2-12-2-11 0-11m-2-86c0-2 4-3 6-1l-2 2-4-1m0 152-2 2-2-1 2-2 2 1m-13-153c-5 0-5-1-3-2 1-2 3-2 6-1 5 2 5 3-3 3m2-102-2-2 1-1 2 1-1 2m-8 94c-2 0-3-1-3-3l1-2 2 2v3m-5 1c2 1 2 2 1 2-2 0-3 1-3 3 0 1-1 2-2 1-1 0-2-1-1-2s0-3-2-6-2-5 0-6 3-1 3 2c0 2 2 5 4 6m-22-90c1-1 2 0 3 2s1 2-2 1l-1-3m2-46c-1 2-2 2-4 1-1 0-1-1 1-2 2-3 5-1 3 1m-5 64c-2 0-4-2-4-3 0-2 0-3 1-2l3 3c3 3 3 3 0 2m0 63c1 1 0 1-3 1l-5-1c-1-1 0-2 3-2l5 2m-6 3c2 0 3 1 2 3l-3 2-2-2c0-2 1-3 3-3m-4-30 1-2 3 1-1 2-3-1m12 80c-2-2-2-2 1-1l4 2c0 2-2 2-5-1m3 72 5-3c5-2 5-2 2 0-3 3-7 4-7 3m8-83 3 2c1 1 1 1-1 1l-3-1c-1-1-1-2 1-2m1 125c-5-3-5-4 1-4 4 0 5 1 5 3 1 4-1 4-6 1m1-141c-4-1-5-2-3-3 4-2 11 0 11 3s0 3-8 0m12 10c-2 3-5 3-6 1-2-2 1-5 4-4 2 1 3 2 2 3m-2-15-2-2c2-2 9 1 9 2s-2 2-7 0m11 174-3-2 1-2 2 2v2m2-32c2-1 4-2 5-1s1 1-2 2c-6 2-6 2-3-1m12 18c-2 2-3 2-6-1-3-2-3-2 2-2 5-1 7 1 4 3m13-7-2 2-1-2 2-2c1 0 2 1 1 2m-2-10-6-4-1-5c0-2 0-5-2-6-3-3-3-3 0-3s11 11 9 12c-1 1 0 3 1 5 3 3 3 3-1 1m1-158c-1 0-2-2-1-3l2-3 1 3-2 3m9 12 3 1c2 1 3 3 2 4-2 1-5-2-5-5m6 146-2-1 2-2c1-1 2 0 2 1l-2 2m5-21c-4 0-5-1-5-3 0-3 1-4 4-4 2 0 4 2 5 3 1 3 0 4-4 4m0-170c-4 0-6 11-2 12 1 1 1 2-1 2-1 0-2 1-1 3 2 6-5 9-14 6l-8-1c-2 1-3 0-2-1s1-3-1-4-2-2 1-6c3-6 1-10-3-5-1 2-2 3-3 1h-6c-7 3-8-2-1-8 5-3 6-4 8-2 1 2 2 2 4 0 2-3 4-3 13-2 14 1 17-1 15-6-2-3-2-4 1-4 1 0 3 1 3 3s1 3 4 2c3 0 4-1 4-2-1-1-1-2 1-3l2 2c0 4-10 13-14 13m-15-96 4 1-4 2-5-1 5-2m-5-51c2-1 6 1 6 3h-3l-3-3m10 103 4 2-4 1-5-1c0-1 2-2 5-2m1-6v-3c2 0 4 2 5 4 3 4 3 5-1 4l-2-2c0-1 0-2-2-3m7 17c1-1 2 0 2 1l-6 1 4-2m0-74-2 2-1-2c0-1 1-2 3-2v2m-9-59c-4-5-4-6 1-6l5-2 2 3c3 10-2 13-8 5m0 6c2 2 1 2-2 1l-2-2 4 1m-6-18c-3 3-7 2-5 0l5-2c2 0 2 0 0 2m35 273 3 2-1 1-3-1 1-2m-3-87 1-1 3 1v2l-4-2m7 93h2l1 3c1 2 1 3-2 2l-3-3 2-2m-1-115c-1 1-2 1-4-2s-2-4 2-7c7-6 12-7 12-3 0 5-4 12-6 11l-4 1m7-105-5 1c-2-1-5 0-6 1s-2 1-2-1c-1-2 0-4 1-5 3-2 14 1 12 4m-8 73c6 2 7 3 3 3-2 0-6-1-8-3-5-4-4-4 5 0m-7 8h-3c-3 0-5-1-5-2 0-3 0-3 3-1l5 3m-8-15c0 1-2 2-3 1v-3h3v2m2 67c1-3 1-3 3 0 2 2 2 4 0 5-4 1-5-1-3-5m6 166-2 2-2-2c-1-1 0-2 2-2s3 1 2 2m8-67c-1-1-4 1-5 4-2 5-3 6-5 4-1-2 0-5 2-8 4-5 11-6 11-2 0 1-1 2-3 2m5 69c-2-3 0-5 4-3 2 0 3 2 2 3-1 4-4 4-6 0m-5 22 2 1-1 2-2-2 1-1m-1 34 2-2 4 2-2 1-4-1m7 90c-3 0-4-1-3-4l2-3 3 3c2 3 2 4-2 4m0-20h6c3 1 3 1 0 3-3 1-8-1-6-3m5 26c-1-1 0-2 1-3l3-1c0 3-3 5-4 4m5-98c-3 3-5 4-5 3l4-3c3-3 4-2 1 0m6 71-3 2c-2 0-2-1-1-2l3-1c1-1 2 0 1 1m16-137c3-2 4-2 5-1 2 3-3 7-5 5v-4m2 20-1-2 2-2c1 0 2 1 1 2l-2 2m3 26c-1-1-1-2 1-4s2-3-1-4c-2-1-2-1 0-1l3 1c2 2-1 9-3 8m7-44c-2 0-3 0-2-1l4-3c1-1 2 0 2 2l-4 2m4 62c0-1 1-2 3-2l2 2-2 1-3-1m4-119c2-1 3 1 2 4l-4 4c-2 0-3-1-2-3l1-4 3-1m-2-12c2-3 3-3 3 1 0 2-1 4-2 3s-2-2-1-4m1 23 4 3c1 3 8 3 10 0 1-1 0-2-2-4-4-2-4-2 0-2s5 1 6 3c0 2 0 4 2 4 1 0 2 1 2 3 0 3-3 5-5 2s-11 0-9 3c0 1 0 2-1 1l-2-3c0-1-1-3-3-3-1 0-2 0-1-1l-1-3c-2-2-2-3 0-3m21-65 1-4h3c2 1 2 2 0 4-3 3-3 2-4 0m4 46-3 2v-2l2-1 1 1m-3-37h-4c-1-1-2-2-1-3 2-1 6 1 5 3m-8 70 4 3c0 1-2 0-5-3s-2-2 1 0m-1 39-4 2v-2l3-2 1 2m-13-26c1 1 0 3-1 2v-3c1-2 1-1 1 1m12 185c-4-1-4-2-2-3 3-1 6 0 6 2l-4 1m10 16-3 2-1-2 3-2 1 2m2-10c-2 3-2 3-5 1-3-3-3-3 0-5h4l1 4m-1-70c-2 0-5 3-7 5-2 3-5 5-7 5l-5 2c-3 4-3 2-1-2 1-3 5-5 8-7 4-1 7-4 8-7 0-3 2-4 5-4 2 0 4-1 3-2l4-1c4-1 4 0-2 4-3 3-5 5-4 6s0 1-2 1m7-173c1 1 2 2 1 4-2 3-3 3-3-1 0-2 1-3 2-3m1-53c1 0 2 1 2 3 0 4-2 4-4 3-2-2 0-6 2-6m-2 314-2-1 2-2 3 2-3 1m2-21c-5-1-5-5 0-8 4-3 4-3 7 1 4 4 3 10-1 9l-6-2m12 16c-5 0-7-1-7-2 0-3 12-3 14 0 0 1-1 2-7 2m19-14c-2 2-3 2-3 0 0-5-4-3-7 2s-4 5-7 3c-2-1-2-2 2-4 3-1 5-3 4-4-1-3 7-5 11-2 3 3 3 4 0 5m-18-23c2-2 3-5 3-7-2-4 0-4 5-2 4 2 11-3 11-7l2-2c4 0 5 4 2 6l-1 4c1 1 0 4-2 7-2 5-8 7-13 4h-6c-4 1-4 0-1-3m2 11 3 4c-1 2-7-3-7-6l4 2m-8-174-2-2c0-1 0-2 2-2s3 1 3 2l-3 2m3 5h5c2 1 1 1-2 1s-4 0-3-1m6 81-2-2 2-1 2 1-2 2m2-136c-2 1-10 1-10-1l5-1c3 0 5 1 5 2m-11-18c1-2 4 2 3 4-1 3-1 2-2 0l-1-4m9 12c-4-1-5-2-3-2 5-1 10 1 10 3l-7-1m11-26c0-1 1-2 2-1l1 2c-2 3-3 2-3-1m6 12h5l-4 4h-5l4-4m-2 40c-2 0-3 0-2-1l3-2 2 2-3 1m8-9h-3c0-2 4-3 5-1l-2 1m-2-18c-7 0-9-1-8-3 0-1 1-2 2-1s3-1 6-3c4-3 5-3 6 0 4 6 3 7-6 7m4-25c3 2 4 3 1 3l-3-2c-1-1 0-1 2-1m-3-64c3-2 8 0 6 2l-4 1c-2-1-3-2-2-3m7 169-2-2 2-2c2 0 3 1 3 2s-1 2-3 2m5-87-3-2 1-1 3 1-1 2m4-11c-3 1-6-1-6-3s2-2 5-2c5 1 5 3 1 5m3 47c-1-1-1-2 1-1l2 2c0 3-2 2-3-1m2-129c-2-1-3 0-3 1l-1 2-1-3c0-2 1-3 4-3l4 2-3 1m7 123-2-1 2-2 2 2-2 1m0-23 2-2c1-2 2-2 2-1 0 3-2 5-4 3m11-27c-1 3-5 4-5 1l3-2c2-1 3 0 2 1m-1-213 3-1c2 1-1 4-4 4-1 0-1-1 1-3m1 12c3 1 3 2 1 3-4 2-4 2-4-2 0-3 0-3 3-1m-22 9 6-1c3 1-2 4-6 4-3 0-2-1 0-3m-5 35c1 0 2 1 2 3s-1 2-2 2l-2-2 2-3m-36-7c1-1 2 0 2 1l-1 3-1-4m-18 17c1-1 2-2 3-1 2 1 1 4-2 4-1 0-2-1-1-3m-7 114c5-4 9-9 9-10l7-7 6-6c0-1 1-2 2-1 2 1 21-13 21-16 0-1 1-2 3-2l2-2c0-3 15-14 21-15 2 0 4-2 3-3-1-3 10-7 13-5 1 1 0 3-3 4-2 1-4 3-3 4 1 2 0 3-5 2-6-1-7 0-5 2 1 2-1 5-11 13-7 6-14 10-16 10-3 0-6 3-3 6 3 4 2 6-3 5-4 0-5 0-5 2 0 1 1 3 3 3 2 1 3 2 3 4s0 2-3 1c-3-2-10-1-10 3s5 9 7 8c1-1 2 0 2 2s1 2 3 1c1-1 3-2 5-1 2 0 2 1-1 4-4 4-5 4-11 0-2-1-4-3-4-5 0-3-6-2-8 2-1 5-6 3-6-4 0-2 0-5-2-5-1 0-2 1-2 3s-1 2-3 2-3 1-3 3-10 9-12 7l9-9m-9-14 2 2c1 1 0 1-1 1l-2-1 1-2m-12 29 9-2c2-2 2-2 1 0-1 1 0 2 2 3 5 1 2 4-4 3-3-1-5 0-6 2l-3 3v-3c1-2 0-4-1-5-2 0-1-1 2-1m-11-13c5-1 8 2 5 4-2 1-2 1-6-2-3-2-3-2 1-2m-6 12c1 0 2 0 1 1l-2 2-1-2 2-1m-3 22c1-2 3-5 3-8 1-6 1-7 6-4 3 1 4 3 3 4 0 2 1 2 5 2s6-1 8-4c2-4 3-4 6-1 3 2 4 3 2 4h-4l-4 2c-2 2-2 3 1 3 7 0 8 1 4 5-2 3-2 5-1 5 1 1 0 2-2 1-2 0-3 1-3 3l-1 3c-3 0-3-7 0-8 3-2 2-5-4-7-4-2-5-1-5 2v9l1 6c-2 2-5-4-4-6 1-1 0-1-1-1-3 0-2-7 1-9v-3c-1-1-3-1-7 1-5 3-6 3-4 1m9 22c-1 2-2 3-3 2s0-2 2-3 2-1 1 1m-7-11 4 2h-4l-3-1c0-1 2-2 3-1m-6 10h4c1 0 1 1-2 1l-2-1m-1 49 6 2c1 1 6-1 9-4 6-5 6-6 4-8-3-2-2-8 1-8 2 0 2 1 1 3-1 1 0 4 2 6 5 4 3 14-4 12l-5 2c-2 2-2 3 0 5l1 4c-1 1-2 0-3-1-3-3-11 1-11 6s-3 8-7 8c-3 0-4 1-3 3v5c-2 3-7 2-7-1l-4-6c-2-1-2-3-1-3 3 0 4-6 1-7-2-1-2-2-2-3h3c1 1 3 2 4 1 2-1 3 0 4 1 2 3 6 1 5-2s0-4 6-5l8-2c3-3-11-6-15-3-2 1-3 0-4-2 0-2-3-3-5-3-1 0-3-1-2-2 1-3 6-4 6-1 0 1 1 3 3 3s3-2 3-3l2-3c1 0 2 1 1 3 0 1 1 3 3 3m-13-55 6-4c1-2 1-2 4-1 2 2 2 3-4 5-4 2-8 3-9 2l3-2m0 5 2 3-2 2-4 6c-3 8-6 8-5 0 1-6 5-11 9-11m1-302 5-2c3 0 3 0-1 2-5 4-5 4-4 0m8 62c-2 3-4 3-2 0 0-2 2-3 2-2v2m24-27 1-2 2 2c1 1 0 2-1 2l-2-2m9 48h-2l-2-2c0-1 1-2 2-1l2 3m-3-151c0-4 4-2 5 1 1 2 0 3-2 2-2 0-3-2-3-3m-3 87c0-2 0-3 1-2l2 3c0 2-1 2-3-1m3 86-3-4c0-4 4-1 5 3s1 4-2 1m4-11c-1 2-5 1-5-1 0-1 2-2 3-1l2 2m-2-121 1-3 3-1c0 3-2 5-4 4m8 123-2-2 2-2 2 2-2 2m-1-192h5c2 1 1 1-2 1s-4 0-3-1m9 194c-2 0-3-1-2-2 1-3 4-2 5 0s0 2-3 2m3-96c-2 3-4 2-4-1 0-1 1-2 2-1 2 0 2 2 2 2m-12-132c4 0 5 0 2 1-4 3-6 3-6 0l4-1m-11 16c2-3 4-4 6-4h4l5-1c3 1 3 0 2-4-1-2 0-4 1-4 6 2 3 9-5 13l-9 8c-1 2-2 3-3 2-2 0-2-2-1-4 1-1 0-2-1-1-4 2-3 0 1-5m-9-47 2 2-2 2-2-2 2-2m1 50c1 0 2 0 1 1l-2 2-1-2 2-1m-3-4-3-1 1-2 3 2-1 1m-1-25 3 1c0 1-1 2-3 2l-3-1c0-1 1-2 3-2m-3 33h3c0 2 1 3 2 2s4 1 5 3c4 3 2 8-2 7-1-1-3 0-4 2l-2 4-1-2c1 0 1-4-1-7v-9m2 96 2 2-2 1c-2 1-2 0-2-1s0-2 2-2m-2 111c2 1-1 6-3 7-2 0-1-2 0-4l3-3m-21-179c2-1 2-3 1-4-1-3 3-6 8-6 3 0 4-1 3-2-1-4 1-5 4-2 2 2 2 3-2 6l-5 4c-1-1-3 1-4 3-3 5-7 6-7 3l2-2m-3 145 2 2-1 3-2-2 1-3m2 68c1 0 3 2 4 5 2 5 2 6-1 7-1 1-3 2-2 3v2c-2 0-3-3-4-6-2-6 0-11 3-11m-4-37-2 1-1-1 2-2c1 0 2 1 1 2m-2-186-2 2-4-1c0-2 4-2 6-1m-1 97c1 2 1 2-2 1-2-1-4 0-5 1-1 2-3 2-3 0s7-4 10-2m-8 63c1 4 1 4 4 2 4-2 5-1 2 4-1 3-4 4-6 1l-6-2c-5 1-5-2 0-5 4-3 4-3 6 0m-10-61c1-2 1-1 1 1 1 2 0 3-1 2v-3m-7-4c2-1 2-1 1 1s-2 3-3 2l2-3m-8-53c3 0 3 0 1 2l-4 3-1-3c0-2 2-2 4-2m-3 65 2 3c1 0 3 1 3 3 1 4 1 4 9-2 5-3 8-5 7-3l1 4c2 2 1 3-3 3l-9 2c-4 1-5 0-10-5-3-4-3-6-2-7l2 2m-6-58 2-2 2 2c1 2 0 3-2 3s-2-1-2-3m3 67c1 1 0 2-2 1l-3-1c0-2 4-2 5 0m-9-74 3 1-1 2-2-2v-1m-25 38c1 0 2-2 1-5v-4c6 1 8 0 9-5s5-7 5-3h1l6 1c5 2 5 2 0 4l-9 1c-1 0-2 1-1 3 1 4-6 9-12 9-2 0-2 0 0-1m6 83h-9l-2 1c-2-1-2-2-1-3 2-2 12 0 12 2m-14-7v-2c2 0 3 1 3 2l-1 2-2-2m4-47-3 1c-2 0-3-1-3-2 0-2 1-2 3-2l3 3m-7-23 4 2-1 2-3-2v-2m-2 83c1 2 3 2 5 2h4c1 1 0 2-1 2l-9 5c-5 6-7 6-12 4h-6c-1 2-9 0-10-2 0-1 4-2 9-2s8 0 7 1l2 2c1 1 3 0 3-2 1-1 2-2 3-1 4 1 5-5 2-8v-4l3 3m-20-21 1-2 2 2c1 1 0 2-1 2l-2-2m12-22 2 1v2l-3-2 1-1m1-16c-2-1-2-2-2-3h3c3 4 3 6-1 3m-7-14h5c4 1 4 1 0 4-4 2-4 2-5-1v-3m1 19c2 2 1 6-3 6l-5-1c0-2 6-6 8-5m-8-6c1 0 2 1 1 2l-2 1-1-1 2-2m-27-50c1-5 4-4 6 1 0 2 0 3-3 3s-4-1-3-4m-3 45 2 2-1 2-2-2c-1-1 0-2 1-2m0 34 4-7c2-2 2-3 1-3l4-2c5-3 13-3 13 0l7 3c4 0 7 1 7 2-2 2-12 2-12 0s-11-5-13-4l-3 6c0 3-6 8-9 9l1-4m-2 33 8 5c4 3 5 5 3 4l-7-1c-3 0-6-7-4-8m-2-11-2 2-2-2 2-1 2 1m-7-28 4 1-1 2-4-2 1-1m-4 7 7-1h2c-1 0-2 1-1 2 2 3-2 5-5 3l-3-4m-9 10c4-2 11-3 9-1-1 1-1 2 1 4v2l-4-3c-1-3-4-2-4 1-1 4-1 4-3 2s-1-3 1-5m-6 55 6 1c3 1 3 1 1 1-2-1-4 0-5 1-1 2-2 2-3 0l1-3m-7-33 4-2v2l-3 2c-1 0-2-1-1-2m4 51 2 1 2-5c0-4 1-4 5-2 5 1 5 2 2 6-2 2-4 5-6 5-2 2-11 2-11 0s6-7 6-5m6 15c-2 2-4 3-6 1v-4c2-3 3-3 6-2 2 2 2 3 0 5m-7 45-1 1-3-1 1-2c2 0 3 1 3 2m3 7 6 3 1 1c-2 3-10 1-14-3-3-3 2-5 7-1m-8 12c5 5 7 8 3 5-2-1-4-2-6-1-1 1-3 0-3-1l-3-1h-1l2-4c0-3 3-2 8 2m-3-53-3-2 1-2c2 0 3 1 3 2l-1 2m0-13v2c-2 3-4 3-2 0 0-2 1-3 2-2m-4-4c-2 5-6 7-6 3 0-2 1-3 3-4 2 0 3-2 2-4s-1-2 1-1 2 3 0 6m-5 13-2 2-1-2 2-1 1 1m-3-159 2 2 2 3 2 1c0 3-1 2-5-1s-5-5-1-5m0 93c5 0 7 2 3 3-2 2-3 1-5 0 0-1 0-2 2-3m-9 38c1 0 4 0 7 2 5 3 1 4-5 1-2-1-2-2-2-3m9 36c4 2 5 3 3 5-5 3-3 5 2 4 4-2 4-2 1 1-4 2-17 3-17 0 1-3 3-6 6-6l3-2c0-2-1-3-4-2s-7-1-7-4c0-2 6 0 13 4m-15-150 3 1-4 2-3-1c0-1 1-2 4-2m-3 6 3 2h-3l-4-1c0-1 2-2 4-1m3 9-1 2-2-2c-1-1 0-2 1-2l2 2m-3 4c2-1 3 0 3 1l-4 2c-3 0-4-1-3-2l4-1m-6-19c2 0 2 1 1 2l-2 1-1-1 2-2m0 144 3 3v3c-2 0-3-2-4-3l1-3m-8-138h4c2 0 2 1-1 1l-3-1m-5 11 4-3c2-6 4-5 4 2s-3 10-7 7l-3-5 2-1m0 80c4 3 6 10 4 10l-4-4c-4-6-3-8 0-6m-4 41c0-1 4 0 7 2l7 3-7-1-7-2v-2m0 24c0 3-1 4-3 2-1-1 0-2 1-3s2 0 2 1m-8-39h4c1 1 1 1-2 1-2 0-3 0-2-1m-3 22c1 0 2 0 2 2l-5 1c-4 0-5-1-3-3l4-4c1 0 2 1 1 2s0 2 1 2m-5-48 2 2-1 2-2-2c-1-1 0-2 1-2m4 17c0 1-2 3-9 4l-1-3c0-2 7-3 10-1m-25 27c2-1 2-5 1-7-1-5 3-7 13-4 6 1 7 2 5 4l-7 3c-3 0-7 1-9 3-4 4-7 5-3 1m-21-77c2-3 4-2 3 3-1 3-1 4-3 1v-4m-10 126 3 2-1 1-3-1 1-2m-24-16 1 4c-3 3-4 2-4-2 0-2 1-3 3-2m-6 15-2-2c-1-1 0-2 1-2l2 2-1 2m-1-14c3 3 3 5 0 5l-2-4c0-3 0-3 2-1m-9 7c1 0 2 1 1 3l-2 4-1-4c0-2 1-3 2-3m-4 36 2 1-4 2-2-2 4-1m-11-28c4-4 7-4 7 1l-2 3c-1 0-2 1-2 3s-1 2-3-1-2-4 0-6m-13 12 2-3 1 3c0 2-1 2-2 2s-2-1-1-2m-12 47 2 1-4 2-2-1 4-2m-38-105c2-3 7-1 5 2-1 3-4 4-6 2l1-4m0 109h4c2 1 1 1-1 1s-4 0-3-1m-10 22c2-3 6-2 6 1 0 1-2 2-4 1l-2-2m477-653 3 1-3 2-4-2 3-1m-18 10h2l-2 2h-2l2-2m-103 94c2-3 5-1 5 3 0 2 0 2-3 0-2-1-2-3-2-3m-7 5 2 2-2 1-3-1c0-1 1-2 3-2M321 496l2 1-2 2-2-2 2-1M586 96l3 1-1 2c-2 0-3-1-3-2l1-1m15-120 2 2-1 2-2-2c-1-1 0-2 1-2m-32 12c1-1 2-1 2 1l-1 3-1-4M558-1l2 2-1 1-2-1c-1-1 0-2 1-2M453 287c1 1 0 3-2 4-2 2-3 4-2 6 1 1 1 2-1 0-2-1-2-3 0-6s3-4 5-4m-32-69c2-6 10-13 15-13 2 0 4-1 4-3l4-2 2-2c-1-1 0-2 1-2 2 0 3 1 3 4 0 2-1 3-3 2l-4 2-4 5c-4 2-4 4 0 4l4 2-3 1c-2-2-17 4-17 6l3 3c1 0 1 1-1 2-3 2-6-4-4-9m2-170c1-1 2 0 2 1 0 2-1 3-2 3l-2-2 2-2m-43 88-3-1h4c2 0 2 1-1 1m5-9c-3 3-8 5-8 3 0-1 6-6 8-6v3m8 185h-2l4-1c1 1 1 1-2 1m13-90c1 0 2 1 1 2l-2 2-1-2 2-2m-8-107-1-3c2-2 2-2 3 1 3 5 3 8 0 6-1 0-2-1-1-2s1-2-1-2m-2-63 4-1-1 1c-4 2-5 2-3 0m2 186 5-7v-2h4c3 2 6-1 5-7 1-4 1-4 3-1 3 4 0 11-5 12-3 1-4 2-3 5v2l-8 2-7 2 6-6M375 47l10-2 7-3-5 3-7 4-2 2c0 2-4 2-5-1-1-1-1-2 2-3m-14-29c3 0 5 0 5 2 1 2-2 3-7 1-5-1-4-3 2-3m-9 62h6c5 1 3 2-3 2-4 0-5-1-3-2m-5 76c-6 5-9 6-7 2 0-2 2-3 4-4s3-2 3-4 0-2 2 0c2 1 1 2-2 6m-9-142 3 2-1 1-3-1 1-2m4 8h5l-10 4-1-2 6-2m-11 144 2-2v3c-2 3-3 2-2-1m-19-98 4-3s2 1 2 3c0 1-2 2-5 2-4 1-4 0-1-2m-11 6c1-2 1-1 1 1 1 2 0 3-1 2v-3m-8 129h3c0 2-3 4-4 3s0-2 1-3m1 184-6 3 1-2c1-3 5-4 5-1m-7-175c0 2-1 3-2 3l-2-4c0-4 3-3 4 1m-31 26-2 2-1-2 2-2c1 0 2 1 1 2m7 180-2-2 1-1 2 1-1 2m-3-59 4-2v2l-3 1c-1 0-2 0-1-1m3 42-2-2c-1 0-1-1 1-1l2 1-1 2m6-9c0 2-1 2-2 2l-1-1 2-2 1 1m-2-25c-2 0-4 0-3-1h4c2 0 1 1-1 1m1-74-1-3c1-1 2-1 2 1l-1 2m-1-17 2 1-2 2-3-1 3-2m-1 55c1 1 0 2-2 2s-3-1-3-2l2-1 3 1m-15-97 4-5c0-3 3-4 5-1 2 2-2 5-7 7s-6 1-2-1m-7 104 2 2-2 2c-2 0-2-1-2-2s0-2 2-2m2 101c0 2 2 2 5 0 6-3 6-2 0 3-6 6-10 6-10 1s3-7 5-4M233 29l2 2-1 1-2-1c-1-1 0-2 1-2m-11 8-2-6c0-3 0-4 2-2 3 4 3 9 0 8m-5-24 6-2c4 0 5 0 3 2-2 1-5 2-7 1l-2-1m-9 4 2 2c1 1 0 2-1 2l-2-2 1-2M97 83c-2 3-3 3-2 0l2-2v2M-13 240l-3 2-1-2 3-2 1 2m4-37c-2-3-2-5 0-6s2 0 2 4c0 5 0 5-2 2m7 54-2-2v-2c2 0 3 1 3 2l-1 2m19-28c-2 0-4 0-3-1h4c2 1 1 1-1 1m2-51c0-3 1-4 4-4 1 1 3 0 3-1l-3-2-7-1c-4 0-5 1-6 4s-1 6 1 8c1 2 1 3-1 3-1 0-4-2-6-6-5-7-4-8 4-10 4 0 8-2 9-3l8-5c5-2 6 0 3 5-2 3-2 4 0 6s2 3-1 5c-4 3-8 4-8 1m13 72-2 1-1-1 2-2c1 0 2 1 1 2m3-77-3-1c0-2 4-2 5 0s0 2-2 1m16 49-3-1-1-3c-2-3-1-3 3-1 5 3 6 5 1 5m6-27-2-1h4c1 0 1 1-2 1m7-52c2 1 4 2 3 3l-2 2-3-3c-2-2-2-3 2-2m3 52-2-2 1-2 2 2c1 1 0 2-1 2m7-49-1-6 1-5 2 6c0 3 0 5-2 5m2-22c-4 1-8 1-8-1 0-1 2-2 6-2 5-1 7 1 2 3m12-1-5-3c-3-3-3-4-1-4l5 3 1 4M-16 429l-2-4 1-3 2 3-1 4m11-21c-1 4-5 5-5 2l3-3c3-2 3-2 2 1m28 11c-2 2-4 1-4-2l2-2c2 0 4 2 2 4m0-46c-1-2-1-4 1-4l2-4c0-2 2-3 8-3 5 0 6 0 4 1-4 1-14 8-14 10h4c2-1 4 0 3 1-1 2-7 2-8-1m15 31-3 2-2-1 2-2 3 1m-8 7-3-1h5c1 0 1 1-2 1m7 17-5-1c-2-3 3-4 6-2 2 2 2 3-1 3m-1-8c-3-2-3-2 0-1l4 2c0 3-1 2-4-1m34 9-2-1 1-2 2 2c1 1 1 1-1 1m10-39-2-2 2-1 3 1c0 1-1 2-3 2m7-25c-3 3-6 3-4 0l4-2v2M10 553c-3-2-3-2 2-2l6 1c0 2-2 2-8 1m22-44v-2l5 5c2 2 2 3 0 2l-5-5m0 48c-2 0-3-1-2-2s3-2 4-2c4 1 2 4-2 4m9-12c-3 2-7 1-4-2h5c2 1 2 1-1 2m15 9-3 3v-2c0-1 0-3 2-3l1 2m23-79-2-2 2-1 3 1c0 1-1 2-3 2m21-44-4-2 1-2 4-1c2 0 3 0 3 2 0 1-2 3-4 3m0-96-3-1c0-1 1-2 3-1l3 2h-3m12 82h-2c-2 0-3-1-2-2l4 2m-9-332c2 0 3 1 3 2l-1 2-4-2c-1-1 0-2 2-2m-10 96-3-1 3-2 2 1-2 2m4 30-2-1 2-2 3 1-3 2m-1-44c-1-1 1-2 4-2 5 0 6 0 3 2-4 2-6 2-7 0m17 367-4-2c-2-2 0-3 3 0 2 1 2 2 1 2m0-109c-3 2-5 1-3-1 1-1 2-2 4-1 1 1 1 1-1 2m-5-341-1-3c2-2 6 1 6 3 0 4-4 4-5 0M40 640c-2 3-3 3-2 0l2-2v2m0-20-4-2c0-2 6-2 7 0 1 1 0 2-3 2m14 70-3-2c-1-1 0-2 1-2l2 2v2m5-64-7-1c-3 0-3 0 0-2 4-2 10-1 10 2 0 1-1 2-3 1m0-13-4-2 4-1 3 1-3 2M-9 852l-1-4c1-1 2 0 2 1l-1 3m15-17-4-1c0-2 5-2 6-1s0 2-2 2m10-39-2 1-1-1 2-2c1 0 2 1 1 2m9 57-5-1c0-1 2-2 5-2l6 2-6 1m5-22-5-2c-2-2 0-3 4 0 4 2 4 2 1 2m5-53c2 0 3 1 2 2l-3 2-2-2c0-1 1-2 3-2m0 43c-2 0-3-1-3-2l3-1 2 1-2 2m0-14-2-1 4-2 2 2-4 1m12 27-5 2c-3 0-3 0 0-2 5-3 7-3 5 0m1-28-3-2h3l4 1c0 1-2 2-4 1m9-76 3-1 5 1c0 1-1 2-3 2-3 0-5-1-5-2m9 114-2-1c-1-1 0-2 1-2l2 2-1 1m7-110c-2 4-3 4-3 0 0-2 1-4 2-3s2 2 1 4m32 51-2-2 2-1 2 1-2 2m21 25c-1 2-5 3-5 1l3-2c2 0 3 0 2 1m-3-27c3-1 5 1 3 4h-3v-4m3 22c-1-1 0-2 1-3l2 2c0 3-1 4-3 1m-1-50-6-1v-2c3-2 10-1 10 2 0 1-2 2-4 1m-8-46c-1-1-2-2 0-2l3 2 1 3-4-3m13-57-3-1h-2l5-3h3l1 3c2 2 2 3 0 3l-4-2m1-104c-1-3-1-3 2-2 4 1 5 6 2 8-2 2-7 1-7-1l2-1 1-4m3 93-3-1 9-1c7-1 8 0 6 1l-4 4c0 1-1 3-3 3-3 0-3-1-1-3s-1-5-4-3m5-132-5-3h2l5 2c2 3 1 3-2 1m-4 289v-2c1-3 5-4 5-2s-2 4-5 4m13 35c-2 4-4 5-6 2-1-1 0-2 2-4 5-3 5-2 4 2m1-39-3-3 3-1 2 3-2 1m-1-24 2-2 3 1c0 1-1 2-3 2l-2-1m6 74c-2 0-3-1-3-2s1-2 3-2l2 2-2 2m6 5-2-1 2-2 2 1-2 2m-1-26c-1 0-1-2 1-2l3 1c1 3-2 4-4 1m-11-97c2-1 5 0 5 1h7c4-1 5 0 3 1l-7 2-4 2c0 1-2 3-5 4-3 0-6 2-6 3l-2 1c-2 0-2-3-2-6-1-7 2-13 5-9 1 1 4 2 6 1m-7-44-3-1c1-2 9-4 9-2s-2 3-6 3m6-10-4-2c-1-1 0-4 1-6 2-3 3-3 3 0l1 5c1 2 0 3-1 3m-1-39-2-2 2-1 3 1-3 2m2-16v-4c1-3 2-3 2 1 0 2 0 3-2 3m14 60-2-2-4-5c-2-2-2-3-1-3l5 5c3 3 3 5 2 5m-7-55c3-3 8 1 4 5-2 2-3 2-5 0-1-2-1-4 1-5m8 31-2-1v-2l3 1-1 2m7 1-4-2c-1-3 4-3 5 0 1 2 0 3-1 2m1-25c-2 0-3-1-3-2l3-1 3 1c0 1-1 2-3 2m0-167c2-1 3 0 2 1l-5 1c0-1 1-2 3-2m-8-335 4-4v4c-3 5-7 6-4 0m10 382c2 0 1 1-1 1-3 0-4 0-3-1h4m-3 24c0-2 2-2 3-2s2 1 0 2c-3 3-6 2-3-1m2 55 2 1-2 2c-2 0-3-1-3-2l3-1m2 24v-3c4-4 7-3 4 1-1 2-3 3-4 2m7 3c-2 0-3-1-3-2s1-2 3-2l2 2-2 2m-1-36-2-4c0-1 1-1 2 1l2 4-2-1m26 1-2-1 2-2 2 2-2 1m19 0h-2l2-2h3c0 1-1 2-3 2m-9-303c3-2 8 0 6 2l-4 1c-2-1-3-2-2-3m0 60h5c4 0 3 1 0 2-5 1-6 1-5-2m10 95-1 2-3-2 1-1 3 1m-15 101c1-4 2-5 6-5 3 0 6-2 6-3 2-3 2-3 6 0 5 4 4 8-1 6-5-1-4 3 2 5 4 1 3 1-6 2-10 0-16 3-16 7h-4c-2 0-3 0-1 4 1 5 1 5-3 3s-4-3-3 1c1 2 1 4-1 5l-4 4c-2 5-5 4-8-1-3-6-3-7 1-7l3-3 3-2c4 1 9-5 7-9-1-2 1-3 8-2 2 0 4-2 5-5m-25-149c0-4 1-4 3-1l4 4-3 1c-1 0-3-1-4-4m15 77c1 1 0 2-1 2s-2 0-2-2l1-1 2 1m-7-106c0-5 3-2 4 3 0 3-1 4-4 4l-4-3c0-1-1-3-3-3-1-1 0-1 2-1h5m-7-240c0 2-2 3-4 3-4 0-4 0-2-4 3-5 6-4 6 1m-8-26c4 0 5 1 4 5l-5 7c-3 3-3 2-4-4v-9l5 1m4 387c0 2-1 3-2 2-2 0-3-1-3-2l3-2 2 2M172 8c2 0 2 1 1 1l-2 2-1-2 2-1m5 510c0-2 1-1 2 0l6 3c4 0 4 1 0 5-1 3-3 3-4 2l-6-2c-2 0-4-1-5-3-1-3 1-4 5-4l2-1M164-3l4-1c2 1 1 1-1 1h-3m-3 119c4-2 8 0 7 3-1 2-2 3-3 1-2-2-2-2-2 0l-2 2c-3 0-3-5 0-6m0 380c2-2 9-1 9 2h-2l-6-1c-3 1-3 1-1-1m-9-381 2 2-2 2-2-2 2-2m5 415 2 2c1 1 0 1-1 1-1 1-2 0-2-1l1-2m0 52 2-7c0-1 2-2 5-2 4 0 5 0 3 1s-2 2 0 4c3 3 0 7-6 7-2 0-3 1-3 3l-2 2c-1 0-4 1-5 3s-2 2-4 0c-2-1-2-2 0-3 2 0 2-2 2-3-1-2-1-2 2-1 2 0 4-1 6-4m-10-74 1-2 2 2c1 1 0 2-1 2l-2-2m2-148-2 2-2-1 2-2 2 1m-8-298-3-1c-2-1-2-3-2-4s1-1 2 1l3 4m-10-40c0-3 1-3 4-2l3 4-3 1c-2 0-4-1-4-3m4 114c2-2 3-2 5 0 5 2 5 4 0 5-6 2-7 2-7 0l2-5m-3 10c1 1 0 2-1 2l-2-2 1-2 2 2m-4-78 2 2-1 1-2-1c-1-1-1-2 1-2m4 134c3 1 2 5-1 5h-3c-1-3 2-6 4-5m-1 271-1 3c-2 3-3 2-2-1l3-2M120 70c2 0 3 1 2 2l-2 1-2-1 2-2m-3 81h4c5 1 5 2-1 2-2 0-4-1-3-2m7 148c3 2 3 2 0 2l-5-2c-2-2 1-2 5 0m-3 315 4 2-4 1-3-1 3-2m-6-54 2 1-2 2-2-1 2-2m-5 77 2 3c0 2-2 2-3-1-1-2-1-2 1-2m0 124c2-2 4-2 6-2 3 2 1 4-5 4-4 1-4 0-1-2M76 596l5-2c3 0 4 1 3 2l-3 1c-1-1-2-1-2 1s-1 1-2 0c-1 0-2-1-1-2m3 7c4-2 4-2 4 0s-1 3-2 3-2 1-2 3-1 2-2 2l-2-2 4-6m3 55c0 3-1 3-3 1-1-1 0-2 1-3 1 0 2 0 2 2m-12 40 2-3c2-2 6-2 6 1 0 2-6 3-8 2m8-22 4-3c2 1 1 3 0 4-4 5-7 3-4-1m7 12c-2 0-3-1-3-2s1-2 3-2l2 2-2 2m2-32c-1 3-1 3-2 0v-4c2-2 4 1 2 4m14 37c-1 3-7 2-8-1v-7l-2-4c-1 0-1-2 1-5 2-2 3-5 3-7s1-2 3 0c2 1 3 3 2 5s0 3 4 3c5 0 5 0 1 3-3 3-3 4-1 8v4c-1-1-2 0-3 1m-6 170c2-2 9-1 9 2h-2c-1-1-4-2-6-1-3 0-3 0-1-1m-6 46 4-2c2 0 3 1 2 2l-4 1c-2 0-3 0-2-1m-5 3c-1 4-1 4-3 1-1-2 0-4 1-5 3-1 3-1 2 4m-6-28c3-2 6 0 4 2-1 1-2 2-4 1v-3m-10 3 2 1-1 2-2-1c-1-1 0-2 1-2m-22 53-3 2c-2 0-2-1-1-2l3-2c1 0 2 1 1 2m7-58 5 2c1 2 0 3-1 3l-4-3c-2-2-2-2 0-2m-10 44 5 1v1l-1 6-2 2c-2 0-2-1-1-3l-1-4-3-3h3M3 957l4-1 1 1c1 1-1 2-3 2s-3-1-2-2m-26-7c1-1 2 0 3 1 3 3 4 10 1 8v-2l-3-3-1-4m-10 8c1-2 7-2 7-1l-3 4h-4v-3m-7 7c2-3 5-2 6 1 2 2 1 3-4 1l-2-2m-14 26c1-1 3 1 3 3s-1 3-3 3c-1 0-2-1-2-3s1-3 2-3m-8 5 2 1 1 5c2 3 1 3-2 0l-3-5 2-1"/></svg>