<svg xmlns="http://www.w3.org/2000/svg" width="800" height="800" fill="#1c274d" viewBox="0 0 32 32"><path d="M15.68 17.31h.04a3.98 3.98 0 0 0-.43-.78L4.17 10.2c-.37.13-.6.52-.6 1.1v9.85c0 1.03.72 2.29 1.62 2.8l9.17 5.3c.54.31 1.02.28 1.32-.03v-11.9zm-5.63 6.92-1.83-1.05v-1.92l1.83 1.06v1.91zM11.6 20c-.13.2-.35.37-.67.5l-.32.13c-.23.09-.38.18-.45.28a.6.6 0 0 0-.11.38v.24l-1.83-1.06v-.26c0-.3.06-.53.17-.69.1-.16.34-.32.7-.46l.33-.13c.19-.07.33-.17.42-.28.09-.12.13-.25.13-.42 0-.25-.08-.5-.24-.73a2.05 2.05 0 0 0-.68-.6 3.19 3.19 0 0 0-1.88-.37v-1.7c.41.09.78.2 1.12.32s.67.27.98.45a5.85 5.85 0 0 1 1.89 1.63c.43.6.64 1.25.64 1.94 0 .35-.06.63-.2.83zM27.12 8.25l-9.53-5.52a3.57 3.57 0 0 0-3.24 0L4.8 8.25c-.77.44-.88 1.11-.34 1.62l10.58 6.05c.58.14 1.25.14 1.83 0l10.6-6.07c.5-.5.38-1.17-.37-1.6zm-10.8 2.17-.23-.13c-.26-.15-.43-.3-.5-.49-.07-.18-.06-.47.04-.87l.1-.36a.95.95 0 0 0 .01-.53.55.55 0 0 0-.28-.33 1.29 1.29 0 0 0-.78-.13c-.31.03-.63.14-.96.33a4 4 0 0 0-1.5 1.54l-1.48-.83a8.05 8.05 0 0 1 2-1.55 7.2 7.2 0 0 1 2.6-.93c.8-.1 1.5.02 2.1.35.3.17.5.37.6.6.09.21.1.5.01.86l-.1.35c-.06.26-.08.44-.04.55.04.11.13.2.27.29l.2.11-2.07 1.17zm2.36 1.32L17 10.81l2.07-1.17 1.68.94-2.08 1.16zm9.08-1.57L16.69 16.5c-.19.25-.34.53-.46.82v11.84c.28.35.8.41 1.37.08l9.17-5.3a3.58 3.58 0 0 0 1.62-2.8v-9.85c0-.6-.25-1-.64-1.12zm-4.6 13.51-1.83 1.06v-1.92l1.83-1.06v1.92zm1.55-6.04a7.4 7.4 0 0 1-.67 1.29l-.33.5c-.23.35-.38.61-.45.79-.07.17-.1.34-.1.5v.25l-1.83 1.05v-.26c0-.3.05-.59.16-.88.12-.3.35-.72.71-1.28l.32-.5c.2-.3.34-.56.42-.77.1-.22.14-.41.14-.58 0-.25-.08-.4-.24-.44-.16-.05-.39 0-.68.17-.27.16-.57.4-.89.7-.31.3-.65.67-1 1.1V17.6c.42-.38.8-.71 1.13-.98s.66-.49.98-.67c.82-.48 1.45-.66 1.88-.55.44.1.65.5.65 1.19 0 .35-.06.7-.2 1.06z"/></svg>