<svg xmlns="http://www.w3.org/2000/svg" width="800" height="800" fill="#1c274d" stroke="#1c274d" viewBox="0 0 512 512"><g stroke="#CCC" stroke-linecap="round" stroke-linejoin="round" stroke-width="3.07"><path fill="#1c274d" fill-rule="evenodd" stroke="none" stroke-width="1" d="M426.67 106.67v42.66H358a170.67 170.67 0 1 1-227.65 2.35 85.33 85.33 0 0 0 33.28 30.5 124.59 124.59 0 0 0-46.3 97.07c1.05 69.94 58.05 126.1 128 126.08A125.87 125.87 0 0 0 320 176.63V256h-42.67V106.67h149.34ZM202.67 64a42.67 42.67 0 1 1 0 85.33 42.67 42.67 0 0 1 0-85.33Z"/></g><path fill="#1c274d" fill-rule="evenodd" stroke="none" d="M426.67 106.67v42.66H358a170.67 170.67 0 1 1-227.65 2.35 85.33 85.33 0 0 0 33.28 30.5 124.59 124.59 0 0 0-46.3 97.07c1.05 69.94 58.05 126.1 128 126.08A125.87 125.87 0 0 0 320 176.63V256h-42.67V106.67h149.34ZM202.67 64a42.67 42.67 0 1 1 0 85.33 42.67 42.67 0 0 1 0-85.33Z"/></svg>