<svg xmlns="http://www.w3.org/2000/svg" width="800" height="800" fill="#1c274d" viewBox="0 0 32 32"><path d="M9.47 3.1h3.03c.26 0 .48.28.48.63V8.1c0 .34-.22.62-.48.62H9.47c-.27 0-.49-.28-.49-.62V3.73c0-.35.22-.62.49-.62zm12.5 11.42 7.98 8h-4v7.98h-7.98V22.5h-4l8-7.99zm-4.55 10.25H7.12a.5.5 0 0 1-.5-.5V12.79c0-.28.22-.5.5-.5h17.71c.28 0 .5.22.5.5v4.4l3.12 3.12V7.05c0-.28-4.21-4.5-4.49-4.5h-4.74c.17.07.29.23.29.4v6.19c0 .24-.22.44-.49.44H8.43c-.27 0-.48-.2-.48-.44V2.96c0-.18.12-.34.29-.4H3.99a.5.5 0 0 0-.5.5V27c0 .28.23.5.5.5h13.43v-2.74zm9.09-1.87v4.61h1.44a.5.5 0 0 0 .5-.5v-4.1h-1.94z"/></svg>