<svg xmlns="http://www.w3.org/2000/svg" width="800" height="800" fill="none" viewBox="0 0 24 24"><path fill="#1C274C" d="M21.78 3.53a.75.75 0 0 0-1.06-1.06l-4.45 4.45c-.05-.52-.1-.99-.2-1.39-.16-.79-.47-1.47-1.1-1.92-.24-.17-.5-.3-.78-.4-.82-.27-1.63-.05-2.46.35-.8.4-1.8 1.05-3.03 1.86l-.26.17c-.45.3-.6.4-.76.47-.18.07-.35.13-.54.16-.17.03-.35.03-.89.03h-.16c-1.22 0-2.06 0-2.82.35-.69.32-1.36.95-1.72 1.62-.4.73-.44 1.5-.5 2.58l-.01.13a17.87 17.87 0 0 0 0 2.14v.13c.07 1.09.12 1.85.5 2.58.37.67 1.04 1.3 1.73 1.62.62.29 1.29.34 2.17.35l-2.72 2.72a.75.75 0 1 0 1.06 1.06l18-18Z"/><g fill="#1C274C" opacity=".4"><path d="M16.24 9.07 7.6 17.7c.4.47 1.42 1.11 1.73 1.3 1.04.68 1.9 1.22 2.63 1.55.74.33 1.48.49 2.22.23.27-.09.54-.22.77-.39.7-.5 1-1.28 1.17-2.18.16-.88.21-2.05.28-3.51v-.06c.05-1.11.09-2.09.09-2.64v-.1c0-.58.01-2.44-.26-2.83ZM20.51 6.32c.38-.17.83 0 1 .37.46 1.04.99 2.77.99 5.31 0 2.2-.4 3.78-.8 4.84a7.7 7.7 0 0 1-.86 1.62v.01h-.01l-.58-.47.58.48a.75.75 0 0 1-1.16-.96l.01-.01a1.96 1.96 0 0 0 .16-.24c.12-.2.29-.52.46-.96.34-.9.7-2.3.7-4.31 0-2.33-.48-3.85-.86-4.7a.75.75 0 0 1 .37-.98ZM19.3 9.85a.75.75 0 1 0-1.47.3c.09.43.17 1.04.17 1.85a8.52 8.52 0 0 1-.37 2.55 1.5 1.5 0 0 1-.04.08v.02a.75.75 0 0 0 1.32.71l-.66-.36.66.36.01-.03a1.88 1.88 0 0 0 .1-.22 10 10 0 0 0 .48-3.1c0-.92-.09-1.63-.2-2.16Z"/></g></svg>