<svg xmlns="http://www.w3.org/2000/svg" width="800" height="800" fill="none" viewBox="0 0 24 24"><path fill="#1C274C" d="M2.003 11.7155c.0373-1.8422.056-2.7634.668-3.5519.1116-.1439.2755-.3149.4129-.4309.7525-.6353 1.746-.6353 3.7332-.6353.7099 0 1.0649 0 1.4032-.0929a2.6306 2.6306 0 0 0 .2086-.0667c.3305-.121.6268-.3294 1.2196-.7462 2.3387-1.6442 3.508-2.4663 4.4895-2.1092a2.086 2.086 0 0 1 .533.2892c.8484.6358.9129 2.1151 1.0418 5.0738.0478 1.0955.0803 2.0331.0803 2.5546 0 .5215-.0325 1.4591-.0803 2.5546-.1289 2.9586-.1934 4.438-1.0418 5.0738a2.0868 2.0868 0 0 1-.533.2892c-.9815.3571-2.1508-.465-4.4895-2.1092-.5928-.4168-.8891-.6251-1.2196-.7462a2.6101 2.6101 0 0 0-.2086-.0667c-.3383-.0929-.6933-.0929-1.4032-.0929-1.9871 0-2.9807 0-3.7332-.6353-.1374-.116-.3013-.287-.413-.4309-.6119-.7886-.6306-1.7097-.668-3.5519a14.0605 14.0605 0 0 1 0-.569Z"/><path fill="#1C274C" fill-rule="evenodd" d="M19.4895 5.5522c.2926-.26.7275-.2179.9713.0941l-.5298.4708c.5298-.4707.5296-.471.5298-.4707l.0011.0013.0012.0015.0027.0035.0069.0091a2.5718 2.5718 0 0 1 .0788.1118c.048.0717.112.173.1864.3053.1489.2645.3391.652.5265 1.1715.3753 1.0407.7356 2.601.7356 4.7498 0 2.1489-.3603 3.7092-.7356 4.7499-.1874.5194-.3776.9069-.5265 1.1715a4.6547 4.6547 0 0 1-.1864.3053 2.6644 2.6644 0 0 1-.0788.1117l-.0069.0091-.0027.0036-.0012.0015c-.0003.0003-.0011.0013-.5309-.4695l.5298.4708c-.2438.312-.6787.3542-.9713.0942-.2912-.2588-.3317-.7193-.0918-1.0313a1.2254 1.2254 0 0 0 .0314-.045 3.1449 3.1449 0 0 0 .1261-.2071c.1097-.1951.2643-.5062.4218-.9428.3143-.8713.6437-2.2526.6437-4.2219 0-1.9693-.3294-3.3505-.6437-4.2218-.1575-.4366-.3121-.7477-.4218-.9428a3.1523 3.1523 0 0 0-.1261-.2072 1.283 1.283 0 0 0-.0314-.045M17.7571 8.416c.333-.1973.7529-.0694.9378.2857l-.6028.3571c.6028-.3571.6027-.3575.6028-.3571l.0007.0012.0007.0014.0015.003.0036.007.0088.018a1.761 1.761 0 0 1 .0243.0523c.0188.0422.0427.099.0697.1711.0542.1443.1209.3492.1858.619.1299.5403.2515 1.3372.2515 2.4256 0 1.0885-.1216 1.8854-.2515 2.4256-.0649.2699-.1316.4748-.1858.6191a3.0392 3.0392 0 0 1-.0697.1711 1.7492 1.7492 0 0 1-.0243.0523l-.0088.018-.0036.007-.0015.003-.0007.0014c-.0002.0003-.0007.0012-.6035-.3559l.6028.3571c-.1849.3551-.6048.483-.9378.2857-.3301-.1955-.4508-.6373-.2725-.9909l.0046-.01a1.579 1.579 0 0 0 .0344-.0851c.0321-.0855.0803-.2299.1303-.4381.1-.4158.2083-1.0897.2083-2.0603 0-.9705-.1083-1.6444-.2083-2.0602-.05-.2082-.0982-.3526-.1303-.4381a1.5802 1.5802 0 0 0-.0344-.085l-.0046-.0101c-.1783-.3536-.0576-.7954.2725-.991Z" clip-rule="evenodd"/></svg>